<?xml version="1.0" encoding="UTF-8" standalone="no"?>
<!-- Created with Inkscape (http://www.inkscape.org/) -->
<svg xmlns:dc="http://purl.org/dc/elements/1.1/" xmlns:cc="http://creativecommons.org/ns#" xmlns:rdf="http://www.w3.org/1999/02/22-rdf-syntax-ns#" xmlns:svg="http://www.w3.org/2000/svg" xmlns="http://www.w3.org/2000/svg" xmlns:sodipodi="http://sodipodi.sourceforge.net/DTD/sodipodi-0.dtd" xmlns:inkscape="http://www.inkscape.org/namespaces/inkscape" width="40" height="40" viewBox="0 0 40 40.000001" id="svg2" version="1.1" inkscape:version="0.91 r13725" sodipodi:docname="call-icon-btn-bg.html">
  <defs id="defs4"/>
  <sodipodi:namedview id="base" pagecolor="#ffffff" bordercolor="#666666" borderopacity="1.0" inkscape:pageopacity="0.0" inkscape:pageshadow="2" inkscape:zoom="7.9195959" inkscape:cx="4.265849" inkscape:cy="22.481834" inkscape:document-units="px" inkscape:current-layer="g4137" showgrid="false" units="px" inkscape:window-width="1366" inkscape:window-height="706" inkscape:window-x="-8" inkscape:window-y="-8" inkscape:window-maximized="1"/>
  <metadata id="metadata7">
    <rdf:RDF>
      <cc:Work rdf:about="">
        <dc:format>image/svg+xml</dc:format>
        <dc:type rdf:resource="http://purl.org/dc/dcmitype/StillImage"/>
        <dc:title/>
      </cc:Work>
    </rdf:RDF>
  </metadata>
  <g inkscape:label="Layer 1" inkscape:groupmode="layer" id="layer1" transform="translate(0,-1012.3622)">
    <g id="g4137" transform="translate(0,1012.3622)">
      <g id="g4139" style="fill:#1d88dc;fill-opacity:1">
        <g id="g4141" style="fill:#1d88dc;fill-opacity:1">
          <g id="g4143" style="fill:#1d88dc;fill-opacity:1">
            <path id="path4145" d="m 20,2 c 9.925,0 18,8.075 18,18 0,9.925 -8.075,18 -18,18 C 10.075,38 2,29.925 2,20 2,10.075 10.075,2 20,2 M 20,0 C 8.955,0 0,8.954 0,20 0,31.047 8.955,40 20,40 31.047,40 40,31.047 40,20 40,8.954 31.047,0 20,0 l 0,0 z" inkscape:connector-curvature="0" style="fill:#1d88dc;fill-opacity:1"/>
          </g>
        </g>
      </g>
      <path id="path4147" d="m 14.371,9.793 c 1.207,-0.228 1.998,1.133 2.6,2.072 0.586,0.912 1.307,1.982 1.016,3.169 -0.162,0.666 -0.764,1.029 -1.219,1.422 -0.449,0.388 -1.133,0.744 -1.299,1.34 -0.271,0.967 0.322,1.982 0.689,2.56 0.834,1.306 1.842,2.483 3.129,3.534 0.623,0.51 1.488,1.191 2.355,1.016 1.295,-0.262 1.637,-1.859 3.047,-2.072 1.342,-0.203 2.25,0.77 3.008,1.422 0.73,0.631 1.908,1.439 1.828,2.52 -0.047,0.621 -0.545,1.006 -0.977,1.381 -0.439,0.383 -0.824,0.813 -1.258,1.096 -1.051,0.686 -2.34,1.022 -3.82,0.976 -1.451,-0.045 -2.607,-0.538 -3.656,-1.097 -2.051,-1.094 -3.672,-2.633 -5.199,-4.348 -1.502,-1.686 -2.889,-3.682 -3.656,-5.889 -0.957,-2.756 -0.451,-5.587 1.098,-7.353 0.262,-0.3 0.676,-0.613 1.055,-0.935 0.378,-0.323 0.728,-0.714 1.259,-0.814 z" inkscape:connector-curvature="0" style="clip-rule:evenodd;fill:#1d88dc;fill-rule:evenodd;fill-opacity:1"/>
    </g>
  </g>
</svg>