<svg xmlns="http://www.w3.org/2000/svg" xmlns:xlink="http://www.w3.org/1999/xlink" id="Livello_1" x="0" y="0" version="1.1" viewBox="0 0 185.6 31.4" xml:space="preserve"><style>.st0{clip-path:url(#SVGID_2_);fill:#55575b}</style><defs><path id="SVGID_1_" d="M.2.2h185.2v30.9H.2z"/></defs><clipPath id="SVGID_2_"><use overflow="visible" xlink:href="#SVGID_1_"/></clipPath><path d="M82.7 11.4h8.7L85.8 20h-8.7l5.6-8.6zm20.6-2.9c0-1.6-1.3-2.9-2.9-2.9H80.5c-3.2 0-5.9 1.7-7.4 4.3 0 0-7.5 11.6-7.5 11.6-.3.4-.4.9-.4 1.4 0 1.6 1.3 2.9 2.9 2.9H88c3.2 0 5.9-1.7 7.4-4.3 0 0 7.5-11.6 7.5-11.6.3-.5.4-.9.4-1.4M125.1 5.6h-17.4l-3.8 5.8h5.9l-9.3 14.4h10.6l9.3-14.4h5.9l3.8-5.8zM64.2 5.6H53.6S43.3 21.5 43.3 21.5c-.2.4-.4.9-.4 1.4 0 1.6 1.3 2.9 2.9 2.9h14.9l3.7-5.7h-9.7l9.5-14.5zM27.4 15.6l-9.5 4.6-5.3-4.6L22 11l5.4 4.6zM39.6 11L27 .2 4.4 11l5.3 4.6-9.5 4.6 12.6 10.9 22.5-10.9-5.3-4.6 9.6-4.6zM150.3 5.6h-17.5l-3.7 5.8h5.9l-9.3 14.4h10.5l9.4-14.4h5.9l3.7-5.8zM164.8 11.4h8.7l-5.6 8.6h-8.7l5.6-8.6zm20.6-2.9c0-1.6-1.3-2.9-2.9-2.9h-19.9c-3.2 0-5.9 1.7-7.4 4.3 0 0-7.5 11.6-7.5 11.6-.3.4-.4.9-.4 1.4 0 1.6 1.3 2.9 2.9 2.9h19.9c3.2 0 5.9-1.7 7.4-4.3 0 0 7.5-11.6 7.5-11.6.3-.5.4-.9.4-1.4" class="st0"/></svg>