<svg xmlns="http://www.w3.org/2000/svg" width="100%" height="100%" preserveAspectRatio="none" viewBox="0 0 199.608 8.403">
  <defs>
    <style>
      .cls-1 {
        fill: #2fcc71;
      }
    </style>
  </defs>
  <g id="Group_25700" data-name="Group 25700" transform="translate(-0.023)">
    <g id="Group_25689" data-name="Group 25689" transform="translate(0.023)">
      <path id="Path_57385" data-name="Path 57385" class="cls-1" d="M198.856.693Q160.267-.041,121.679,0C95.954,0,70.2.326,44.475.693Q22.643,1,.784,1.346C.812,2.774.841,4.2.869,5.67c5.913-1.142,11.91-1.1,17.88-1.142,6.339-.041,12.678-.082,19.017-.082,12.763,0,25.526.122,38.29.245,25.128.326,50.285.571,75.414,1.02,14.071.245,28.142.571,42.184,1.632,1.023.082.995-3.794-.057-3.916-11.939-1.55-23.963-1.305-35.9-1.509-12.308-.2-24.617-.408-36.925-.53-24.276-.2-48.551-.163-72.827.653C34.241,2.488,20.568,3.467,6.9,4.487c-.995.082-.91,3.957.057,3.916,12.081-.9,24.219-1.265,36.328-1.713C55.475,6.2,67.7,5.915,79.893,5.751c24.361-.326,48.694-.082,73.055.245,13.531.163,27.2-.286,40.706,1.387-.028-1.305-.057-2.611-.057-3.916-25.072-1.754-50.143-1.958-75.215-2.284C93.083.857,67.812.326,42.513.2,35.321.163,28.13.2,20.966.245,14.2.245,7.436.082.784,1.346-.268,1.55-.211,5.67.841,5.67c25.725-.367,51.451-.816,77.176-1.1s51.479-.489,77.2-.449q21.831,0,43.691.326c.995,0,.938-3.712-.057-3.753Z" transform="translate(-0.023)"/>
    </g>
  </g>
</svg>
