<?xml version="1.0" encoding="UTF-8" standalone="no"?>
<!-- Created with Inkscape (http://www.inkscape.org/) -->

<svg
   xmlns:dc="http://purl.org/dc/elements/1.1/"
   xmlns:cc="http://creativecommons.org/ns#"
   xmlns:rdf="http://www.w3.org/1999/02/22-rdf-syntax-ns#"
   xmlns:svg="http://www.w3.org/2000/svg"
   xmlns="http://www.w3.org/2000/svg"
   xmlns:sodipodi="http://sodipodi.sourceforge.net/DTD/sodipodi-0.dtd"
   xmlns:inkscape="http://www.inkscape.org/namespaces/inkscape"
   width="60"
   height="20"
   viewBox="0 0 60.000001 20"
   id="svg2"
   version="1.1"
   inkscape:version="0.91 r13725"
   sodipodi:docname="call-white-icon.svg">
  <defs
     id="defs4" />
  <sodipodi:namedview
     id="base"
     pagecolor="#ffffff"
     bordercolor="#666666"
     borderopacity="1.0"
     inkscape:pageopacity="0.0"
     inkscape:pageshadow="2"
     inkscape:zoom="2.8"
     inkscape:cx="41.811344"
     inkscape:cy="20.029433"
     inkscape:document-units="px"
     inkscape:current-layer="layer1"
     showgrid="false"
     units="px"
     inkscape:snap-bbox="true"
     inkscape:snap-global="false"
     inkscape:window-width="1366"
     inkscape:window-height="706"
     inkscape:window-x="-8"
     inkscape:window-y="-8"
     inkscape:window-maximized="1" />
  <metadata
     id="metadata7">
    <rdf:RDF>
      <cc:Work
         rdf:about="">
        <dc:format>image/svg+xml</dc:format>
        <dc:type
           rdf:resource="http://purl.org/dc/dcmitype/StillImage" />
        <dc:title></dc:title>
      </cc:Work>
    </rdf:RDF>
  </metadata>
  <g
     inkscape:label="Layer 1"
     inkscape:groupmode="layer"
     id="layer1"
     transform="translate(0,-1032.3622)">
    <flowRoot
       xml:space="preserve"
       id="flowRoot3340"
       style="font-style:normal;font-weight:normal;font-size:40px;line-height:125%;font-family:sans-serif;letter-spacing:0px;word-spacing:0px;fill:#000000;fill-opacity:1;stroke:none;stroke-width:1px;stroke-linecap:butt;stroke-linejoin:miter;stroke-opacity:1"><flowRegion
         id="flowRegion3342"><rect
           id="rect3344"
           width="511.42856"
           height="280"
           x="460"
           y="346.64792" /></flowRegion><flowPara
         id="flowPara3346" /></flowRoot>    <g
       transform="scale(1.0434489,0.95836029)"
       style="font-style:italic;font-variant:normal;font-weight:normal;font-stretch:normal;font-size:22.73014641px;line-height:125%;font-family:'Lucida Handwriting';-inkscape-font-specification:'Lucida Handwriting Italic';letter-spacing:0px;word-spacing:0px;fill:#ffffff;fill-opacity:1;stroke:none;stroke-width:1px;stroke-linecap:butt;stroke-linejoin:miter;stroke-opacity:1"
       id="text3348">
      <path
         d="m 13.436696,1092.3364 q 0.210875,0.4994 0.210875,0.788 0,1.4428 -2.475011,2.8191 -2.4639124,1.3762 -5.0610092,1.3762 -2.8412684,0 -4.4949753,-1.6537 -1.64260823,-1.6537 -1.64260823,-4.5283 0,-4.5393 2.97445273,-7.8024 2.9744528,-3.263 7.114269,-3.263 1.687004,0 2.841269,0.5994 1.154265,0.5993 1.154265,1.465 0,0.7769 -0.998883,1.7092 -1.342944,-2.6859 -3.8068559,-2.6859 -2.6969852,0 -4.7058507,2.808 -2.0088654,2.7968 -2.0088654,6.5371 0,2.3862 1.19866,3.7847 1.2097588,1.3873 3.2630191,1.3873 3.5071909,0 6.4372489,-3.3407 z"
         style="fill:#ffffff;fill-opacity:1"
         id="path4241" />
      <path
         d="m 26.000429,1090.1277 q -1.420635,2.9412 -3.507191,5.0056 -2.075458,2.0532 -3.618178,2.0532 -1.176462,0 -1.886779,-1.0433 -0.699219,-1.0543 -0.699219,-2.7968 0,-3.4739 2.097655,-6.1154 2.108754,-2.6415 4.872332,-2.6415 1.675904,0 3.629276,1.0433 0.288566,-1.0322 2.352925,-1.0322 0.133185,0 0.43285,0.011 -0.632627,0.9656 -0.965588,2.6415 l -0.188678,0.9434 q -0.321862,1.576 -0.321862,3.6847 0,2.4307 1.132068,2.4307 1.19866,0 3.274118,-1.9978 2.086556,-2.0089 4.095421,-5.1054 l 0.865699,0.5993 q -2.05326,3.6626 -4.694752,6.1154 -2.641491,2.4417 -4.53937,2.4417 -2.39732,0 -2.39732,-3.9955 0,-0.8324 0.06659,-2.242 z m 0.521639,-2.6525 q -2.330728,-1.5206 -3.873448,-1.5206 -1.675905,0 -2.896762,2.0422 -1.220857,2.0311 -1.220857,4.8279 0,2.242 1.465028,2.242 1.587115,0 6.070992,-6.97 0.05549,-0.089 0.455047,-0.6215 z"
         style="fill:#ffffff;fill-opacity:1"
         id="path4243" />
      <path
         d="m 46.777202,1087.8636 q -2.297431,4.3618 -4.617061,6.8479 -2.319629,2.475 -4.10652,2.475 -1.298549,0 -2.097655,-0.9989 -0.799107,-1.0099 -0.799107,-2.6304 0,-0.91 0.332961,-2.5749 l 2.208642,-11.1209 q -0.432849,0.067 -0.754712,0.067 -2.552702,0 -2.552702,-2.1309 l 0,-0.2553 q 1.331845,0.7547 3.007749,0.7547 1.675905,0 2.930058,-0.8324 l -2.574899,13.3518 q -0.34406,1.798 -0.34406,2.475 0,1.8757 1.376239,1.8757 1.331845,0 2.674788,-1.4984 1.354042,-1.5094 4.428383,-6.415 l 0.887896,0.6104 z"
         style="fill:#ffffff;fill-opacity:1"
         id="path4245" />
      <path
         d="m 56.011326,1087.8636 q -2.297432,4.3618 -4.617061,6.8479 -2.31963,2.475 -4.106521,2.475 -1.298548,0 -2.097655,-0.9989 -0.799107,-1.0099 -0.799107,-2.6304 0,-0.91 0.332961,-2.5749 l 2.208642,-11.1209 q -0.432849,0.067 -0.754711,0.067 -2.552702,0 -2.552702,-2.1309 l 0,-0.2553 q 1.331844,0.7547 3.007748,0.7547 1.675905,0 2.930058,-0.8324 l -2.574899,13.3518 q -0.34406,1.798 -0.34406,2.475 0,1.8757 1.376239,1.8757 1.331845,0 2.674788,-1.4984 1.354042,-1.5094 4.428383,-6.415 l 0.887897,0.6104 z"
         style="fill:#ffffff;fill-opacity:1"
         id="path4247" />
    </g>
    <path
       style="fill:#ffffff;fill-opacity:1;fill-rule:evenodd;stroke:none;stroke-width:1px;stroke-linecap:butt;stroke-linejoin:miter;stroke-opacity:1"
       d="m 52.133783,1048.7966 c 0,0 1.569547,-1.1434 2.730584,-3.1497 1.118032,-1.8658 1.139534,-1.9459 1.139534,-1.9459 0,0 -1.074837,4.7263 -3.805616,6.6804 -2.724009,1.9494 -0.0645,-1.5848 -0.0645,-1.5848 z"
       id="path3430"
       inkscape:connector-curvature="0"
       sodipodi:nodetypes="cccsc" />
  </g>
</svg>
