<?xml version="1.0" encoding="UTF-8" standalone="no"?>
<!-- Created with Inkscape (http://www.inkscape.org/) -->

<svg
   xmlns:dc="http://purl.org/dc/elements/1.1/"
   xmlns:cc="http://creativecommons.org/ns#"
   xmlns:rdf="http://www.w3.org/1999/02/22-rdf-syntax-ns#"
   xmlns:svg="http://www.w3.org/2000/svg"
   xmlns="http://www.w3.org/2000/svg"
   xmlns:sodipodi="http://sodipodi.sourceforge.net/DTD/sodipodi-0.dtd"
   xmlns:inkscape="http://www.inkscape.org/namespaces/inkscape"
   width="32"
   height="32"
   viewBox="0 0 32 32"
   id="svg2"
   version="1.1"
   inkscape:version="0.91 r13725"
   sodipodi:docname="chat-icn-close.svg">
  <defs
     id="defs4" />
  <sodipodi:namedview
     id="base"
     pagecolor="#ffffff"
     bordercolor="#666666"
     borderopacity="1.0"
     inkscape:pageopacity="0.0"
     inkscape:pageshadow="2"
     inkscape:zoom="7.9195959"
     inkscape:cx="16.295428"
     inkscape:cy="20.405619"
     inkscape:document-units="px"
     inkscape:current-layer="layer1"
     showgrid="false"
     units="px"
     inkscape:window-width="1366"
     inkscape:window-height="706"
     inkscape:window-x="-8"
     inkscape:window-y="-8"
     inkscape:window-maximized="1" />
  <metadata
     id="metadata7">
    <rdf:RDF>
      <cc:Work
         rdf:about="">
        <dc:format>image/svg+xml</dc:format>
        <dc:type
           rdf:resource="http://purl.org/dc/dcmitype/StillImage" />
        <dc:title />
      </cc:Work>
    </rdf:RDF>
  </metadata>
  <g
     inkscape:label="Layer 1"
     inkscape:groupmode="layer"
     id="layer1"
     transform="translate(0,-1020.3621)">
    <path
       inkscape:connector-curvature="0"
       style="fill-rule:evenodd;fill:#ffffff;fill-opacity:1"
       d="m 18.07983,1036.4519 11.820591,-11.8206 c 0.529495,-0.5294 0.529495,-1.3878 0,-1.9174 -0.529497,-0.5295 -1.387895,-0.5295 -1.91739,0 L 16.16244,1034.5345 4.3418498,1022.7156 c -0.5294961,-0.5295 -1.3878939,-0.5295 -1.9173899,0 -0.5294959,0.5297 -0.5294959,1.3881 0,1.9175 l 11.8205901,11.8206 -11.818783,11.8188 c -0.5294959,0.5295 -0.5294959,1.3879 0,1.9174 0.2656516,0.2639 0.610818,0.3975 0.9577914,0.3975 0.3469734,0 0.6939469,-0.1319 0.9577914,-0.3975 l 11.8205902,-11.8206 11.820591,11.8206 c 0.265651,0.2639 0.610817,0.3975 0.957791,0.3975 0.346974,0 0.693947,-0.1319 0.957791,-0.3975 0.529496,-0.5295 0.529496,-1.3879 0,-1.9174 L 18.07983,1036.4519 Z"
       id="path4" />
  </g>
</svg>
