<?xml version="1.0" encoding="UTF-8" standalone="no"?>
<svg
   xmlns:dc="http://purl.org/dc/elements/1.1/"
   xmlns:cc="http://creativecommons.org/ns#"
   xmlns:rdf="http://www.w3.org/1999/02/22-rdf-syntax-ns#"
   xmlns:svg="http://www.w3.org/2000/svg"
   xmlns="http://www.w3.org/2000/svg"
   xmlns:sodipodi="http://sodipodi.sourceforge.net/DTD/sodipodi-0.dtd"
   xmlns:inkscape="http://www.inkscape.org/namespaces/inkscape"
   enable-background="new 0 0 32 32"
   height="20"
   id="svg2"
   version="1.1"
   viewBox="0 0 20 20"
   width="20"
   xml:space="preserve"
   inkscape:version="0.91 r13725"
   sodipodi:docname="control-panel-icon-footer.svg"><metadata
     id="metadata13"><rdf:RDF><cc:Work
         rdf:about=""><dc:format>image/svg+xml</dc:format><dc:type
           rdf:resource="http://purl.org/dc/dcmitype/StillImage" /><dc:title /></cc:Work></rdf:RDF></metadata><defs
     id="defs11" /><sodipodi:namedview
     pagecolor="#ffffff"
     bordercolor="#666666"
     borderopacity="1"
     objecttolerance="10"
     gridtolerance="10"
     guidetolerance="10"
     inkscape:pageopacity="0"
     inkscape:pageshadow="2"
     inkscape:window-width="1366"
     inkscape:window-height="706"
     id="namedview9"
     showgrid="false"
     inkscape:zoom="7.375"
     inkscape:cx="-4.6779661"
     inkscape:cy="15.728814"
     inkscape:window-x="-8"
     inkscape:window-y="-8"
     inkscape:window-maximized="1"
     inkscape:current-layer="svg2" /><g
     id="background"
     transform="translate(0,-12)"><rect
       height="32"
       width="32"
       id="rect4"
       x="0"
       y="0"
       style="fill:none" /></g><g
     id="settings"
     transform="matrix(0.71428571,0,0,0.71428571,-1.4285714,-1.4285713)"
     style="fill:#000000;fill-opacity:1"><path
       d="M 30,17.999 30,14 25.799,14 C 25.549,12.773 25.07,11.632 24.416,10.614 L 27.414,7.615 24.584,4.787 21.631,7.739 C 20.553,7.002 19.324,6.47 18,6.201 L 18,2 14,2 14,6.201 C 12.723,6.461 11.537,6.966 10.488,7.66 L 7.614,4.787 4.785,7.614 7.659,10.49 C 6.965,11.539 6.46,12.724 6.201,14 L 2,14 l 0,4 4.202,0 c 0.269,1.324 0.801,2.553 1.538,3.631 l -2.954,2.953 2.83,2.83 2.998,-2.999 c 1.019,0.654 2.16,1.134 3.387,1.384 l 0,4.201 3.999,0 0,-4.201 c 1.276,-0.26 2.463,-0.764 3.512,-1.459 l 3.073,3.074 2.83,-2.83 -3.074,-3.073 c 0.694,-1.05 1.199,-2.235 1.458,-3.512 l 4.201,0 z m -14,4 C 12.687,21.993 10.006,19.311 9.999,16 10.007,12.687 12.687,10.006 16,10 c 3.312,0.006 5.993,2.686 5.999,6 -0.006,3.312 -2.687,5.993 -5.999,5.999 z"
       id="path7"
       inkscape:connector-curvature="0"
       style="fill:#000000;fill-opacity:1" /></g></svg>