<?xml version="1.0" encoding="UTF-8" standalone="no"?>
<!-- Created with Inkscape (http://www.inkscape.org/) -->

<svg
   xmlns:dc="http://purl.org/dc/elements/1.1/"
   xmlns:cc="http://creativecommons.org/ns#"
   xmlns:rdf="http://www.w3.org/1999/02/22-rdf-syntax-ns#"
   xmlns:svg="http://www.w3.org/2000/svg"
   xmlns="http://www.w3.org/2000/svg"
   xmlns:xlink="http://www.w3.org/1999/xlink"
   xmlns:sodipodi="http://sodipodi.sourceforge.net/DTD/sodipodi-0.dtd"
   xmlns:inkscape="http://www.inkscape.org/namespaces/inkscape"
   width="110"
   height="36"
   viewBox="0 0 110 36.000001"
   id="svg2"
   version="1.1"
   inkscape:version="0.91 r13725"
   sodipodi:docname="fb-share-btn-flat.svg">
  <defs
     id="defs4">
    <linearGradient
       inkscape:collect="always"
       id="linearGradient4150">
      <stop
         style="stop-color:#000000;stop-opacity:1;"
         offset="0"
         id="stop4152" />
      <stop
         style="stop-color:#000000;stop-opacity:0;"
         offset="1"
         id="stop4154" />
    </linearGradient>
    <linearGradient
       inkscape:collect="always"
       xlink:href="#linearGradient4150"
       id="linearGradient4156"
       x1="101.33018"
       y1="1029.2197"
       x2="145.25237"
       y2="1029.2197"
       gradientUnits="userSpaceOnUse" />
  </defs>
  <sodipodi:namedview
     id="base"
     pagecolor="#ffffff"
     bordercolor="#666666"
     borderopacity="1.0"
     inkscape:pageopacity="0.0"
     inkscape:pageshadow="2"
     inkscape:zoom="1.979899"
     inkscape:cx="67.157486"
     inkscape:cy="-13.288232"
     inkscape:document-units="px"
     inkscape:current-layer="layer1"
     showgrid="false"
     units="px"
     inkscape:window-width="1366"
     inkscape:window-height="706"
     inkscape:window-x="-8"
     inkscape:window-y="-8"
     inkscape:window-maximized="1" />
  <metadata
     id="metadata7">
    <rdf:RDF>
      <cc:Work
         rdf:about="">
        <dc:format>image/svg+xml</dc:format>
        <dc:type
           rdf:resource="http://purl.org/dc/dcmitype/StillImage" />
        <dc:title></dc:title>
      </cc:Work>
    </rdf:RDF>
  </metadata>
  <g
     inkscape:label="Layer 1"
     inkscape:groupmode="layer"
     id="layer1"
     transform="translate(0,-1016.3622)">
    <rect
       style="color:#000000;clip-rule:nonzero;display:inline;overflow:visible;visibility:visible;opacity:1;isolation:auto;mix-blend-mode:normal;color-interpolation:sRGB;color-interpolation-filters:linearRGB;solid-color:#000000;solid-opacity:1;fill:#3b5998;fill-opacity:1;fill-rule:evenodd;stroke:none;stroke-width:0;stroke-linecap:butt;stroke-linejoin:miter;stroke-miterlimit:4;stroke-dasharray:none;stroke-dashoffset:0;stroke-opacity:1;color-rendering:auto;image-rendering:auto;shape-rendering:auto;text-rendering:auto;enable-background:accumulate"
       id="rect4147"
       width="110"
       height="36"
       x="0"
       y="1016.3622"
       ry="3.3928571" />
    <g
       style="font-style:normal;font-weight:normal;font-size:40px;line-height:125%;font-family:sans-serif;letter-spacing:0px;word-spacing:0px;fill:#fefefe;fill-opacity:1;stroke:none;stroke-width:1px;stroke-linecap:butt;stroke-linejoin:miter;stroke-opacity:1"
       id="text4177"
       transform="translate(-25.357143,-0.08928572)">
      <path
         id="path4182"
         style="font-style:normal;font-variant:normal;font-weight:bold;font-stretch:condensed;font-family:'Myriad Pro';-inkscape-font-specification:'Myriad Pro Bold Condensed';fill:#ffffff;fill-opacity:1"
         d="m 50.474621,1047.7095 0,-11.5304 c 0,0 3.114244,0 3.845008,0 l 0.663645,-4.9095 -4.508653,0 0,-2.0065 c 0,-1.8404 1.33354,-2.7367 3.35825,-2.7367 0.736259,0 1.581073,-0.02 2.041235,0.1509 l 0.0251,-4.5373 c -0.874306,-0.2567 -1.606175,-0.2596 -3.170724,-0.2596 -2.116744,0 -4.049422,0.5756 -5.337874,1.8596 -1.794631,1.712 -1.882273,3.2975 -1.882273,5.6944 l 0,1.8352 -3.501618,0 0,4.9095 3.501618,0 0,11.5304 z"
         inkscape:connector-curvature="0"
         sodipodi:nodetypes="cccccssccscscccccc" />
    </g>
    <g
       style="font-style:normal;font-weight:normal;font-size:40px;line-height:125%;font-family:sans-serif;letter-spacing:0px;word-spacing:0px;fill:#ffffff;fill-opacity:1;stroke:none;stroke-width:1px;stroke-linecap:butt;stroke-linejoin:miter;stroke-opacity:1"
       id="text4146"
       transform="matrix(1.1910847,0,0,1.1910847,-13.950756,-198.08078)">
      <path
         id="path4240"
         style="font-style:normal;font-variant:normal;font-weight:normal;font-stretch:normal;font-size:20px;font-family:'Myriad Set Pro';-inkscape-font-specification:'Myriad Set Pro';fill:#ffffff;fill-opacity:1"
         d="m 89.989841,1036.1877 q 0,0.48 -0.06,0.78 l -6.7,0 q 0.04,1.72 0.9,2.68 0.88,0.94 2.44,0.94 1.48,0 2.6,-0.5 l 0.28,1.1 q -1.26,0.6 -3.1,0.6 -1.08,0 -1.94,-0.34 -0.84,-0.36 -1.44,-1 -0.6,-0.66 -0.92,-1.54 -0.3,-0.9 -0.3,-1.98 0,-1.14 0.32,-2.08 0.32,-0.96 0.88,-1.64 0.58,-0.7 1.38,-1.08 0.82,-0.4 1.82,-0.4 0.9,0 1.6,0.34 0.72,0.32 1.22,0.92 0.5,0.58 0.76,1.4 0.26,0.82 0.26,1.8 z m -1.5,-0.34 q 0,-1.38 -0.64,-2.18 -0.64,-0.82 -1.84,-0.82 -1.12,0 -1.86,0.84 -0.74,0.84 -0.88,2.16 l 5.22,0 z m -7.632812,-2.62 q -0.12,-0.02 -0.26,-0.02 -0.14,-0.02 -0.3,-0.02 -0.54,0 -1,0.24 -0.44,0.24 -0.76,0.66 -0.32,0.42 -0.5,1.02 -0.18,0.58 -0.18,1.28 l 0,5.22 -1.52,0 0,-6.72 q 0,-0.74 -0.02,-1.46 0,-0.74 -0.04,-1.48 l 1.34,0 0,1.9 0.12,0 q 0.34,-0.96 1.04,-1.52 0.72,-0.58 1.62,-0.58 0.14,0 0.24,0.02 0.12,0 0.22,0.02 l 0,1.44 z m -8.635938,8.38 -0.14,-1.24 -0.06,0 q -0.98,1.46 -2.92,1.46 -0.62,0 -1.14,-0.2 -0.52,-0.2 -0.9,-0.56 -0.38,-0.38 -0.6,-0.88 -0.22,-0.5 -0.22,-1.1 0,-1.76 1.46,-2.66 1.46,-0.92 4.24,-0.92 l 0,-0.22 q 0,-2.38 -2.22,-2.38 -1.38,0 -2.44,0.7 l -0.36,-1.04 q 1.28,-0.82 3.02,-0.82 3.52,0 3.52,3.86 l 0,3.7 q 0,0.7 0.02,1.28 0.04,0.56 0.12,1.02 l -1.38,0 z m -0.26,-5 -0.3,0 q -3.88,0 -3.88,2.28 0,0.9 0.48,1.34 0.48,0.44 1.2,0.44 0.46,0 0.9,-0.16 0.46,-0.16 0.8,-0.44 0.36,-0.3 0.58,-0.72 0.22,-0.42 0.22,-0.94 l 0,-1.8 z m -7.84125,5 -1.54,0 0,-5.64 q 0,-2.96 -2.28,-2.96 -0.52,0 -0.98,0.22 -0.46,0.22 -0.82,0.6 -0.34,0.36 -0.56,0.86 -0.2,0.48 -0.2,1.04 l 0,5.88 -1.52,0 0,-14.18 1.52,0 0,6.06 0.04,0 q 0.46,-0.8 1.28,-1.26 0.84,-0.48 1.76,-0.48 1.5,0 2.4,1.08 0.9,1.06 0.9,2.96 l 0,5.82 z m -10.212187,-3.62 q 0,0.86 -0.32,1.58 -0.32,0.7 -0.92,1.2 -0.58,0.5 -1.42,0.78 -0.84,0.26 -1.88,0.26 -2.08,0 -3.3,-0.86 l 0.42,-1.26 q 1.34,0.84 2.98,0.84 1.38,0 2.14,-0.66 0.76,-0.66 0.76,-1.76 0,-1.02 -0.6,-1.64 -0.58,-0.64 -1.94,-1.16 -3.46,-1.3 -3.46,-3.8 0,-0.78 0.3,-1.44 0.32,-0.66 0.88,-1.14 0.56,-0.48 1.32,-0.74 0.78,-0.26 1.68,-0.26 1.74,0 2.84,0.64 l -0.46,1.24 q -0.98,-0.62 -2.44,-0.62 -1.16,0 -1.88,0.58 -0.72,0.58 -0.72,1.54 0,0.46 0.12,0.82 0.14,0.36 0.44,0.68 0.3,0.32 0.8,0.62 0.52,0.28 1.3,0.6 0.9,0.36 1.54,0.78 0.64,0.4 1.04,0.88 0.42,0.48 0.6,1.06 0.18,0.56 0.18,1.24 z"
         inkscape:connector-curvature="0" />
    </g>
  </g>
</svg>
