<?xml version="1.0" encoding="UTF-8" standalone="no"?>
<svg
   xmlns:dc="http://purl.org/dc/elements/1.1/"
   xmlns:cc="http://creativecommons.org/ns#"
   xmlns:rdf="http://www.w3.org/1999/02/22-rdf-syntax-ns#"
   xmlns:svg="http://www.w3.org/2000/svg"
   xmlns="http://www.w3.org/2000/svg"
   xmlns:sodipodi="http://sodipodi.sourceforge.net/DTD/sodipodi-0.dtd"
   xmlns:inkscape="http://www.inkscape.org/namespaces/inkscape"
   enable-background="new 0 0 139 139"
   height="139px"
   id="Find"
   version="1.1"
   viewBox="0 0 139 139"
   width="139px"
   xml:space="preserve"
   inkscape:version="0.91 r13725"
   sodipodi:docname="search-blog-icon.svg"><metadata
     id="metadata9"><rdf:RDF><cc:Work
         rdf:about=""><dc:format>image/svg+xml</dc:format><dc:type
           rdf:resource="http://purl.org/dc/dcmitype/StillImage" /></cc:Work></rdf:RDF></metadata><defs
     id="defs7" /><sodipodi:namedview
     pagecolor="#ffffff"
     bordercolor="#666666"
     borderopacity="1"
     objecttolerance="10"
     gridtolerance="10"
     guidetolerance="10"
     inkscape:pageopacity="0"
     inkscape:pageshadow="2"
     inkscape:window-width="1366"
     inkscape:window-height="706"
     id="namedview5"
     showgrid="false"
     inkscape:zoom="1.6978417"
     inkscape:cx="-20.319915"
     inkscape:cy="69.5"
     inkscape:window-x="-8"
     inkscape:window-y="-8"
     inkscape:window-maximized="1"
     inkscape:current-layer="Find" /><path
     d="M127.558,111.961L100.249,84.65c4.64-7.387,7.333-16.118,7.333-25.488c0-26.509-21.49-47.996-47.998-47.996  c-26.508,0-47.996,21.487-47.996,47.996c0,26.51,21.487,47.995,47.996,47.995c10.197,0,19.642-3.188,27.414-8.605l26.984,26.986  c1.875,1.873,4.333,2.806,6.788,2.806c2.458,0,4.913-0.933,6.791-2.806C131.308,121.787,131.308,115.711,127.558,111.961z   M59.584,91.607c-17.917,0-32.443-14.525-32.443-32.443S41.667,26.72,59.584,26.72c17.918,0,32.443,14.526,32.443,32.444  S77.502,91.607,59.584,91.607z"
     id="path3"
     style="stroke:none;stroke-opacity:1;fill:#ffffff;fill-opacity:1" /></svg>