<?xml version="1.0" encoding="UTF-8" standalone="no"?>
<!-- Created with Inkscape (http://www.inkscape.org/) -->

<svg
   xmlns:dc="http://purl.org/dc/elements/1.1/"
   xmlns:cc="http://creativecommons.org/ns#"
   xmlns:rdf="http://www.w3.org/1999/02/22-rdf-syntax-ns#"
   xmlns:svg="http://www.w3.org/2000/svg"
   xmlns="http://www.w3.org/2000/svg"
   xmlns:sodipodi="http://sodipodi.sourceforge.net/DTD/sodipodi-0.dtd"
   xmlns:inkscape="http://www.inkscape.org/namespaces/inkscape"
   width="110"
   height="36"
   viewBox="0 0 110 36.000001"
   id="svg2"
   version="1.1"
   inkscape:version="0.91 r13725"
   sodipodi:docname="twitter-share-btn-flat.svg">
  <defs
     id="defs4" />
  <sodipodi:namedview
     id="base"
     pagecolor="#ffffff"
     bordercolor="#666666"
     borderopacity="1.0"
     inkscape:pageopacity="0.0"
     inkscape:pageshadow="2"
     inkscape:zoom="2.8"
     inkscape:cx="42.488843"
     inkscape:cy="-6.3678539"
     inkscape:document-units="px"
     inkscape:current-layer="layer1"
     showgrid="false"
     units="px"
     inkscape:window-width="1366"
     inkscape:window-height="706"
     inkscape:window-x="-8"
     inkscape:window-y="-8"
     inkscape:window-maximized="1" />
  <metadata
     id="metadata7">
    <rdf:RDF>
      <cc:Work
         rdf:about="">
        <dc:format>image/svg+xml</dc:format>
        <dc:type
           rdf:resource="http://purl.org/dc/dcmitype/StillImage" />
        <dc:title></dc:title>
      </cc:Work>
    </rdf:RDF>
  </metadata>
  <g
     inkscape:label="Layer 1"
     inkscape:groupmode="layer"
     id="layer1"
     transform="translate(0,-1016.3622)">
    <rect
       style="color:#000000;clip-rule:nonzero;display:inline;overflow:visible;visibility:visible;opacity:1;isolation:auto;mix-blend-mode:normal;color-interpolation:sRGB;color-interpolation-filters:linearRGB;solid-color:#000000;solid-opacity:1;fill:#00a7d3;fill-opacity:1;fill-rule:evenodd;stroke:none;stroke-width:0;stroke-linecap:butt;stroke-linejoin:miter;stroke-miterlimit:4;stroke-dasharray:none;stroke-dashoffset:0;stroke-opacity:1;color-rendering:auto;image-rendering:auto;shape-rendering:auto;text-rendering:auto;enable-background:accumulate"
       id="rect4147"
       width="110"
       height="36"
       x="0"
       y="1016.3622"
       ry="3.3928571" />
    <g
       style="font-style:normal;font-weight:normal;font-size:44.35377121px;line-height:125%;font-family:sans-serif;letter-spacing:0px;word-spacing:0px;fill:#ffffff;fill-opacity:1;stroke:none;stroke-width:1px;stroke-linecap:butt;stroke-linejoin:miter;stroke-opacity:1"
       id="text4173"
       transform="translate(-3.5714286,-0.71428571)">
      <g
         style="font-style:normal;font-weight:normal;font-size:40px;line-height:125%;font-family:sans-serif;letter-spacing:0px;word-spacing:0px;fill:#ffffff;fill-opacity:1;stroke:none;stroke-width:1px;stroke-linecap:butt;stroke-linejoin:miter;stroke-opacity:1"
         id="text4175"
         transform="matrix(1.1475768,0,0,1.1475768,-7.5074589,-153.10963)">
        <path
           id="path4206"
           style="font-style:normal;font-variant:normal;font-weight:normal;font-stretch:normal;font-size:20px;font-family:'Myriad Set Pro';-inkscape-font-specification:'Myriad Set Pro';fill:#ffffff;fill-opacity:1"
           d="m 94.432372,1032.8108 -2.54,0 0,5.52 q 0,1.9 1.32,1.9 0.62,0 1.02,-0.14 l 0.08,1.18 q -0.6,0.22 -1.46,0.22 -1.2,0 -1.84,-0.72 -0.62,-0.74 -0.62,-2.44 l 0,-5.52 -1.52,0 0,-1.18 1.52,0 0,-1.76 1.5,-0.5 0,2.26 2.54,0 0,1.18 z m -6.626563,3.06 q 0,0.48 -0.06,0.78 l -6.7,0 q 0.04,1.72 0.9,2.68 0.88,0.94 2.44,0.94 1.48,0 2.6,-0.5 l 0.28,1.1 q -1.26,0.6 -3.1,0.6 -1.08,0 -1.94,-0.34 -0.84,-0.36 -1.44,-1 -0.6,-0.66 -0.92,-1.54 -0.3,-0.9 -0.3,-1.98 0,-1.14 0.32,-2.08 0.32,-0.96 0.88,-1.64 0.58,-0.7 1.38,-1.08 0.82,-0.4 1.82,-0.4 0.9,0 1.6,0.34 0.72,0.32 1.22,0.92 0.5,0.58 0.76,1.4 0.26,0.82 0.26,1.8 z m -1.5,-0.34 q 0,-1.38 -0.64,-2.18 -0.64,-0.82 -1.84,-0.82 -1.12,0 -1.86,0.84 -0.74,0.84 -0.88,2.16 l 5.22,0 z m -8.226562,0.34 q 0,0.48 -0.06,0.78 l -6.7,0 q 0.04,1.72 0.9,2.68 0.88,0.94 2.44,0.94 1.48,0 2.6,-0.5 l 0.28,1.1 q -1.26,0.6 -3.1,0.6 -1.08,0 -1.94,-0.34 -0.84,-0.36 -1.44,-1 -0.6,-0.66 -0.92,-1.54 -0.3,-0.9 -0.3,-1.98 0,-1.14 0.32,-2.08 0.32,-0.96 0.88,-1.64 0.58,-0.7 1.38,-1.08 0.82,-0.4 1.82,-0.4 0.9,0 1.6,0.34 0.72,0.32 1.22,0.92 0.5,0.58 0.76,1.4 0.26,0.82 0.26,1.8 z m -1.5,-0.34 q 0,-1.38 -0.64,-2.18 -0.64,-0.82 -1.84,-0.82 -1.12,0 -1.86,0.84 -0.74,0.84 -0.88,2.16 l 5.22,0 z m -7.61875,-3.9 -3.1,9.66 -1.38,0 -1.54,-4.82 q -0.3,-0.94 -0.5,-1.72 -0.2,-0.8 -0.36,-1.46 l -0.04,0 q -0.16,0.74 -0.38,1.54 -0.22,0.78 -0.52,1.66 l -1.62,4.8 -1.4,0 -2.88,-9.66 1.56,0 1.36,5.04 q 0.24,0.88 0.42,1.64 0.18,0.76 0.32,1.44 l 0.04,0 q 0.14,-0.58 0.36,-1.34 0.22,-0.76 0.52,-1.72 l 1.64,-5.06 1.3,0 1.56,4.98 q 0.26,0.84 0.48,1.62 0.22,0.76 0.38,1.52 l 0.04,0 q 0.24,-1.26 0.78,-3.12 l 1.44,-5 1.52,0 z m -13.249063,-2.54 -4.1,0 0,12.2 -1.52,0 0,-12.2 -4.06,0 0,-1.28 9.68,0 0,1.28 z"
           inkscape:connector-curvature="0" />
      </g>
    </g>
    <path
       id="path4221"
       d="m 38.619994,1023.8546 c -1.083907,0.6433 -2.283777,1.11 -3.561838,1.3619 -1.0228,-1.09 -2.480748,-1.7715 -4.094107,-1.7715 -3.097369,0 -5.608583,2.5113 -5.608583,5.6092 0,0.4391 0.0494,0.8669 0.145373,1.2782 -4.66186,-0.2342 -8.795325,-2.4669 -11.561886,-5.8605 -0.482783,0.8279 -0.759176,1.7913 -0.759176,2.8202 0,1.9458 0.990046,3.6629 2.495188,4.6686 -0.919076,-0.03 -1.784264,-0.282 -2.540709,-0.702 -5.29e-4,0.023 -5.29e-4,0.047 -5.29e-4,0.071 0,2.7172 1.933511,4.9837 4.499757,5.4999 -0.470632,0.1276 -0.966183,0.1964 -1.477936,0.1964 -0.361802,0 -0.713125,-0.035 -1.055554,-0.1012 0.714269,2.2282 2.785403,3.8504 5.239561,3.8954 -1.919688,1.5044 -4.337743,2.4013 -6.966065,2.4013 -0.452318,0 -0.899089,-0.027 -1.338023,-0.079 2.48295,1.5922 5.430985,2.5202 8.598265,2.5202 10.317638,0 15.958977,-8.5466 15.958977,-15.959 0,-0.2431 -0.005,-0.4856 -0.0155,-0.7264 1.09553,-0.7892 2.046745,-1.7775 2.798172,-2.9026 -1.005101,0.4469 -2.08672,0.7482 -3.221608,0.8831 1.15875,-0.6939 2.047273,-1.7926 2.466219,-3.1036 z"
       inkscape:connector-curvature="0"
       style="fill:#ffffff;fill-opacity:1" />
  </g>
</svg>
