<svg xmlns="http://www.w3.org/2000/svg" xmlns:xlink="http://www.w3.org/1999/xlink" id="Lag_1" x="0" y="0" version="1.1" viewBox="0 0 1401 616" xml:space="preserve"><style>.st0{fill:#163f6f}.st4{fill:#eb623f}.st41{fill:#fff}.st43{fill:#dadada}.st45{fill:#fdc800}.st46{fill:#0e426e}</style><path fill="#eb623f" d="M547.5 613.4h-516v-71h544z" opacity=".9"/><path fill="#9b59b6" d="M1129.5 613.4h-571l28-71h571z" opacity=".9"/><g opacity=".9"><path id="SVGID_2_" d="M583.5 533.4h-552v-432h552l86 216z" class="st4"/><defs><path id="SVGID_1_" d="M583.5 533.4h-552v-432h552l86 216z"/></defs><clipPath id="SVGID_3_"><use overflow="visible" xlink:href="#SVGID_1_"/></clipPath><path fill="#eb623f" d="M31.5 101.4v432-432z" clip-path="url(#SVGID_3_)"/><defs><path id="SVGID_4_" d="M583.5 533.4h-552v-432h552l86 216z"/></defs><clipPath id="SVGID_5_"><use overflow="visible" xlink:href="#SVGID_4_"/></clipPath><path fill="#eb623f" d="M31.5 101.4h18.8v432H31.5z" clip-path="url(#SVGID_5_)"/><defs><path id="SVGID_6_" d="M583.5 533.4h-552v-432h552l86 216z"/></defs><clipPath id="SVGID_7_"><use overflow="visible" xlink:href="#SVGID_6_"/></clipPath><path fill="#eb623f" d="M50.3 101.4h18.8v432H50.3z" clip-path="url(#SVGID_7_)"/><defs><path id="SVGID_8_" d="M583.5 533.4h-552v-432h552l86 216z"/></defs><clipPath id="SVGID_9_"><use overflow="visible" xlink:href="#SVGID_8_"/></clipPath><path fill="#eb623f" d="M69 101.4h18.8v432H69z" clip-path="url(#SVGID_9_)"/><defs><path id="SVGID_10_" d="M583.5 533.4h-552v-432h552l86 216z"/></defs><clipPath id="SVGID_11_"><use overflow="visible" xlink:href="#SVGID_10_"/></clipPath><path fill="#eb623f" d="M87.8 101.4h18.8v432H87.8z" clip-path="url(#SVGID_11_)"/><defs><path id="SVGID_12_" d="M583.5 533.4h-552v-432h552l86 216z"/></defs><clipPath id="SVGID_13_"><use overflow="visible" xlink:href="#SVGID_12_"/></clipPath><path fill="#eb623f" d="M106.6 101.4h18.8v432h-18.8z" clip-path="url(#SVGID_13_)"/><defs><path id="SVGID_14_" d="M583.5 533.4h-552v-432h552l86 216z"/></defs><clipPath id="SVGID_15_"><use overflow="visible" xlink:href="#SVGID_14_"/></clipPath><path fill="#eb623f" d="M125.3 101.4h18.8v432h-18.8z" clip-path="url(#SVGID_15_)"/><defs><path id="SVGID_16_" d="M583.5 533.4h-552v-432h552l86 216z"/></defs><clipPath id="SVGID_17_"><use overflow="visible" xlink:href="#SVGID_16_"/></clipPath><path fill="#eb623f" d="M144.1 101.4h18.8v432h-18.8z" clip-path="url(#SVGID_17_)"/><defs><path id="SVGID_18_" d="M583.5 533.4h-552v-432h552l86 216z"/></defs><clipPath id="SVGID_19_"><use overflow="visible" xlink:href="#SVGID_18_"/></clipPath><path fill="#eb623f" d="M162.9 101.4h18.8v432h-18.8z" clip-path="url(#SVGID_19_)"/><defs><path id="SVGID_20_" d="M583.5 533.4h-552v-432h552l86 216z"/></defs><clipPath id="SVGID_21_"><use overflow="visible" xlink:href="#SVGID_20_"/></clipPath><path fill="#eb623f" d="M181.6 101.4h18.8v432h-18.8z" clip-path="url(#SVGID_21_)"/><defs><path id="SVGID_22_" d="M583.5 533.4h-552v-432h552l86 216z"/></defs><clipPath id="SVGID_23_"><use overflow="visible" xlink:href="#SVGID_22_"/></clipPath><path fill="#eb623f" d="M200.4 101.4h18.8v432h-18.8z" clip-path="url(#SVGID_23_)"/><defs><path id="SVGID_24_" d="M583.5 533.4h-552v-432h552l86 216z"/></defs><clipPath id="SVGID_25_"><use overflow="visible" xlink:href="#SVGID_24_"/></clipPath><path fill="#eb623f" d="M219.1 101.4h18.8v432h-18.8z" clip-path="url(#SVGID_25_)"/><g><defs><path id="SVGID_26_" d="M583.5 533.4h-552v-432h552l86 216z"/></defs><clipPath id="SVGID_27_"><use overflow="visible" xlink:href="#SVGID_26_"/></clipPath><path fill="#eb623f" d="M237.9 101.4h18.8v432h-18.8z" clip-path="url(#SVGID_27_)"/></g><g><defs><path id="SVGID_28_" d="M583.5 533.4h-552v-432h552l86 216z"/></defs><clipPath id="SVGID_29_"><use overflow="visible" xlink:href="#SVGID_28_"/></clipPath><path fill="#eb623f" d="M256.7 101.4h18.8v432h-18.8z" clip-path="url(#SVGID_29_)"/></g><g><defs><path id="SVGID_30_" d="M583.5 533.4h-552v-432h552l86 216z"/></defs><clipPath id="SVGID_31_"><use overflow="visible" xlink:href="#SVGID_30_"/></clipPath><path fill="#eb623f" d="M275.4 101.4h18.8v432h-18.8z" clip-path="url(#SVGID_31_)"/></g><g><defs><path id="SVGID_32_" d="M583.5 533.4h-552v-432h552l86 216z"/></defs><clipPath id="SVGID_33_"><use overflow="visible" xlink:href="#SVGID_32_"/></clipPath><path fill="#eb623f" d="M294.2 101.4H313v432h-18.8z" clip-path="url(#SVGID_33_)"/></g><g><defs><path id="SVGID_34_" d="M583.5 533.4h-552v-432h552l86 216z"/></defs><clipPath id="SVGID_35_"><use overflow="visible" xlink:href="#SVGID_34_"/></clipPath><path fill="#eb623f" d="M313 101.4h18.8v432H313z" clip-path="url(#SVGID_35_)"/></g><g><defs><path id="SVGID_36_" d="M583.5 533.4h-552v-432h552l86 216z"/></defs><clipPath id="SVGID_37_"><use overflow="visible" xlink:href="#SVGID_36_"/></clipPath><path fill="#eb623f" d="M331.7 101.4h18.8v432h-18.8z" clip-path="url(#SVGID_37_)"/></g><g><defs><path id="SVGID_38_" d="M583.5 533.4h-552v-432h552l86 216z"/></defs><clipPath id="SVGID_39_"><use overflow="visible" xlink:href="#SVGID_38_"/></clipPath><path fill="#eb623f" d="M350.5 101.4h18.8v432h-18.8z" clip-path="url(#SVGID_39_)"/></g><g><defs><path id="SVGID_40_" d="M583.5 533.4h-552v-432h552l86 216z"/></defs><clipPath id="SVGID_41_"><use overflow="visible" xlink:href="#SVGID_40_"/></clipPath><path fill="#eb623f" d="M369.3 101.4h18.8v432h-18.8z" clip-path="url(#SVGID_41_)"/></g><g><defs><path id="SVGID_42_" d="M583.5 533.4h-552v-432h552l86 216z"/></defs><clipPath id="SVGID_43_"><use overflow="visible" xlink:href="#SVGID_42_"/></clipPath><path fill="#eb623f" d="M388 101.4h18.8v432H388z" clip-path="url(#SVGID_43_)"/></g><g><defs><path id="SVGID_44_" d="M583.5 533.4h-552v-432h552l86 216z"/></defs><clipPath id="SVGID_45_"><use overflow="visible" xlink:href="#SVGID_44_"/></clipPath><path fill="#eb623f" d="M406.8 101.4h18.8v432h-18.8z" clip-path="url(#SVGID_45_)"/></g><g><defs><path id="SVGID_46_" d="M583.5 533.4h-552v-432h552l86 216z"/></defs><clipPath id="SVGID_47_"><use overflow="visible" xlink:href="#SVGID_46_"/></clipPath><path fill="#eb623f" d="M425.6 101.4h18.8v432h-18.8z" clip-path="url(#SVGID_47_)"/></g><g><defs><path id="SVGID_48_" d="M583.5 533.4h-552v-432h552l86 216z"/></defs><clipPath id="SVGID_49_"><use overflow="visible" xlink:href="#SVGID_48_"/></clipPath><path fill="#eb623f" d="M444.3 101.4h18.8v432h-18.8z" clip-path="url(#SVGID_49_)"/></g><g><defs><path id="SVGID_50_" d="M583.5 533.4h-552v-432h552l86 216z"/></defs><clipPath id="SVGID_51_"><use overflow="visible" xlink:href="#SVGID_50_"/></clipPath><path fill="#eb623f" d="M463.1 101.4h18.8v432h-18.8z" clip-path="url(#SVGID_51_)"/></g><g><defs><path id="SVGID_52_" d="M583.5 533.4h-552v-432h552l86 216z"/></defs><clipPath id="SVGID_53_"><use overflow="visible" xlink:href="#SVGID_52_"/></clipPath><path fill="#eb623f" d="M481.9 101.4h18.8v432h-18.8z" clip-path="url(#SVGID_53_)"/></g><g><defs><path id="SVGID_54_" d="M583.5 533.4h-552v-432h552l86 216z"/></defs><clipPath id="SVGID_55_"><use overflow="visible" xlink:href="#SVGID_54_"/></clipPath><path fill="#eb623f" d="M500.6 101.4h18.8v432h-18.8z" clip-path="url(#SVGID_55_)"/></g><g><defs><path id="SVGID_56_" d="M583.5 533.4h-552v-432h552l86 216z"/></defs><clipPath id="SVGID_57_"><use overflow="visible" xlink:href="#SVGID_56_"/></clipPath><path fill="#eb623f" d="M519.4 101.4h18.8v432h-18.8z" clip-path="url(#SVGID_57_)"/></g><g><defs><path id="SVGID_58_" d="M583.5 533.4h-552v-432h552l86 216z"/></defs><clipPath id="SVGID_59_"><use overflow="visible" xlink:href="#SVGID_58_"/></clipPath><path fill="#eb623f" d="M538.1 101.4h18.8v432h-18.8z" clip-path="url(#SVGID_59_)"/></g><g><defs><path id="SVGID_60_" d="M583.5 533.4h-552v-432h552l86 216z"/></defs><clipPath id="SVGID_61_"><use overflow="visible" xlink:href="#SVGID_60_"/></clipPath><path fill="#eb623f" d="M556.9 101.4h18.8v432h-18.8z" clip-path="url(#SVGID_61_)"/></g><g><defs><path id="SVGID_62_" d="M583.5 533.4h-552v-432h552l86 216z"/></defs><clipPath id="SVGID_63_"><use overflow="visible" xlink:href="#SVGID_62_"/></clipPath><path fill="#eb623f" d="M575.7 101.4h18.8v432h-18.8z" clip-path="url(#SVGID_63_)"/></g><g><defs><path id="SVGID_64_" d="M583.5 533.4h-552v-432h552l86 216z"/></defs><clipPath id="SVGID_65_"><use overflow="visible" xlink:href="#SVGID_64_"/></clipPath><path fill="#eb623f" d="M594.4 101.4h18.8v432h-18.8z" clip-path="url(#SVGID_65_)"/></g><g><defs><path id="SVGID_66_" d="M583.5 533.4h-552v-432h552l86 216z"/></defs><clipPath id="SVGID_67_"><use overflow="visible" xlink:href="#SVGID_66_"/></clipPath><path fill="#eb623f" d="M613.2 101.4H632v432h-18.8z" clip-path="url(#SVGID_67_)"/></g><g><defs><path id="SVGID_68_" d="M583.5 533.4h-552v-432h552l86 216z"/></defs><clipPath id="SVGID_69_"><use overflow="visible" xlink:href="#SVGID_68_"/></clipPath><path fill="#eb623f" d="M632 101.4h18.8v432H632z" clip-path="url(#SVGID_69_)"/></g><g><defs><path id="SVGID_70_" d="M583.5 533.4h-552v-432h552l86 216z"/></defs><clipPath id="SVGID_71_"><use overflow="visible" xlink:href="#SVGID_70_"/></clipPath><path fill="#eb623f" d="M650.7 101.4h18.8v432h-18.8z" clip-path="url(#SVGID_71_)"/></g><g><defs><path id="SVGID_72_" d="M583.5 533.4h-552v-432h552l86 216z"/></defs><clipPath id="SVGID_73_"><use overflow="visible" xlink:href="#SVGID_72_"/></clipPath><path fill="#eb623f" d="M669.5 533.4v-432 432z" clip-path="url(#SVGID_73_)"/></g></g><path d="M443.5 533.4l-10.6.1 85.2-216.1-85.2-216.2 10.6.2 85.4 216zM296.5 533.4l-10.6.1 85.2-216.1-85.2-216.2 10.6.2 85.4 216zM148.5 533.4l-10.6.1 85.2-216.1-85.2-216.2 10.6.2 85.4 216zM65.9 491.3v-12.1h2v12.1h-2zM74.3 491.5c-1.1 0-2-.4-2.7-1.2s-1-2-1-3.5.3-2.7 1-3.5c.6-.8 1.6-1.3 2.7-1.3 1.2 0 2.1.4 2.8 1.3h.1c-.1-.7-.1-1.2-.1-1.6v-3.3h2v12.9h-1.5l-.3-1.2H77c-.6.9-1.5 1.4-2.7 1.4zm.5-1.6c.8 0 1.4-.2 1.8-.7s.6-1.2.6-2.2v-.3c0-1.2-.2-2-.6-2.5s-1-.7-1.8-.7c-.7 0-1.2.3-1.6.8-.4.6-.6 1.3-.6 2.4 0 1 .2 1.8.5 2.3s1 .9 1.7.9zM86.1 491.5c-1.4 0-2.5-.4-3.3-1.2-.8-.8-1.2-2-1.2-3.4 0-1.5.4-2.7 1.1-3.5.7-.9 1.8-1.3 3.1-1.3a4 4 0 012.9 1.1c.7.7 1.1 1.7 1.1 3v1.1h-6.1c0 .9.3 1.6.7 2.1s1.1.7 1.9.7c.5 0 1-.1 1.5-.2s1-.3 1.5-.5v1.6c-.5.2-1 .4-1.4.5-.6-.1-1.1 0-1.8 0zm-.3-8.1c-.6 0-1.1.2-1.5.6s-.6 1-.7 1.7h4.2c0-.8-.2-1.3-.5-1.7-.4-.4-.9-.6-1.5-.6zM100.3 491.3h-2v-5.6c0-.7-.1-1.2-.4-1.6-.3-.3-.7-.5-1.4-.5-.8 0-1.4.2-1.8.7s-.6 1.3-.6 2.4v4.6h-2v-9.2h1.5l.3 1.2h.1c.3-.4.7-.8 1.2-1s1.1-.4 1.7-.4c2.2 0 3.3 1.1 3.3 3.4v6h.1zM106.8 489.9c.5 0 1-.1 1.4-.2v1.5c-.2.1-.5.2-.8.2-.3.1-.7.1-1.1.1-1.8 0-2.8-1-2.8-2.9v-4.9h-1.3v-.9l1.3-.7.7-1.9h1.2v2h2.6v1.5h-2.6v4.9c0 .5.1.8.4 1 .3.2.6.3 1 .3zM110.3 479.7c0-.3.1-.6.3-.8.2-.2.5-.3.8-.3s.6.1.8.3c.2.2.3.5.3.8s-.1.6-.3.8c-.2.2-.5.3-.8.3-.4 0-.6-.1-.8-.3-.2-.2-.3-.5-.3-.8zm2.1 11.6h-2v-9.2h2v9.2zM120.1 483.6h-2.2v7.7h-2v-7.7h-1.5v-.9l1.5-.6v-.6c0-1.1.3-1.9.8-2.4s1.3-.8 2.3-.8c.7 0 1.4.1 2 .3l-.5 1.5c-.5-.2-.9-.2-1.4-.2-.4 0-.8.1-1 .4s-.3.7-.3 1.2v.6h2.2l.1 1.5zM120.6 482.1h2.1l1.9 5.2c.3.7.5 1.4.6 2.1h.1c0-.3.1-.7.3-1.1.1-.4.8-2.5 2.1-6.2h2.1l-3.9 10.4c-.7 1.9-1.9 2.9-3.6 2.9-.4 0-.9 0-1.3-.1v-1.5c.3.1.6.1 1 .1.9 0 1.6-.5 2-1.6l.3-.9-3.7-9.3zM221.3 152.7H219l-3.8-5.5-1.2 1v4.5h-2v-12.1h2v5.8c.5-.7 1.1-1.3 1.6-1.9l3.3-3.9h2.3c-2.1 2.5-3.6 4.3-4.6 5.3l4.7 6.8zM231.1 152.7h-2v-5.6c0-.7-.1-1.2-.4-1.6-.3-.3-.7-.5-1.4-.5-.8 0-1.4.2-1.8.7s-.6 1.3-.6 2.4v4.6h-2v-9.2h1.5l.3 1.2h.1c.3-.4.7-.8 1.2-1s1.1-.4 1.7-.4c2.2 0 3.3 1.1 3.3 3.4l.1 6zM242.3 148.1c0 1.5-.4 2.7-1.2 3.5s-1.8 1.3-3.2 1.3c-.9 0-1.6-.2-2.3-.6s-1.2-.9-1.5-1.7-.5-1.6-.5-2.5c0-1.5.4-2.7 1.1-3.5s1.8-1.3 3.2-1.3c1.3 0 2.4.4 3.2 1.3.9.9 1.2 2.1 1.2 3.5zm-6.6 0c0 2.1.8 3.2 2.3 3.2s2.3-1.1 2.3-3.2-.8-3.1-2.3-3.1c-.8 0-1.4.3-1.8.8-.4.5-.5 1.3-.5 2.3zM252.4 152.7l-1.2-4.3c-.1-.5-.4-1.5-.8-3.2h-.1c-.3 1.5-.6 2.6-.8 3.2l-1.2 4.3h-2.2l-2.6-9.2h2l1.2 4.5c.3 1.1.5 2.1.6 2.9.1-.4.1-.9.3-1.4.1-.5.2-.9.3-1.2l1.4-4.8h2.1l1.4 4.8c.1.3.2.7.3 1.2.1.6.2 1 .2 1.3h.1c.1-.7.3-1.6.6-2.9l1.2-4.5h2l-2.6 9.2-2.2.1zM267.2 152.7h-2v-5.6c0-.7-.1-1.2-.4-1.6-.3-.3-.7-.5-1.4-.5-.8 0-1.4.2-1.8.7s-.6 1.3-.6 2.4v4.6h-2v-9.2h1.5l.3 1.2h.1c.3-.4.7-.8 1.2-1s1.1-.4 1.7-.4c2.2 0 3.3 1.1 3.3 3.4l.1 6zM69.1 140.6v7.9c0 .9-.2 1.7-.6 2.4s-.9 1.2-1.7 1.6c-.7.4-1.6.5-2.6.5-1.5 0-2.7-.4-3.5-1.2s-1.3-1.9-1.3-3.3v-7.8h2v7.7c0 1 .2 1.7.7 2.2s1.2.7 2.1.7c1.9 0 2.8-1 2.8-2.9v-7.7l2.1-.1zM80.4 152.7h-2v-5.6c0-.7-.1-1.2-.4-1.6-.3-.3-.7-.5-1.4-.5-.8 0-1.4.2-1.8.7s-.6 1.3-.6 2.4v4.6h-2v-9.2h1.5l.3 1.2h.1c.3-.4.7-.8 1.2-1s1.1-.4 1.7-.4c2.2 0 3.3 1.1 3.3 3.4v6h.1zM85.4 147.9l1.1-1.4 2.8-3h2.2l-3.7 3.9 3.9 5.2h-2.3l-2.9-4-1.1.9v3.1h-1.9v-12.9h1.9v8.2zM101.6 152.7h-2v-5.6c0-.7-.1-1.2-.4-1.6-.3-.3-.7-.5-1.4-.5-.8 0-1.4.2-1.8.7s-.6 1.3-.6 2.4v4.6h-2v-9.2h1.5l.3 1.2h.1c.3-.4.7-.8 1.2-1s1.1-.4 1.7-.4c2.2 0 3.3 1.1 3.3 3.4v6h.1zM112.8 148.1c0 1.5-.4 2.7-1.2 3.5s-1.8 1.3-3.2 1.3c-.9 0-1.6-.2-2.3-.6s-1.2-.9-1.5-1.7-.5-1.6-.5-2.5c0-1.5.4-2.7 1.1-3.5s1.8-1.3 3.2-1.3c1.3 0 2.4.4 3.2 1.3.8.9 1.2 2.1 1.2 3.5zm-6.7 0c0 2.1.8 3.2 2.3 3.2s2.3-1.1 2.3-3.2-.8-3.1-2.3-3.1c-.8 0-1.4.3-1.8.8-.3.5-.5 1.3-.5 2.3zM122.9 152.7l-1.2-4.3c-.1-.5-.4-1.5-.8-3.2h-.1c-.3 1.5-.6 2.6-.8 3.2l-1.2 4.3h-2.2l-2.6-9.2h2l1.2 4.5c.3 1.1.5 2.1.6 2.9.1-.4.1-.9.3-1.4.1-.5.2-.9.3-1.2l1.4-4.8h2.1l1.4 4.8c.1.3.2.7.3 1.2.1.6.2 1 .2 1.3h.1c.1-.7.3-1.6.6-2.9l1.2-4.5h2l-2.6 9.2-2.2.1zM137.7 152.7h-2v-5.6c0-.7-.1-1.2-.4-1.6-.3-.3-.7-.5-1.4-.5-.8 0-1.4.2-1.8.7s-.6 1.3-.6 2.4v4.6h-2v-9.2h1.5l.3 1.2h.1c.3-.4.7-.8 1.2-1s1.1-.4 1.7-.4c2.2 0 3.3 1.1 3.3 3.4l.1 6zM209.3 480.7c-1.1 0-2 .4-2.7 1.2s-1 1.9-1 3.3c0 1.5.3 2.6.9 3.4.6.8 1.5 1.1 2.7 1.1.5 0 1-.1 1.5-.2s1-.2 1.5-.4v1.7c-1 .4-2 .5-3.2.5-1.8 0-3.1-.5-4.1-1.6s-1.4-2.6-1.4-4.6c0-1.3.2-2.4.7-3.3s1.1-1.7 2-2.2 1.9-.8 3.1-.8c1.2 0 2.4.3 3.4.8l-.7 1.7c-.4-.2-.8-.4-1.3-.5-.4 0-.9-.1-1.4-.1zM220.8 491.3l-.4-1.3h-.1c-.4.6-.9.9-1.3 1.1-.4.2-1 .3-1.7.3-.9 0-1.6-.2-2.1-.7s-.8-1.2-.8-2.1.4-1.7 1.1-2.1c.7-.5 1.8-.7 3.2-.8h1.6v-.5c0-.6-.1-1-.4-1.3-.3-.3-.7-.4-1.3-.4-.5 0-.9.1-1.4.2-.4.1-.8.3-1.2.5l-.6-1.4c.5-.3 1-.5 1.6-.6s1.2-.2 1.7-.2c1.2 0 2 .3 2.6.8s.9 1.3.9 2.4v6.2h-1.4v-.1zm-2.9-1.3c.7 0 1.3-.2 1.7-.6s.6-1 .6-1.7v-.8H219c-.9 0-1.6.2-2 .5s-.6.7-.6 1.3c0 .4.1.7.4 1 .3.2.6.3 1.1.3zM229.9 491.5c-1.2 0-2.1-.4-2.7-1.3h-.1c.1.8.1 1.2.1 1.4v3.8h-2v-13.3h1.6c0 .2.1.6.3 1.2h.1c.6-.9 1.5-1.4 2.7-1.4 1.1 0 2 .4 2.7 1.2.6.8 1 2 1 3.5s-.3 2.7-1 3.5c-.6.9-1.5 1.4-2.7 1.4zm-.4-8c-.8 0-1.3.2-1.7.7s-.5 1.2-.5 2.2v.3c0 1.1.2 1.9.5 2.4s.9.8 1.7.8c.7 0 1.2-.3 1.6-.8s.5-1.3.5-2.4c0-1-.2-1.8-.5-2.3-.4-.6-.9-.9-1.6-.9zM239.6 489.9c.5 0 1-.1 1.4-.2v1.5c-.2.1-.5.2-.8.2-.3.1-.7.1-1.1.1-1.8 0-2.8-1-2.8-2.9v-4.9H235v-.9l1.3-.7.7-1.9h1.2v2h2.6v1.5h-2.6v4.9c0 .5.1.8.4 1 .3.2.7.3 1 .3zM249.7 491.3l-.3-1.2h-.1c-.3.4-.7.8-1.2 1s-1.1.4-1.7.4c-1.1 0-1.9-.3-2.5-.8s-.8-1.4-.8-2.5v-6h2v5.7c0 .7.1 1.2.4 1.6.3.4.7.5 1.4.5.8 0 1.4-.2 1.8-.7.4-.5.6-1.3.6-2.5v-4.6h2v9.2h-1.6v-.1zM259 482c.4 0 .7 0 1 .1l-.2 1.8c-.3-.1-.6-.1-.9-.1-.8 0-1.4.3-1.9.8s-.7 1.2-.7 2v4.8h-2v-9.2h1.5l.3 1.6h.1c.3-.5.7-1 1.2-1.3.5-.4 1.1-.5 1.6-.5zM266 491.5c-1.4 0-2.5-.4-3.3-1.2-.8-.8-1.2-2-1.2-3.4 0-1.5.4-2.7 1.1-3.5.7-.9 1.8-1.3 3.1-1.3a4 4 0 012.9 1.1c.7.7 1.1 1.7 1.1 3v1.1h-6.1c0 .9.3 1.6.7 2.1s1.1.7 1.9.7c.5 0 1-.1 1.5-.2s1-.3 1.5-.5v1.6c-.5.2-1 .4-1.4.5-.6-.1-1.1 0-1.8 0zm-.3-8.1c-.6 0-1.1.2-1.5.6s-.6 1-.7 1.7h4.2c0-.8-.2-1.3-.5-1.7-.4-.4-.9-.6-1.5-.6zM342.8 147.9v4.8h-2v-12.1h3.4c1.6 0 2.7.3 3.5.9s1.1 1.5 1.1 2.7c0 1.5-.8 2.6-2.4 3.2l3.4 5.4h-2.3l-2.9-4.8-1.8-.1zm0-1.7h1.4c.9 0 1.6-.2 2-.5s.6-.9.6-1.5c0-.7-.2-1.2-.7-1.5s-1.1-.4-2-.4h-1.3v3.9zM355.8 152.9c-1.4 0-2.5-.4-3.3-1.2s-1.2-2-1.2-3.4c0-1.5.4-2.7 1.1-3.5s1.8-1.3 3.1-1.3c1.2 0 2.2.4 2.9 1.1s1.1 1.7 1.1 3v1.1h-6.1c0 .9.3 1.6.7 2.1.5.5 1.1.7 1.9.7.5 0 1-.1 1.5-.2s1-.3 1.5-.5v1.6c-.5.2-1 .4-1.4.5s-1.2 0-1.8 0zm-.4-8c-.6 0-1.1.2-1.5.6-.4.4-.6 1-.7 1.7h4.2c0-.8-.2-1.3-.5-1.7-.4-.4-.9-.6-1.5-.6zM368.1 150.1c0 .9-.3 1.6-1 2.1s-1.6.7-2.8.7c-1.2 0-2.2-.2-2.9-.6v-1.7c1.1.5 2.1.7 3 .7 1.2 0 1.8-.4 1.8-1.1 0-.2-.1-.4-.2-.6s-.4-.3-.7-.5-.7-.4-1.3-.6c-1.1-.4-1.8-.8-2.1-1.2-.4-.4-.6-.9-.6-1.6 0-.8.3-1.4 1-1.8.6-.4 1.5-.7 2.6-.7s2.1.2 3.1.7l-.6 1.5c-1-.4-1.8-.6-2.5-.6-1 0-1.5.3-1.5.9 0 .3.1.5.4.7s.9.5 1.8.8c.8.3 1.3.6 1.7.8s.6.5.8.8c-.1.5 0 .9 0 1.3zM375.2 152.9c-1.2 0-2.1-.4-2.7-1.3h-.1c.1.8.1 1.2.1 1.4v3.8h-2v-13.3h1.6c0 .2.1.6.3 1.2h.1c.6-.9 1.5-1.4 2.7-1.4 1.1 0 2 .4 2.7 1.2.6.8 1 2 1 3.5s-.3 2.7-1 3.5c-.7 1-1.6 1.4-2.7 1.4zm-.5-7.9c-.8 0-1.3.2-1.7.7-.4.5-.5 1.2-.5 2.2v.3c0 1.1.2 1.9.5 2.4.4.5.9.8 1.7.8.7 0 1.2-.3 1.6-.8s.5-1.3.5-2.4c0-1-.2-1.8-.5-2.3-.4-.7-.9-.9-1.6-.9zM389.6 148.1c0 1.5-.4 2.7-1.2 3.5s-1.8 1.3-3.2 1.3c-.9 0-1.6-.2-2.3-.6s-1.2-.9-1.5-1.7-.5-1.6-.5-2.5c0-1.5.4-2.7 1.1-3.5s1.8-1.3 3.2-1.3c1.3 0 2.4.4 3.2 1.3.8.9 1.2 2.1 1.2 3.5zm-6.7 0c0 2.1.8 3.2 2.3 3.2s2.3-1.1 2.3-3.2-.8-3.1-2.3-3.1c-.8 0-1.4.3-1.8.8-.3.5-.5 1.3-.5 2.3zM400.3 152.7h-2v-5.6c0-.7-.1-1.2-.4-1.6-.3-.3-.7-.5-1.4-.5-.8 0-1.4.2-1.8.7s-.6 1.3-.6 2.4v4.6h-2v-9.2h1.5l.3 1.2h.1c.3-.4.7-.8 1.2-1s1.1-.4 1.7-.4c2.2 0 3.3 1.1 3.3 3.4l.1 6zM409.5 150.1c0 .9-.3 1.6-1 2.1s-1.6.7-2.8.7c-1.2 0-2.2-.2-2.9-.6v-1.7c1.1.5 2.1.7 3 .7 1.2 0 1.8-.4 1.8-1.1 0-.2-.1-.4-.2-.6s-.4-.3-.7-.5-.7-.4-1.3-.6c-1.1-.4-1.8-.8-2.1-1.2-.4-.4-.6-.9-.6-1.6 0-.8.3-1.4 1-1.8.6-.4 1.5-.7 2.6-.7s2.1.2 3.1.7l-.6 1.5c-1-.4-1.8-.6-2.5-.6-1 0-1.5.3-1.5.9 0 .3.1.5.4.7s.9.5 1.8.8c.8.3 1.3.6 1.7.8s.6.5.8.8c-.1.5 0 .9 0 1.3zM411.8 141.1c0-.3.1-.6.3-.8.2-.2.5-.3.8-.3s.6.1.8.3c.2.2.3.5.3.8s-.1.6-.3.8c-.2.2-.5.3-.8.3-.4 0-.6-.1-.8-.3-.2-.2-.3-.5-.3-.8zm2.1 11.6h-2v-9.2h2v9.2zM419.1 152.7l-3.5-9.2h2.1l1.9 5.3c.3.9.5 1.6.6 2.2h.1c0-.4.2-1.1.6-2.2l1.9-5.3h2.1l-3.5 9.2h-2.3z" class="st41"/><path d="M430.4 152.9c-1.4 0-2.5-.4-3.3-1.2s-1.2-2-1.2-3.4c0-1.5.4-2.7 1.1-3.5s1.8-1.3 3.1-1.3c1.2 0 2.2.4 2.9 1.1s1.1 1.7 1.1 3v1.1H428c0 .9.3 1.6.7 2.1.5.5 1.1.7 1.9.7.5 0 1-.1 1.5-.2s1-.3 1.5-.5v1.6c-.5.2-1 .4-1.4.5s-1.1 0-1.8 0zm-.3-8c-.6 0-1.1.2-1.5.6-.4.4-.6 1-.7 1.7h4.2c0-.8-.2-1.3-.5-1.7-.4-.4-.9-.6-1.5-.6z" class="st41"/><g><path d="M362.2 491.3h-6.9v-12.1h6.9v1.7h-4.9v3.3h4.6v1.7h-4.6v3.8h4.9v1.6zM373 491.3h-2v-5.6c0-.7-.1-1.2-.4-1.6-.3-.3-.7-.5-1.4-.5-.8 0-1.4.2-1.8.7s-.6 1.3-.6 2.4v4.6h-2v-9.2h1.5l.3 1.2h.1c.3-.4.7-.8 1.2-1s1.1-.4 1.7-.4c2.2 0 3.3 1.1 3.3 3.4l.1 6zM383.8 482.1v1.1l-1.6.3c.1.2.3.4.4.7s.1.6.1.9c0 .9-.3 1.7-1 2.2s-1.6.8-2.7.8c-.3 0-.6 0-.8-.1-.4.3-.6.6-.6.9 0 .2.1.4.3.5.2.1.6.2 1.1.2h1.6c1 0 1.8.2 2.3.6s.8 1.1.8 1.9c0 1-.4 1.8-1.3 2.4s-2.1.8-3.7.8c-1.3 0-2.2-.2-2.9-.7s-1-1.1-1-1.9c0-.6.2-1 .5-1.4.4-.4.9-.7 1.5-.8-.3-.1-.5-.3-.6-.5-.2-.2-.3-.5-.3-.8s.1-.6.3-.9c.2-.2.5-.5.9-.7-.5-.2-.9-.5-1.2-1-.3-.5-.4-1-.4-1.6 0-1 .3-1.8.9-2.3s1.5-.8 2.7-.8c.3 0 .5 0 .8.1.3 0 .5.1.6.1h3.3zm-7.2 10.6c0 .4.2.7.6 1 .4.2.9.3 1.6.3 1.1 0 1.9-.2 2.4-.5s.8-.7.8-1.2c0-.4-.1-.7-.4-.9-.3-.2-.8-.3-1.6-.3h-1.5c-.6 0-1 .1-1.3.4-.4.4-.6.8-.6 1.2zm.9-7.6c0 .6.1 1 .4 1.3s.7.5 1.3.5c1.1 0 1.7-.6 1.7-1.8 0-.6-.1-1.1-.4-1.4s-.7-.5-1.3-.5c-.6 0-1 .2-1.3.5-.3.3-.4.8-.4 1.4zM391.6 491.3l-.4-1.3h-.1c-.4.6-.9.9-1.3 1.1s-1 .3-1.7.3c-.9 0-1.6-.2-2.1-.7s-.8-1.2-.8-2.1.4-1.7 1.1-2.1c.7-.5 1.8-.7 3.2-.8h1.6v-.5c0-.6-.1-1-.4-1.3s-.7-.4-1.3-.4c-.5 0-.9.1-1.4.2-.4.1-.8.3-1.2.5l-.6-1.4c.5-.3 1-.5 1.6-.6s1.2-.2 1.7-.2c1.2 0 2 .3 2.6.8s.9 1.3.9 2.4v6.2h-1.4v-.1zm-2.9-1.3c.7 0 1.3-.2 1.7-.6.4-.4.6-1 .6-1.7v-.8h-1.2c-.9 0-1.6.2-2 .5s-.6.7-.6 1.3c0 .4.1.7.4 1 .3.2.6.3 1.1.3zM403.8 482.1v1.1l-1.6.3c.1.2.3.4.4.7s.1.6.1.9c0 .9-.3 1.7-1 2.2s-1.6.8-2.7.8c-.3 0-.6 0-.8-.1-.4.3-.6.6-.6.9 0 .2.1.4.3.5.2.1.6.2 1.1.2h1.6c1 0 1.8.2 2.3.6s.8 1.1.8 1.9c0 1-.4 1.8-1.3 2.4s-2.1.8-3.7.8c-1.3 0-2.2-.2-2.9-.7s-1-1.1-1-1.9c0-.6.2-1 .5-1.4.4-.4.9-.7 1.5-.8-.3-.1-.5-.3-.6-.5-.2-.2-.3-.5-.3-.8s.1-.6.3-.9c.2-.2.5-.5.9-.7-.5-.2-.9-.5-1.2-1-.3-.5-.4-1-.4-1.6 0-1 .3-1.8.9-2.3s1.5-.8 2.7-.8c.3 0 .5 0 .8.1.3 0 .5.1.6.1h3.3zm-7.2 10.6c0 .4.2.7.6 1 .4.2.9.3 1.6.3 1.1 0 1.9-.2 2.4-.5s.8-.7.8-1.2c0-.4-.1-.7-.4-.9-.3-.2-.8-.3-1.6-.3h-1.5c-.6 0-1 .1-1.3.4-.4.4-.6.8-.6 1.2zm.9-7.6c0 .6.1 1 .4 1.3s.7.5 1.3.5c1.1 0 1.7-.6 1.7-1.8 0-.6-.1-1.1-.4-1.4s-.7-.5-1.3-.5c-.6 0-1 .2-1.3.5-.3.3-.4.8-.4 1.4zM409.9 491.5c-1.4 0-2.5-.4-3.3-1.2-.8-.8-1.2-2-1.2-3.4 0-1.5.4-2.7 1.1-3.5.7-.9 1.8-1.3 3.1-1.3a4 4 0 012.9 1.1c.7.7 1.1 1.7 1.1 3v1.1h-6.1c0 .9.3 1.6.7 2.1s1.1.7 1.9.7c.5 0 1-.1 1.5-.2s1-.3 1.5-.5v1.6c-.5.2-1 .4-1.4.5-.6-.1-1.2 0-1.8 0zm-.4-8.1c-.6 0-1.1.2-1.5.6s-.6 1-.7 1.7h4.2c0-.8-.2-1.3-.5-1.7-.4-.4-.9-.6-1.5-.6z" class="st41"/></g><g><path d="M506 144.3c0 1.3-.4 2.2-1.2 2.9s-2 1-3.5 1H500v4.5h-2v-12.1h3.5c1.5 0 2.7.3 3.4.9.7.6 1.1 1.6 1.1 2.8zm-6.1 2.2h1.1c1 0 1.8-.2 2.2-.5s.7-.9.7-1.7c0-.7-.2-1.2-.6-1.6s-1.1-.5-2-.5h-1.4v4.3zM513.2 143.4c.4 0 .7 0 1 .1l-.2 1.8c-.3-.1-.6-.1-.9-.1-.8 0-1.4.3-1.9.8s-.7 1.2-.7 2v4.8h-2v-9.2h1.5l.3 1.6h.1c.3-.5.7-1 1.2-1.3.5-.4 1-.5 1.6-.5zM524.4 148.1c0 1.5-.4 2.7-1.2 3.5s-1.8 1.3-3.2 1.3c-.9 0-1.6-.2-2.3-.6s-1.2-.9-1.5-1.7-.5-1.6-.5-2.5c0-1.5.4-2.7 1.1-3.5s1.8-1.3 3.2-1.3c1.3 0 2.4.4 3.2 1.3.8.9 1.2 2.1 1.2 3.5zm-6.7 0c0 2.1.8 3.2 2.3 3.2s2.3-1.1 2.3-3.2-.8-3.1-2.3-3.1c-.8 0-1.4.3-1.8.8-.3.5-.5 1.3-.5 2.3zM533.1 150.1c0 .9-.3 1.6-1 2.1s-1.6.7-2.8.7-2.2-.2-2.9-.6v-1.7c1.1.5 2.1.7 3 .7 1.2 0 1.8-.4 1.8-1.1 0-.2-.1-.4-.2-.6s-.4-.3-.7-.5-.7-.4-1.3-.6c-1.1-.4-1.8-.8-2.1-1.2-.4-.4-.6-.9-.6-1.6 0-.8.3-1.4 1-1.8.6-.4 1.5-.7 2.6-.7s2.1.2 3.1.7l-.6 1.5c-1-.4-1.8-.6-2.5-.6-1 0-1.5.3-1.5.9 0 .3.1.5.4.7.3.2.9.5 1.8.8.8.3 1.3.6 1.7.8s.6.5.8.8c-.1.5 0 .9 0 1.3zM540.2 152.9c-1.2 0-2.1-.4-2.7-1.3h-.1c.1.8.1 1.2.1 1.4v3.8h-2v-13.3h1.6c0 .2.1.6.3 1.2h.1c.6-.9 1.5-1.4 2.7-1.4 1.1 0 2 .4 2.7 1.2.6.8 1 2 1 3.5s-.3 2.7-1 3.5c-.7 1-1.5 1.4-2.7 1.4zm-.5-7.9c-.8 0-1.3.2-1.7.7s-.5 1.2-.5 2.2v.3c0 1.1.2 1.9.5 2.4.4.5.9.8 1.7.8.7 0 1.2-.3 1.6-.8s.5-1.3.5-2.4c0-1-.2-1.8-.5-2.3-.3-.7-.9-.9-1.6-.9zM550.5 152.9c-1.4 0-2.5-.4-3.3-1.2s-1.2-2-1.2-3.4c0-1.5.4-2.7 1.1-3.5s1.8-1.3 3.1-1.3c1.2 0 2.2.4 2.9 1.1s1.1 1.7 1.1 3v1.1h-6.1c0 .9.3 1.6.7 2.1.5.5 1.1.7 1.9.7.5 0 1-.1 1.5-.2s1-.3 1.5-.5v1.6c-.5.2-1 .4-1.4.5s-1.2 0-1.8 0zm-.4-8c-.6 0-1.1.2-1.5.6-.4.4-.6 1-.7 1.7h4.2c0-.8-.2-1.3-.5-1.7-.4-.4-.8-.6-1.5-.6zM560.3 152.9c-1.4 0-2.4-.4-3.2-1.2-.7-.8-1.1-2-1.1-3.5s.4-2.7 1.1-3.6c.8-.8 1.8-1.2 3.3-1.2 1 0 1.8.2 2.6.5l-.6 1.6c-.8-.3-1.5-.5-2-.5-1.6 0-2.4 1.1-2.4 3.2 0 1 .2 1.8.6 2.3.4.5 1 .8 1.7.8.9 0 1.7-.2 2.5-.6v1.7c-.3.2-.7.4-1.1.4-.3 0-.8.1-1.4.1zM568.8 151.3c.5 0 1-.1 1.4-.2v1.5c-.2.1-.5.2-.8.2-.3.1-.7.1-1.1.1-1.8 0-2.8-1-2.8-2.9v-5h-1.3v-.9l1.3-.7.7-1.9h1.2v2h2.6v1.5h-2.6v4.9c0 .5.1.8.4 1 .3.3.6.4 1 .4z" class="st41"/></g><path fill="#9b59b6" d="M1232.7 282.7l-13.8-34.6-13.8-34.7-13.8-34.6-.1-.3-13.8-34.7-13.8-34.6-3.1-7.8H583.5l13.8 34.7 13.8 34.6 13.8 34.7 13.8 34.6.1.3 13.8 34.7 13.8 34.6 3.1 7.8-3.1 7.8-13.8 34.6-13.8 34.7-.1.3-13.8 34.6-13.8 34.7-13.8 34.6-13.8 34.7H1160.5l3.1-7.8 13.8-34.6 13.8-34.7.1-.3 13.8-34.6 13.8-34.7 13.8-34.6 13.8-34.7z"/><g><path d="M1020.5 533.4l-10.6.1 85.2-216.1-85.2-216.2 10.6.2 85.4 216z" class="st41"/></g><g><path d="M873.5 533.4l-10.6.1 85.2-216.1-85.2-216.2 10.6.2 85.4 216z" class="st41"/></g><g><path d="M725.5 533.4l-10.6.1 85.2-216.1-85.2-216.2 10.6.2 85.4 216z" class="st41"/></g><g><path d="M589.5 533.4l-10.6.1 85.2-216.1-85.2-216.2 10.6.2 85.4 216z" class="st41"/></g><g><path d="M505.3 480.7c-1.1 0-2 .4-2.7 1.2s-1 1.9-1 3.3c0 1.5.3 2.6.9 3.4s1.5 1.1 2.7 1.1c.5 0 1-.1 1.5-.2s1-.2 1.5-.4v1.7c-1 .4-2 .5-3.2.5-1.8 0-3.1-.5-4.1-1.6s-1.4-2.6-1.4-4.6c0-1.3.2-2.4.7-3.3s1.1-1.7 2-2.2 1.9-.8 3.1-.8 2.4.3 3.4.8l-.7 1.7c-.4-.2-.8-.4-1.3-.5-.4 0-.9-.1-1.4-.1zM519.2 486.7c0 1.5-.4 2.7-1.2 3.5s-1.8 1.3-3.2 1.3c-.9 0-1.6-.2-2.3-.6s-1.2-.9-1.5-1.7c-.4-.7-.5-1.6-.5-2.5 0-1.5.4-2.7 1.1-3.5.8-.8 1.8-1.3 3.2-1.3 1.3 0 2.4.4 3.2 1.3.8.9 1.2 2 1.2 3.5zm-6.7 0c0 2.1.8 3.2 2.3 3.2s2.3-1.1 2.3-3.2-.8-3.1-2.3-3.1c-.8 0-1.4.3-1.8.8-.3.5-.5 1.3-.5 2.3zM529.9 491.3h-2v-5.6c0-.7-.1-1.2-.4-1.6-.3-.3-.7-.5-1.4-.5-.8 0-1.4.2-1.8.7s-.6 1.3-.6 2.4v4.6h-2v-9.2h1.5l.3 1.2h.1c.3-.4.7-.8 1.2-1s1.1-.4 1.7-.4c2.2 0 3.3 1.1 3.3 3.4v6h.1zM535 491.3l-3.5-9.2h2.1l1.9 5.3c.3.9.5 1.6.6 2.2h.1c0-.4.2-1.1.6-2.2l1.9-5.3h2.1l-3.5 9.2H535zM546.4 491.5c-1.4 0-2.5-.4-3.3-1.2-.8-.8-1.2-2-1.2-3.4 0-1.5.4-2.7 1.1-3.5.7-.9 1.8-1.3 3.1-1.3 1.2 0 2.2.4 2.9 1.1s1.1 1.7 1.1 3v1.1H544c0 .9.3 1.6.7 2.1s1.1.7 1.9.7c.5 0 1-.1 1.5-.2s1-.3 1.5-.5v1.6c-.5.2-1 .4-1.4.5-.7-.1-1.2 0-1.8 0zm-.4-8.1c-.6 0-1.1.2-1.5.6s-.6 1-.7 1.7h4.2c0-.8-.2-1.3-.5-1.7-.4-.4-.9-.6-1.5-.6zM557.1 482c.4 0 .7 0 1 .1l-.2 1.8c-.3-.1-.6-.1-.9-.1-.8 0-1.4.3-1.9.8s-.7 1.2-.7 2v4.8h-2v-9.2h1.5l.3 1.6h.1c.3-.5.7-1 1.2-1.3.6-.4 1.1-.5 1.6-.5zM563.6 489.9c.5 0 1-.1 1.4-.2v1.5c-.2.1-.5.2-.8.2-.3.1-.7.1-1.1.1-1.8 0-2.8-1-2.8-2.9v-4.9H559v-.9l1.3-.7.7-1.9h1.2v2h2.6v1.5h-2.6v4.9c0 .5.1.8.4 1 .3.2.6.3 1 .3z" class="st41"/></g><g><path d="M650 485.1c0 2-.6 3.5-1.7 4.6-1.1 1.1-2.7 1.6-4.8 1.6h-3.4v-12.1h3.8c1.9 0 3.4.5 4.5 1.6s1.6 2.4 1.6 4.3zm-2.1.1c0-2.9-1.4-4.4-4.1-4.4h-1.7v8.8h1.4c3 0 4.4-1.5 4.4-4.4zM656.8 491.5c-1.4 0-2.5-.4-3.3-1.2-.8-.8-1.2-2-1.2-3.4 0-1.5.4-2.7 1.1-3.5.7-.9 1.8-1.3 3.1-1.3 1.2 0 2.2.4 2.9 1.1s1.1 1.7 1.1 3v1.1h-6.1c0 .9.3 1.6.7 2.1s1.1.7 1.9.7c.5 0 1-.1 1.5-.2s1-.3 1.5-.5v1.6c-.5.2-1 .4-1.4.5-.7-.1-1.2 0-1.8 0zm-.4-8.1c-.6 0-1.1.2-1.5.6s-.6 1-.7 1.7h4.2c0-.8-.2-1.3-.5-1.7-.4-.4-.9-.6-1.5-.6zM665 491.3l-3.5-9.2h2.1l1.9 5.3c.3.9.5 1.6.6 2.2h.1c0-.4.2-1.1.6-2.2l1.9-5.3h2.1l-3.5 9.2H665zM676.3 491.5c-1.4 0-2.5-.4-3.3-1.2-.8-.8-1.2-2-1.2-3.4 0-1.5.4-2.7 1.1-3.5.7-.9 1.8-1.3 3.1-1.3 1.2 0 2.2.4 2.9 1.1s1.1 1.7 1.1 3v1.1h-6.1c0 .9.3 1.6.7 2.1s1.1.7 1.9.7c.5 0 1-.1 1.5-.2s1-.3 1.5-.5v1.6c-.5.2-1 .4-1.4.5-.6-.1-1.1 0-1.8 0zm-.3-8.1c-.6 0-1.1.2-1.5.6s-.6 1-.7 1.7h4.2c0-.8-.2-1.3-.5-1.7-.4-.4-.9-.6-1.5-.6zM684.4 491.3h-2v-12.9h2v12.9zM695.7 486.7c0 1.5-.4 2.7-1.2 3.5s-1.8 1.3-3.2 1.3c-.9 0-1.6-.2-2.3-.6s-1.2-.9-1.5-1.7c-.4-.7-.5-1.6-.5-2.5 0-1.5.4-2.7 1.1-3.5.8-.8 1.8-1.3 3.2-1.3 1.3 0 2.4.4 3.2 1.3.8.9 1.2 2 1.2 3.5zm-6.7 0c0 2.1.8 3.2 2.3 3.2s2.3-1.1 2.3-3.2-.8-3.1-2.3-3.1c-.8 0-1.4.3-1.8.8-.3.5-.5 1.3-.5 2.3zM702.9 491.5c-1.2 0-2.1-.4-2.7-1.3h-.1c.1.8.1 1.2.1 1.4v3.8h-2v-13.3h1.6c0 .2.1.6.3 1.2h.1c.6-.9 1.5-1.4 2.7-1.4 1.1 0 2 .4 2.7 1.2.6.8 1 2 1 3.5s-.3 2.7-1 3.5-1.5 1.4-2.7 1.4zm-.5-8c-.8 0-1.3.2-1.7.7s-.5 1.2-.5 2.2v.3c0 1.1.2 1.9.5 2.4.4.5.9.8 1.7.8.7 0 1.2-.3 1.6-.8s.5-1.3.5-2.4c0-1-.2-1.8-.5-2.3s-.8-.9-1.6-.9z" class="st41"/></g><g><path d="M789.9 147.5v4.8h-2v-12.1h3.4c1.6 0 2.7.3 3.5.9.8.6 1.1 1.5 1.1 2.7 0 1.5-.8 2.6-2.4 3.2l3.4 5.4h-2.3l-2.9-4.8-1.8-.1zm0-1.7h1.4c.9 0 1.6-.2 2-.5s.6-.9.6-1.5c0-.7-.2-1.2-.7-1.5s-1.1-.4-2-.4h-1.3v3.9zM803 152.5c-1.4 0-2.5-.4-3.3-1.2s-1.2-2-1.2-3.4c0-1.5.4-2.7 1.1-3.5s1.8-1.3 3.1-1.3a4 4 0 012.9 1.1c.7.7 1.1 1.7 1.1 3v1.1h-6.1c0 .9.3 1.6.7 2.1.5.5 1.1.7 1.9.7.5 0 1-.1 1.5-.2s1-.3 1.5-.5v1.6c-.5.2-1 .4-1.4.5-.7-.1-1.2 0-1.8 0zm-.4-8.1c-.6 0-1.1.2-1.5.6s-.6 1-.7 1.7h4.2c0-.8-.2-1.3-.5-1.7-.4-.4-.9-.6-1.5-.6zM813.7 152.5c-1.2 0-2.1-.4-2.7-1.3h-.1c.1.8.1 1.2.1 1.4v3.8h-2v-13.3h1.6c0 .2.1.6.3 1.2h.1c.6-.9 1.5-1.4 2.7-1.4 1.1 0 2 .4 2.7 1.2.6.8 1 2 1 3.5s-.3 2.7-1 3.5c-.6.9-1.5 1.4-2.7 1.4zm-.4-8c-.8 0-1.3.2-1.7.7s-.5 1.2-.5 2.2v.3c0 1.1.2 1.9.5 2.4.4.5.9.8 1.7.8.7 0 1.2-.3 1.6-.8s.5-1.3.5-2.4c0-1-.2-1.8-.5-2.3-.4-.6-.9-.9-1.6-.9zM824 152.5c-1.4 0-2.5-.4-3.3-1.2s-1.2-2-1.2-3.4c0-1.5.4-2.7 1.1-3.5.7-.9 1.8-1.3 3.1-1.3 1.2 0 2.2.4 2.9 1.1s1.1 1.7 1.1 3v1.1h-6.1c0 .9.3 1.6.7 2.1.5.5 1.1.7 1.9.7.5 0 1-.1 1.5-.2s1-.3 1.5-.5v1.6c-.5.2-1 .4-1.4.5s-1.1 0-1.8 0zm-.3-8.1c-.6 0-1.1.2-1.5.6-.4.4-.6 1-.7 1.7h4.2c0-.8-.2-1.3-.5-1.7-.4-.4-.9-.6-1.5-.6zM835.9 152.3l-.4-1.3h-.1c-.4.6-.9.9-1.3 1.1-.4.2-1 .3-1.7.3-.9 0-1.6-.2-2.1-.7s-.8-1.2-.8-2.1c0-.9.4-1.7 1.1-2.1.7-.5 1.8-.7 3.2-.8h1.6v-.5c0-.6-.1-1-.4-1.3-.3-.3-.7-.4-1.3-.4-.5 0-.9.1-1.4.2s-.8.3-1.2.5l-.6-1.4c.5-.3 1-.5 1.6-.6s1.2-.2 1.7-.2c1.2 0 2 .3 2.6.8s.9 1.3.9 2.4v6.2l-1.4-.1zM833 151c.7 0 1.3-.2 1.7-.6.4-.4.6-1 .6-1.7v-.8h-1.2c-.9 0-1.6.2-2 .5s-.6.7-.6 1.3c0 .4.1.7.4 1 .2.2.6.3 1.1.3zM843.8 150.9c.5 0 1-.1 1.4-.2v1.5c-.2.1-.5.2-.8.2-.3.1-.7.1-1.1.1-1.8 0-2.8-1-2.8-2.9v-4.9h-1.3v-.9l1.3-.7.7-1.9h1.2v2h2.6v1.5h-2.6v4.9c0 .5.1.8.4 1 .3.2.6.3 1 .3zM782.8 164.2c0 1.3-.4 2.2-1.2 2.9s-2 1-3.5 1h-1.3v4.5h-2v-12.1h3.5c1.5 0 2.7.3 3.4.9.7.7 1.1 1.6 1.1 2.8zm-6.1 2.3h1.1c1 0 1.8-.2 2.2-.5.5-.4.7-.9.7-1.7 0-.7-.2-1.2-.6-1.6s-1.1-.5-2-.5h-1.4v4.3zM791.8 172.7l-.3-1.2h-.1c-.3.4-.7.8-1.2 1s-1.1.4-1.7.4c-1.1 0-1.9-.3-2.5-.8-.5-.6-.8-1.4-.8-2.5v-6h2v5.7c0 .7.1 1.2.4 1.6.3.4.7.5 1.4.5.8 0 1.4-.2 1.8-.7.4-.5.6-1.3.6-2.5v-4.6h2v9.2l-1.6-.1zM801.1 163.4c.4 0 .7 0 1 .1l-.2 1.8c-.3-.1-.6-.1-.9-.1-.8 0-1.4.3-1.9.8s-.7 1.2-.7 2v4.8h-2v-9.2h1.5l.3 1.6h.1c.3-.5.7-1 1.2-1.3s1-.5 1.6-.5zM807.8 172.9c-1.4 0-2.4-.4-3.2-1.2-.7-.8-1.1-2-1.1-3.5s.4-2.7 1.1-3.6c.8-.8 1.8-1.2 3.3-1.2 1 0 1.8.2 2.6.5l-.6 1.6c-.8-.3-1.5-.5-2-.5-1.6 0-2.4 1.1-2.4 3.2 0 1 .2 1.8.6 2.3.4.5 1 .8 1.7.8.9 0 1.7-.2 2.5-.6v1.7c-.3.2-.7.4-1.1.4-.3 0-.8.1-1.4.1zM820.9 172.7h-2v-5.6c0-.7-.1-1.2-.4-1.6s-.7-.5-1.4-.5c-.8 0-1.4.2-1.8.7-.4.5-.6 1.3-.6 2.5v4.6h-2v-12.9h2v3.3c0 .5 0 1.1-.1 1.7h.1c.3-.4.6-.8 1.1-1s1-.4 1.7-.4c2.2 0 3.3 1.1 3.3 3.4v5.8h.1zM829.7 172.7l-.4-1.3h-.1c-.4.6-.9.9-1.3 1.1-.4.2-1 .3-1.7.3-.9 0-1.6-.2-2.1-.7s-.8-1.2-.8-2.1c0-.9.4-1.7 1.1-2.1s1.8-.7 3.2-.8h1.6v-.5c0-.6-.1-1-.4-1.3-.3-.3-.7-.4-1.3-.4-.5 0-.9.1-1.4.2s-.8.3-1.2.5l-.6-1.4c.5-.3 1-.5 1.6-.6s1.2-.2 1.7-.2c1.2 0 2 .3 2.6.8s.9 1.3.9 2.4v6.2l-1.4-.1zm-2.9-1.3c.7 0 1.3-.2 1.7-.6.4-.4.6-1 .6-1.7v-.8h-1.2c-.9 0-1.6.2-2 .5s-.6.7-.6 1.3c0 .4.1.7.4 1 .3.2.7.3 1.1.3zM840.4 170.1c0 .9-.3 1.6-1 2.1s-1.6.7-2.8.7-2.2-.2-2.9-.6v-1.7c1.1.5 2.1.7 3 .7 1.2 0 1.8-.4 1.8-1.1 0-.2-.1-.4-.2-.6s-.4-.3-.7-.5-.7-.4-1.3-.6c-1.1-.4-1.8-.8-2.1-1.2s-.6-.9-.6-1.6c0-.8.3-1.4 1-1.8.6-.4 1.5-.7 2.6-.7s2.1.2 3.1.7l-.6 1.5c-1-.4-1.8-.6-2.5-.6-1 0-1.5.3-1.5.9 0 .3.1.5.4.7.3.2.9.5 1.8.8.8.3 1.3.6 1.7.8s.6.5.8.8c-.1.5 0 .8 0 1.3zM846.8 172.9c-1.4 0-2.5-.4-3.3-1.2s-1.2-2-1.2-3.4c0-1.5.4-2.7 1.1-3.5.7-.9 1.8-1.3 3.1-1.3 1.2 0 2.2.4 2.9 1.1s1.1 1.7 1.1 3v1.1h-6.1c0 .9.3 1.6.7 2.1.5.5 1.1.7 1.9.7.5 0 1-.1 1.5-.2s1-.3 1.5-.5v1.6c-.5.2-1 .4-1.4.5s-1.1 0-1.8 0zm-.3-8.1c-.6 0-1.1.2-1.5.6-.4.4-.6 1-.7 1.7h4.2c0-.8-.2-1.3-.5-1.7-.4-.4-.9-.6-1.5-.6zM857.6 163.4c.4 0 .7 0 1 .1l-.2 1.8c-.3-.1-.6-.1-.9-.1-.8 0-1.4.3-1.9.8s-.7 1.2-.7 2v4.8h-2v-9.2h1.5l.3 1.6h.1c.3-.5.7-1 1.2-1.3s1-.5 1.6-.5z" class="st41"/></g><g><path d="M636.1 152.7h-2v-12.1h6.8v1.7H636v3.8h4.6v1.7H636v4.9h.1zM643.2 141.1c0-.3.1-.6.3-.8s.5-.3.8-.3.6.1.8.3.3.5.3.8-.1.6-.3.8-.5.3-.8.3c-.4 0-.6-.1-.8-.3-.2-.2-.3-.5-.3-.8zm2.1 11.6h-2v-9.2h2v9.2zM653 143.4c.4 0 .7 0 1 .1l-.2 1.8c-.3-.1-.6-.1-.9-.1-.8 0-1.4.3-1.9.8s-.7 1.2-.7 2v4.8h-2v-9.2h1.5l.3 1.6h.1c.3-.5.7-1 1.2-1.3.6-.4 1.1-.5 1.6-.5zM662.2 150.1c0 .9-.3 1.6-1 2.1s-1.6.7-2.8.7-2.2-.2-2.9-.6v-1.7c1.1.5 2.1.7 3 .7 1.2 0 1.8-.4 1.8-1.1 0-.2-.1-.4-.2-.6s-.4-.3-.7-.5-.7-.4-1.3-.6c-1.1-.4-1.8-.8-2.1-1.2-.4-.4-.6-.9-.6-1.6 0-.8.3-1.4 1-1.8.6-.4 1.5-.7 2.6-.7s2.1.2 3.1.7l-.6 1.5c-1-.4-1.8-.6-2.5-.6-1 0-1.5.3-1.5.9 0 .3.1.5.4.7.3.2.9.5 1.8.8.8.3 1.3.6 1.7.8s.6.5.8.8c-.1.5 0 .9 0 1.3zM668.1 151.3c.5 0 1-.1 1.4-.2v1.5c-.2.1-.5.2-.8.2-.3.1-.7.1-1.1.1-1.8 0-2.8-1-2.8-2.9v-5h-1.3v-.9l1.3-.7.7-1.9h1.2v2h2.6v1.5h-2.6v4.9c0 .5.1.8.4 1 .3.3.6.4 1 .4zM680.8 152.7h-2v-10.4h-3.6v-1.7h9.1v1.7h-3.6l.1 10.4zM686.3 141.1c0-.3.1-.6.3-.8s.5-.3.8-.3.6.1.8.3.3.5.3.8-.1.6-.3.8-.5.3-.8.3c-.4 0-.6-.1-.8-.3-.2-.2-.3-.5-.3-.8zm2.1 11.6h-2v-9.2h2v9.2zM699.2 152.7h-2V147c0-.7-.1-1.2-.4-1.6-.3-.3-.7-.5-1.2-.5-.8 0-1.3.2-1.7.7s-.5 1.3-.5 2.4v4.6h-2v-9.2h1.5l.3 1.2h.1c.3-.4.6-.8 1.1-1s1-.4 1.6-.4c1.4 0 2.3.5 2.8 1.4h.1c.3-.5.7-.8 1.1-1.1s1.1-.4 1.7-.4c1.1 0 1.9.3 2.4.8.5.6.8 1.4.8 2.5v6h-2v-5.7c0-.7-.1-1.2-.4-1.6-.3-.3-.7-.5-1.2-.5-.8 0-1.3.2-1.7.7s-.5 1.2-.5 2.2v5.2h.1zM712.1 152.9c-1.4 0-2.5-.4-3.3-1.2s-1.2-2-1.2-3.4c0-1.5.4-2.7 1.1-3.5s1.8-1.3 3.1-1.3a4 4 0 012.9 1.1c.7.7 1.1 1.7 1.1 3v1.1h-6.1c0 .9.3 1.6.7 2.1.5.5 1.1.7 1.9.7.5 0 1-.1 1.5-.2s1-.3 1.5-.5v1.6c-.5.2-1 .4-1.4.5-.6-.1-1.2 0-1.8 0zm-.4-8c-.6 0-1.1.2-1.5.6s-.6 1-.7 1.7h4.2c0-.8-.2-1.3-.5-1.7-.4-.4-.8-.6-1.5-.6zM639.9 162.5c-1.1 0-2 .4-2.7 1.2s-1 1.9-1 3.3c0 1.5.3 2.6.9 3.4.6.8 1.5 1.1 2.7 1.1.5 0 1-.1 1.5-.2s1-.2 1.5-.4v1.7c-1 .4-2 .5-3.2.5-1.8 0-3.1-.5-4.1-1.6s-1.4-2.6-1.4-4.6c0-1.3.2-2.4.7-3.3.5-.9 1.1-1.7 2-2.2s1.9-.8 3.1-.8c1.2 0 2.4.3 3.4.8l-.7 1.7c-.4-.2-.8-.4-1.3-.5-.4 0-.9-.1-1.4-.1zM652.2 173.1l-.3-1.2h-.1c-.3.4-.7.8-1.2 1s-1.1.4-1.7.4c-1.1 0-1.9-.3-2.5-.8s-.8-1.4-.8-2.5v-6h2v5.7c0 .7.1 1.2.4 1.6.3.4.7.5 1.4.5.8 0 1.4-.2 1.8-.7.4-.5.6-1.3.6-2.5V164h2v9.2l-1.6-.1zM663 170.5c0 .9-.3 1.6-1 2.1s-1.6.7-2.8.7-2.2-.2-2.9-.6V171c1.1.5 2.1.7 3 .7 1.2 0 1.8-.4 1.8-1.1 0-.2-.1-.4-.2-.6s-.4-.3-.7-.5-.7-.4-1.3-.6c-1.1-.4-1.8-.8-2.1-1.2-.4-.4-.6-.9-.6-1.6 0-.8.3-1.4 1-1.8.6-.4 1.5-.7 2.6-.7s2.1.2 3.1.7l-.6 1.5c-1-.4-1.8-.6-2.5-.6-1 0-1.5.3-1.5.9 0 .3.1.5.4.7.3.2.9.5 1.8.8.8.3 1.3.6 1.7.8s.6.5.8.8c-.1.5 0 .9 0 1.3zM668.8 171.7c.5 0 1-.1 1.4-.2v1.5c-.2.1-.5.2-.8.2-.3.1-.7.1-1.1.1-1.8 0-2.8-1-2.8-2.9v-4.9h-1.3v-.9l1.3-.7.7-1.9h1.2v2h2.6v1.5h-2.6v4.9c0 .5.1.8.4 1 .4.2.7.3 1 .3zM680.6 168.5c0 1.5-.4 2.7-1.2 3.5s-1.8 1.3-3.2 1.3c-.9 0-1.6-.2-2.3-.6-.7-.4-1.2-.9-1.5-1.7s-.5-1.6-.5-2.5c0-1.5.4-2.7 1.1-3.5s1.8-1.3 3.2-1.3c1.3 0 2.4.4 3.2 1.3.8.9 1.2 2.1 1.2 3.5zm-6.7 0c0 2.1.8 3.2 2.3 3.2s2.3-1.1 2.3-3.2-.8-3.1-2.3-3.1c-.8 0-1.4.3-1.8.8s-.5 1.3-.5 2.3zM690.9 173.1h-2v-5.7c0-.7-.1-1.2-.4-1.6-.3-.3-.7-.5-1.2-.5-.8 0-1.3.2-1.7.7s-.5 1.3-.5 2.4v4.6h-2v-9.2h1.5l.3 1.2h.1c.3-.4.6-.8 1.1-1s1-.4 1.6-.4c1.4 0 2.3.5 2.8 1.4h.1c.3-.5.7-.8 1.1-1.1.5-.3 1.1-.4 1.7-.4 1.1 0 1.9.3 2.4.8.5.6.8 1.4.8 2.5v6h-2v-5.7c0-.7-.1-1.2-.4-1.6-.3-.3-.7-.5-1.2-.5-.8 0-1.3.2-1.7.7s-.5 1.2-.5 2.2v5.2h.1zM703.8 173.3c-1.4 0-2.5-.4-3.3-1.2s-1.2-2-1.2-3.4c0-1.5.4-2.7 1.1-3.5.7-.9 1.8-1.3 3.1-1.3 1.2 0 2.2.4 2.9 1.1s1.1 1.7 1.1 3v1.1h-6.1c0 .9.3 1.6.7 2.1.5.5 1.1.7 1.9.7.5 0 1-.1 1.5-.2s1-.3 1.5-.5v1.6c-.5.2-1 .4-1.4.5s-1.2 0-1.8 0zm-.4-8c-.6 0-1.1.2-1.5.6-.4.4-.6 1-.7 1.7h4.2c0-.8-.2-1.3-.5-1.7-.4-.4-.9-.6-1.5-.6zM714.6 163.8c.4 0 .7 0 1 .1l-.2 1.8c-.3-.1-.6-.1-.9-.1-.8 0-1.4.3-1.9.8s-.7 1.2-.7 2v4.8h-2V164h1.5l.3 1.6h.1c.3-.5.7-1 1.2-1.3.5-.4 1-.5 1.6-.5z" class="st41"/></g><g><path d="M789.4 491.3l-3.5-10.1h-.1c.1 1.5.1 2.9.1 4.2v5.9h-1.8v-12.1h2.8l3.4 9.7 3.5-9.7h2.8v12.1h-1.9v-6c0-.6 0-1.4 0-2.4s.1-1.6.1-1.8h-.1l-3.6 10.1-1.7.1zM805.7 491.3l-.4-1.3h-.1c-.4.6-.9.9-1.3 1.1-.4.2-1 .3-1.7.3-.9 0-1.6-.2-2.1-.7s-.8-1.2-.8-2.1.4-1.7 1.1-2.1c.7-.5 1.8-.7 3.2-.8h1.6v-.5c0-.6-.1-1-.4-1.3-.3-.3-.7-.4-1.3-.4-.5 0-.9.1-1.4.2-.4.1-.8.3-1.2.5l-.6-1.4c.5-.3 1-.5 1.6-.6s1.2-.2 1.7-.2c1.2 0 2 .3 2.6.8s.9 1.3.9 2.4v6.2h-1.4v-.1zm-2.9-1.3c.7 0 1.3-.2 1.7-.6s.6-1 .6-1.7v-.8h-1.2c-.9 0-1.6.2-2 .5s-.6.7-.6 1.3c0 .4.1.7.4 1 .3.2.7.3 1.1.3zM813.6 489.9c.5 0 1-.1 1.4-.2v1.5c-.2.1-.5.2-.8.2-.3.1-.7.1-1.1.1-1.8 0-2.8-1-2.8-2.9v-4.9H809v-.9l1.3-.7.7-1.9h1.2v2h2.6v1.5h-2.6v4.9c0 .5.1.8.4 1 .3.2.6.3 1 .3zM823.7 491.3l-.3-1.2h-.1c-.3.4-.7.8-1.2 1s-1.1.4-1.7.4c-1.1 0-1.9-.3-2.5-.8-.5-.6-.8-1.4-.8-2.5v-6h2v5.7c0 .7.1 1.2.4 1.6.3.4.7.5 1.4.5.8 0 1.4-.2 1.8-.7.4-.5.6-1.3.6-2.5v-4.6h2v9.2h-1.6v-.1zM833 482c.4 0 .7 0 1 .1l-.2 1.8c-.3-.1-.6-.1-.9-.1-.8 0-1.4.3-1.9.8s-.7 1.2-.7 2v4.8h-2v-9.2h1.5l.3 1.6h.1c.3-.5.7-1 1.2-1.3.5-.4 1-.5 1.6-.5zM840 491.5c-1.4 0-2.5-.4-3.3-1.2-.8-.8-1.2-2-1.2-3.4 0-1.5.4-2.7 1.1-3.5.7-.9 1.8-1.3 3.1-1.3 1.2 0 2.2.4 2.9 1.1s1.1 1.7 1.1 3v1.1h-6.1c0 .9.3 1.6.7 2.1.5.5 1.1.7 1.9.7.5 0 1-.1 1.5-.2s1-.3 1.5-.5v1.6c-.5.2-1 .4-1.4.5-.6-.1-1.1 0-1.8 0zm-.3-8.1c-.6 0-1.1.2-1.5.6s-.6 1-.7 1.7h4.2c0-.8-.2-1.3-.5-1.7-.4-.4-.9-.6-1.5-.6z" class="st41"/></g><g><path d="M931.1 152.7v-12.1h2v12.1h-2zM944.5 152.7h-2v-5.6c0-.7-.1-1.2-.4-1.6s-.7-.5-1.4-.5c-.8 0-1.4.2-1.8.7s-.6 1.3-.6 2.4v4.6h-2v-9.2h1.5l.3 1.2h.1c.3-.4.7-.8 1.2-1s1.1-.4 1.7-.4c2.2 0 3.3 1.1 3.3 3.4v6h.1zM953.3 152.7l-.4-1.3h-.1c-.4.6-.9.9-1.3 1.1-.4.2-1 .3-1.7.3-.9 0-1.6-.2-2.1-.7s-.8-1.2-.8-2.1c0-.9.4-1.7 1.1-2.1s1.8-.7 3.2-.8h1.6v-.5c0-.6-.1-1-.4-1.3-.3-.3-.7-.4-1.3-.4-.5 0-.9.1-1.4.2s-.8.3-1.2.5l-.6-1.4c.5-.3 1-.5 1.6-.6s1.2-.2 1.7-.2c1.2 0 2 .3 2.6.8s.9 1.3.9 2.4v6.2l-1.4-.1zm-2.9-1.3c.7 0 1.3-.2 1.7-.6.4-.4.6-1 .6-1.7v-.8h-1.2c-.9 0-1.6.2-2 .5s-.6.7-.6 1.3c0 .4.1.7.4 1 .3.2.6.3 1.1.3zM961.5 152.9c-1.4 0-2.4-.4-3.2-1.2-.7-.8-1.1-2-1.1-3.5s.4-2.7 1.1-3.6c.8-.8 1.8-1.2 3.3-1.2 1 0 1.8.2 2.6.5l-.6 1.6c-.8-.3-1.5-.5-2-.5-1.6 0-2.4 1.1-2.4 3.2 0 1 .2 1.8.6 2.3.4.5 1 .8 1.7.8.9 0 1.7-.2 2.5-.6v1.7c-.3.2-.7.4-1.1.4-.4 0-.9.1-1.4.1zM970 151.3c.5 0 1-.1 1.4-.2v1.5c-.2.1-.5.2-.8.2-.3.1-.7.1-1.1.1-1.8 0-2.8-1-2.8-2.9v-5h-1.3v-.9l1.3-.7.7-1.9h1.2v2h2.6v1.5h-2.6v4.9c0 .5.1.8.4 1 .3.3.6.4 1 .4zM973.4 141.1c0-.3.1-.6.3-.8s.5-.3.8-.3.6.1.8.3.3.5.3.8-.1.6-.3.8-.5.3-.8.3c-.4 0-.6-.1-.8-.3-.2-.2-.3-.5-.3-.8zm2.1 11.6h-2v-9.2h2v9.2zM980.7 152.7l-3.5-9.2h2.1l1.9 5.3c.3.9.5 1.6.6 2.2h.1c.1-.4.2-1.1.6-2.2l1.9-5.3h2.1l-3.5 9.2h-2.3zM992.1 152.9c-1.4 0-2.5-.4-3.3-1.2s-1.2-2-1.2-3.4c0-1.5.4-2.7 1.1-3.5.7-.9 1.8-1.3 3.1-1.3 1.2 0 2.2.4 2.9 1.1s1.1 1.7 1.1 3v1.1h-6.1c0 .9.3 1.6.7 2.1.5.5 1.1.7 1.9.7.5 0 1-.1 1.5-.2s1-.3 1.5-.5v1.6c-.5.2-1 .4-1.4.5s-1.2 0-1.8 0zm-.4-8c-.6 0-1.1.2-1.5.6-.4.4-.6 1-.7 1.7h4.2c0-.8-.2-1.3-.5-1.7-.4-.4-.8-.6-1.5-.6zM928.4 162.5c-1.1 0-2 .4-2.7 1.2s-1 1.9-1 3.3c0 1.5.3 2.6.9 3.4.6.8 1.5 1.1 2.7 1.1.5 0 1-.1 1.5-.2s1-.2 1.5-.4v1.7c-1 .4-2 .5-3.2.5-1.8 0-3.1-.5-4.1-1.6s-1.4-2.6-1.4-4.6c0-1.3.2-2.4.7-3.3.5-.9 1.1-1.7 2-2.2s1.9-.8 3.1-.8c1.2 0 2.4.3 3.4.8l-.7 1.7c-.4-.2-.8-.4-1.3-.5-.4 0-.9-.1-1.4-.1zM940.7 173.1l-.3-1.2h-.1c-.3.4-.7.8-1.2 1s-1.1.4-1.7.4c-1.1 0-1.9-.3-2.5-.8s-.8-1.4-.8-2.5v-6h2v5.7c0 .7.1 1.2.4 1.6.3.4.7.5 1.4.5.8 0 1.4-.2 1.8-.7.4-.5.6-1.3.6-2.5V164h2v9.2l-1.6-.1zM951.5 170.5c0 .9-.3 1.6-1 2.1s-1.6.7-2.8.7-2.2-.2-2.9-.6V171c1.1.5 2.1.7 3 .7 1.2 0 1.8-.4 1.8-1.1 0-.2-.1-.4-.2-.6s-.4-.3-.7-.5-.7-.4-1.3-.6c-1.1-.4-1.8-.8-2.1-1.2-.4-.4-.6-.9-.6-1.6 0-.8.3-1.4 1-1.8.6-.4 1.5-.7 2.6-.7s2.1.2 3.1.7l-.6 1.5c-1-.4-1.8-.6-2.5-.6-1 0-1.5.3-1.5.9 0 .3.1.5.4.7.3.2.9.5 1.8.8.8.3 1.3.6 1.7.8.3.2.6.5.8.8-.1.5 0 .9 0 1.3zM957.3 171.7c.5 0 1-.1 1.4-.2v1.5c-.2.1-.5.2-.8.2-.3.1-.7.1-1.1.1-1.8 0-2.8-1-2.8-2.9v-4.9h-1.3v-.9l1.3-.7.7-1.9h1.2v2h2.6v1.5h-2.6v4.9c0 .5.1.8.4 1 .4.2.7.3 1 .3zM969.1 168.5c0 1.5-.4 2.7-1.2 3.5s-1.8 1.3-3.2 1.3c-.9 0-1.6-.2-2.3-.6-.7-.4-1.2-.9-1.5-1.7s-.5-1.6-.5-2.5c0-1.5.4-2.7 1.1-3.5s1.8-1.3 3.2-1.3c1.3 0 2.4.4 3.2 1.3.8.9 1.2 2.1 1.2 3.5zm-6.7 0c0 2.1.8 3.2 2.3 3.2s2.3-1.1 2.3-3.2-.8-3.1-2.3-3.1c-.8 0-1.4.3-1.8.8s-.5 1.3-.5 2.3zM979.4 173.1h-2v-5.7c0-.7-.1-1.2-.4-1.6-.3-.3-.7-.5-1.2-.5-.8 0-1.3.2-1.7.7s-.5 1.3-.5 2.4v4.6h-2v-9.2h1.5l.3 1.2h.1c.3-.4.6-.8 1.1-1s1-.4 1.6-.4c1.4 0 2.3.5 2.8 1.4h.1c.3-.5.7-.8 1.1-1.1.5-.3 1.1-.4 1.7-.4 1.1 0 1.9.3 2.4.8.5.6.8 1.4.8 2.5v6h-2v-5.7c0-.7-.1-1.2-.4-1.6-.3-.3-.7-.5-1.2-.5-.8 0-1.3.2-1.7.7s-.5 1.2-.5 2.2v5.2h.1zM992.3 173.3c-1.4 0-2.5-.4-3.3-1.2s-1.2-2-1.2-3.4c0-1.5.4-2.7 1.1-3.5.7-.9 1.8-1.3 3.1-1.3 1.2 0 2.2.4 2.9 1.1s1.1 1.7 1.1 3v1.1h-6.1c0 .9.3 1.6.7 2.1.5.5 1.1.7 1.9.7.5 0 1-.1 1.5-.2s1-.3 1.5-.5v1.6c-.5.2-1 .4-1.4.5s-1.2 0-1.8 0zm-.4-8c-.6 0-1.1.2-1.5.6-.4.4-.6 1-.7 1.7h4.2c0-.8-.2-1.3-.5-1.7-.4-.4-.9-.6-1.5-.6zM1003.1 163.8c.4 0 .7 0 1 .1l-.2 1.8c-.3-.1-.6-.1-.9-.1-.8 0-1.4.3-1.9.8s-.7 1.2-.7 2v4.8h-2V164h1.5l.3 1.6h.1c.3-.5.7-1 1.2-1.3.5-.4 1-.5 1.6-.5z" class="st41"/></g><g><path d="M920.2 486.5v4.8h-2v-12.1h3.4c1.6 0 2.7.3 3.5.9s1.1 1.5 1.1 2.7c0 1.5-.8 2.6-2.4 3.2l3.4 5.4H925l-2.9-4.8h-1.9v-.1zm0-1.7h1.4c.9 0 1.6-.2 2-.5s.6-.9.6-1.5c0-.7-.2-1.2-.7-1.5-.4-.3-1.1-.4-2-.4h-1.3v3.9zM933.2 491.5c-1.4 0-2.5-.4-3.3-1.2-.8-.8-1.2-2-1.2-3.4 0-1.5.4-2.7 1.1-3.5.7-.9 1.8-1.3 3.1-1.3 1.2 0 2.2.4 2.9 1.1s1.1 1.7 1.1 3v1.1h-6.1c0 .9.3 1.6.7 2.1.5.5 1.1.7 1.9.7.5 0 1-.1 1.5-.2s1-.3 1.5-.5v1.6c-.5.2-1 .4-1.4.5-.6-.1-1.2 0-1.8 0zm-.4-8.1c-.6 0-1.1.2-1.5.6s-.6 1-.7 1.7h4.2c0-.8-.2-1.3-.5-1.7-.4-.4-.9-.6-1.5-.6zM945.1 491.3l-.4-1.3h-.1c-.4.6-.9.9-1.3 1.1-.4.2-1 .3-1.7.3-.9 0-1.6-.2-2.1-.7s-.8-1.2-.8-2.1.4-1.7 1.1-2.1c.7-.5 1.8-.7 3.2-.8h1.6v-.5c0-.6-.1-1-.4-1.3-.3-.3-.7-.4-1.3-.4-.5 0-.9.1-1.4.2-.4.1-.8.3-1.2.5l-.6-1.4c.5-.3 1-.5 1.6-.6s1.2-.2 1.7-.2c1.2 0 2 .3 2.6.8s.9 1.3.9 2.4v6.2h-1.4v-.1zm-3-1.3c.7 0 1.3-.2 1.7-.6s.6-1 .6-1.7v-.8h-1.2c-.9 0-1.6.2-2 .5s-.6.7-.6 1.3c0 .4.1.7.4 1 .3.2.7.3 1.1.3zM953.2 491.5c-1.4 0-2.4-.4-3.2-1.2-.7-.8-1.1-2-1.1-3.5s.4-2.7 1.1-3.6 1.8-1.2 3.3-1.2c1 0 1.8.2 2.6.5l-.6 1.6c-.8-.3-1.5-.5-2-.5-1.6 0-2.4 1.1-2.4 3.2 0 1 .2 1.8.6 2.3.4.5 1 .8 1.7.8.9 0 1.7-.2 2.5-.6v1.7c-.3.2-.7.4-1.1.4-.3 0-.8.1-1.4.1zM961.7 489.9c.5 0 1-.1 1.4-.2v1.5c-.2.1-.5.2-.8.2-.3.1-.7.1-1.1.1-1.8 0-2.8-1-2.8-2.9v-4.9h-1.3v-.9l1.3-.7.7-1.9h1.2v2h2.6v1.5h-2.6v4.9c0 .5.1.8.4 1 .3.2.6.3 1 .3zM965.2 479.7c0-.3.1-.6.3-.8.2-.2.5-.3.8-.3s.6.1.8.3.3.5.3.8-.1.6-.3.8c-.2.2-.5.3-.8.3-.4 0-.6-.1-.8-.3-.2-.2-.3-.5-.3-.8zm2 11.6h-2v-9.2h2v9.2zM972.5 491.3l-3.5-9.2h2.1l1.9 5.3c.3.9.5 1.6.6 2.2h.1c0-.4.2-1.1.6-2.2l1.9-5.3h2.1l-3.5 9.2h-2.3zM985.6 491.3l-.4-1.3h-.1c-.4.6-.9.9-1.3 1.1-.4.2-1 .3-1.7.3-.9 0-1.6-.2-2.1-.7s-.8-1.2-.8-2.1.4-1.7 1.1-2.1c.7-.5 1.8-.7 3.2-.8h1.6v-.5c0-.6-.1-1-.4-1.3-.3-.3-.7-.4-1.3-.4-.5 0-.9.1-1.4.2-.4.1-.8.3-1.2.5l-.6-1.4c.5-.3 1-.5 1.6-.6s1.2-.2 1.7-.2c1.2 0 2 .3 2.6.8s.9 1.3.9 2.4v6.2h-1.4v-.1zm-3-1.3c.7 0 1.3-.2 1.7-.6s.6-1 .6-1.7v-.8h-1.2c-.9 0-1.6.2-2 .5s-.6.7-.6 1.3c0 .4.1.7.4 1 .3.2.7.3 1.1.3zM993.4 489.9c.5 0 1-.1 1.4-.2v1.5c-.2.1-.5.2-.8.2-.3.1-.7.1-1.1.1-1.8 0-2.8-1-2.8-2.9v-4.9h-1.3v-.9l1.3-.7.7-1.9h1.2v2h2.6v1.5H992v4.9c0 .5.1.8.4 1 .3.2.6.3 1 .3zM1001 491.5c-1.4 0-2.5-.4-3.3-1.2-.8-.8-1.2-2-1.2-3.4 0-1.5.4-2.7 1.1-3.5.7-.9 1.8-1.3 3.1-1.3 1.2 0 2.2.4 2.9 1.1s1.1 1.7 1.1 3v1.1h-6.1c0 .9.3 1.6.7 2.1.5.5 1.1.7 1.9.7.5 0 1-.1 1.5-.2s1-.3 1.5-.5v1.6c-.5.2-1 .4-1.4.5-.6-.1-1.1 0-1.8 0zm-.3-8.1c-.6 0-1.1.2-1.5.6s-.6 1-.7 1.7h4.2c0-.8-.2-1.3-.5-1.7-.4-.4-.9-.6-1.5-.6z" class="st41"/></g><g><path d="M1080.3 145.3c0 1.3-.4 2.2-1.2 2.9s-2 1-3.5 1h-1.3v4.5h-2v-12.1h3.5c1.5 0 2.7.3 3.4.9.7.6 1.1 1.6 1.1 2.8zm-6 2.2h1.1c1 0 1.8-.2 2.2-.5.5-.4.7-.9.7-1.7 0-.7-.2-1.2-.6-1.6s-1.1-.5-2-.5h-1.4v4.3zM1087.5 144.4c.4 0 .7 0 1 .1l-.2 1.8c-.3-.1-.6-.1-.9-.1-.8 0-1.4.3-1.9.8s-.7 1.2-.7 2v4.8h-2v-9.2h1.5l.3 1.6h.1c.3-.5.7-1 1.2-1.3.5-.4 1.1-.5 1.6-.5zM1094.5 153.9c-1.4 0-2.5-.4-3.3-1.2s-1.2-2-1.2-3.4c0-1.5.4-2.7 1.1-3.5.7-.9 1.8-1.3 3.1-1.3 1.2 0 2.2.4 2.9 1.1s1.1 1.7 1.1 3v1.1h-6.1c0 .9.3 1.6.7 2.1.5.5 1.1.7 1.9.7.5 0 1-.1 1.5-.2s1-.3 1.5-.5v1.6c-.5.2-1 .4-1.4.5s-1.1 0-1.8 0zm-.3-8c-.6 0-1.1.2-1.5.6-.4.4-.6 1-.7 1.7h4.2c0-.8-.2-1.3-.5-1.7-.4-.4-.9-.6-1.5-.6zM1108.4 153.7h-2V148c0-.7-.1-1.2-.4-1.6-.3-.3-.7-.5-1.2-.5-.8 0-1.3.2-1.7.7-.4.5-.5 1.3-.5 2.4v4.6h-2v-9.2h1.5l.3 1.2h.1c.3-.4.6-.8 1.1-1s1-.4 1.6-.4c1.4 0 2.3.5 2.8 1.4h.1c.3-.5.7-.8 1.1-1.1.5-.3 1.1-.4 1.7-.4 1.1 0 1.9.3 2.4.8.5.6.8 1.4.8 2.5v6h-2v-5.7c0-.7-.1-1.2-.4-1.6-.3-.3-.7-.5-1.2-.5-.8 0-1.3.2-1.7.7-.4.5-.5 1.2-.5 2.2l.1 5.2zM1117.1 142.1c0-.3.1-.6.3-.8.2-.2.5-.3.8-.3s.6.1.8.3c.2.2.3.5.3.8s-.1.6-.3.8c-.2.2-.5.3-.8.3-.4 0-.6-.1-.8-.3-.2-.2-.3-.5-.3-.8zm2.1 11.6h-2v-9.2h2v9.2zM1128.8 153.7l-.3-1.2h-.1c-.3.4-.7.8-1.2 1s-1.1.4-1.7.4c-1.1 0-1.9-.3-2.5-.8-.5-.6-.8-1.4-.8-2.5v-6h2v5.7c0 .7.1 1.2.4 1.6.3.4.7.5 1.4.5.8 0 1.4-.2 1.8-.7s.6-1.3.6-2.5v-4.6h2v9.2l-1.6-.1zM1141.2 153.7h-2V148c0-.7-.1-1.2-.4-1.6-.3-.3-.7-.5-1.2-.5-.8 0-1.3.2-1.7.7-.4.5-.5 1.3-.5 2.4v4.6h-2v-9.2h1.5l.3 1.2h.1c.3-.4.6-.8 1.1-1s1-.4 1.6-.4c1.4 0 2.3.5 2.8 1.4h.1c.3-.5.7-.8 1.1-1.1.5-.3 1.1-.4 1.7-.4 1.1 0 1.9.3 2.4.8s.8 1.4.8 2.5v6h-2v-5.7c0-.7-.1-1.2-.4-1.6-.3-.3-.7-.5-1.2-.5-.8 0-1.3.2-1.7.7-.4.5-.5 1.2-.5 2.2l.1 5.2zM1074.9 163.5c-1.1 0-2 .4-2.7 1.2s-1 1.9-1 3.3c0 1.5.3 2.6.9 3.4.6.8 1.5 1.1 2.7 1.1.5 0 1-.1 1.5-.2s1-.2 1.5-.4v1.7c-1 .4-2 .5-3.2.5-1.8 0-3.1-.5-4.1-1.6s-1.4-2.6-1.4-4.6c0-1.3.2-2.4.7-3.3.5-.9 1.1-1.7 2-2.2s1.9-.8 3.1-.8 2.4.3 3.4.8l-.7 1.7c-.4-.2-.8-.4-1.3-.5-.4 0-.9-.1-1.4-.1zM1087.2 174.1l-.3-1.2h-.1c-.3.4-.7.8-1.2 1s-1.1.4-1.7.4c-1.1 0-1.9-.3-2.5-.8s-.8-1.4-.8-2.5v-6h2v5.7c0 .7.1 1.2.4 1.6.3.4.7.5 1.4.5.8 0 1.4-.2 1.8-.7s.6-1.3.6-2.5V165h2v9.2l-1.6-.1zM1098 171.5c0 .9-.3 1.6-1 2.1s-1.6.7-2.8.7c-1.2 0-2.2-.2-2.9-.6V172c1.1.5 2.1.7 3 .7 1.2 0 1.8-.4 1.8-1.1 0-.2-.1-.4-.2-.6s-.4-.3-.7-.5c-.3-.2-.7-.4-1.3-.6-1.1-.4-1.8-.8-2.1-1.2-.4-.4-.6-.9-.6-1.6 0-.8.3-1.4 1-1.8.6-.4 1.5-.7 2.6-.7s2.1.2 3.1.7l-.6 1.5c-1-.4-1.8-.6-2.5-.6-1 0-1.5.3-1.5.9 0 .3.1.5.4.7s.9.5 1.8.8c.8.3 1.3.6 1.7.8.3.2.6.5.8.8-.1.5 0 .9 0 1.3zM1103.8 172.7c.5 0 1-.1 1.4-.2v1.5c-.2.1-.5.2-.8.2-.3.1-.7.1-1.1.1-1.8 0-2.8-1-2.8-2.9v-4.9h-1.3v-.9l1.3-.7.7-1.9h1.2v2h2.6v1.5h-2.6v4.9c0 .5.1.8.4 1 .4.2.7.3 1 .3zM1115.6 169.5c0 1.5-.4 2.7-1.2 3.5s-1.8 1.3-3.2 1.3c-.9 0-1.6-.2-2.3-.6-.7-.4-1.2-.9-1.5-1.7s-.5-1.6-.5-2.5c0-1.5.4-2.7 1.1-3.5s1.8-1.3 3.2-1.3c1.3 0 2.4.4 3.2 1.3.8.9 1.2 2.1 1.2 3.5zm-6.7 0c0 2.1.8 3.2 2.3 3.2s2.3-1.1 2.3-3.2-.8-3.1-2.3-3.1c-.8 0-1.4.3-1.8.8s-.5 1.3-.5 2.3zM1125.9 174.1h-2v-5.7c0-.7-.1-1.2-.4-1.6-.3-.3-.7-.5-1.2-.5-.8 0-1.3.2-1.7.7-.4.5-.5 1.3-.5 2.4v4.6h-2v-9.2h1.5l.3 1.2h.1c.3-.4.6-.8 1.1-1s1-.4 1.6-.4c1.4 0 2.3.5 2.8 1.4h.1c.3-.5.7-.8 1.1-1.1.5-.3 1.1-.4 1.7-.4 1.1 0 1.9.3 2.4.8.5.6.8 1.4.8 2.5v6h-2v-5.7c0-.7-.1-1.2-.4-1.6-.3-.3-.7-.5-1.2-.5-.8 0-1.3.2-1.7.7-.4.5-.5 1.2-.5 2.2l.1 5.2zM1138.8 174.3c-1.4 0-2.5-.4-3.3-1.2s-1.2-2-1.2-3.4c0-1.5.4-2.7 1.1-3.5.7-.9 1.8-1.3 3.1-1.3 1.2 0 2.2.4 2.9 1.1s1.1 1.7 1.1 3v1.1h-6.1c0 .9.3 1.6.7 2.1.5.5 1.1.7 1.9.7.5 0 1-.1 1.5-.2s1-.3 1.5-.5v1.6c-.5.2-1 .4-1.4.5s-1.2 0-1.8 0zm-.4-8c-.6 0-1.1.2-1.5.6-.4.4-.6 1-.7 1.7h4.2c0-.8-.2-1.3-.5-1.7-.4-.4-.9-.6-1.5-.6zM1149.6 164.8c.4 0 .7 0 1 .1l-.2 1.8c-.3-.1-.6-.1-.9-.1-.8 0-1.4.3-1.9.8s-.7 1.2-.7 2v4.8h-2V165h1.5l.3 1.6h.1c.3-.5.7-1 1.2-1.3.5-.4 1-.5 1.6-.5z" class="st41"/></g><g><path d="M1085.4 486.5v4.8h-2v-12.1h3.4c1.6 0 2.7.3 3.5.9s1.1 1.5 1.1 2.7c0 1.5-.8 2.6-2.4 3.2l3.4 5.4h-2.3l-2.9-4.8h-1.8v-.1zm0-1.7h1.4c.9 0 1.6-.2 2-.5s.6-.9.6-1.5c0-.7-.2-1.2-.7-1.5-.4-.3-1.1-.4-2-.4h-1.3v3.9zM1098.4 491.5c-1.4 0-2.5-.4-3.3-1.2-.8-.8-1.2-2-1.2-3.4 0-1.5.4-2.7 1.1-3.5.7-.9 1.8-1.3 3.1-1.3a4 4 0 012.9 1.1c.7.7 1.1 1.7 1.1 3v1.1h-6.1c0 .9.3 1.6.7 2.1.5.5 1.1.7 1.9.7.5 0 1-.1 1.5-.2s1-.3 1.5-.5v1.6c-.5.2-1 .4-1.4.5-.6-.1-1.2 0-1.8 0zm-.4-8.1c-.6 0-1.1.2-1.5.6s-.6 1-.7 1.7h4.2c0-.8-.2-1.3-.5-1.7-.4-.4-.8-.6-1.5-.6zM1107.9 489.9c.5 0 1-.1 1.4-.2v1.5c-.2.1-.5.2-.8.2-.3.1-.7.1-1.1.1-1.8 0-2.8-1-2.8-2.9v-4.9h-1.3v-.9l1.3-.7.7-1.9h1.2v2h2.6v1.5h-2.6v4.9c0 .5.1.8.4 1 .4.2.7.3 1 .3zM1117.3 491.3l-.4-1.3h-.1c-.4.6-.9.9-1.3 1.1s-1 .3-1.7.3c-.9 0-1.6-.2-2.1-.7s-.8-1.2-.8-2.1.4-1.7 1.1-2.1c.7-.5 1.8-.7 3.2-.8h1.6v-.5c0-.6-.1-1-.4-1.3s-.7-.4-1.3-.4c-.5 0-.9.1-1.4.2-.4.1-.8.3-1.2.5l-.6-1.4c.5-.3 1-.5 1.6-.6s1.2-.2 1.7-.2c1.2 0 2 .3 2.6.8s.9 1.3.9 2.4v6.2h-1.4v-.1zm-2.9-1.3c.7 0 1.3-.2 1.7-.6.4-.4.6-1 .6-1.7v-.8h-1.2c-.9 0-1.6.2-2 .5s-.6.7-.6 1.3c0 .4.1.7.4 1 .2.2.6.3 1.1.3zM1121.6 479.7c0-.3.1-.6.3-.8.2-.2.5-.3.8-.3s.6.1.8.3c.2.2.3.5.3.8s-.1.6-.3.8c-.2.2-.5.3-.8.3-.4 0-.6-.1-.8-.3-.2-.2-.3-.5-.3-.8zm2.1 11.6h-2v-9.2h2v9.2zM1134.9 491.3h-2v-5.6c0-.7-.1-1.2-.4-1.6-.3-.3-.7-.5-1.4-.5-.8 0-1.4.2-1.8.7s-.6 1.3-.6 2.4v4.6h-2v-9.2h1.5l.3 1.2h.1c.3-.4.7-.8 1.2-1s1.1-.4 1.7-.4c2.2 0 3.3 1.1 3.3 3.4v6h.1z" class="st41"/></g><g><path d="M1288.1 303.1h-1.8V289h-5v-1.6h11.8v1.6h-5v14.1zM1295.4 288.1c0-.4.1-.7.3-.9.2-.2.5-.3.8-.3s.5.1.7.3.3.5.3.9-.1.7-.3.9c-.2.2-.5.3-.7.3-.3 0-.6-.1-.8-.3-.2-.2-.3-.5-.3-.9zm2 15h-1.8v-11.8h1.8v11.8zM1316.6 303.1v-7.7c0-.9-.2-1.6-.6-2.1s-1-.7-1.9-.7c-1.1 0-1.9.3-2.5 1-.5.6-.8 1.6-.8 2.9v6.6h-1.8v-7.7c0-.9-.2-1.6-.6-2.1s-1-.7-1.9-.7c-1.1 0-1.9.3-2.5 1-.5.7-.8 1.8-.8 3.3v6.2h-1.8v-11.8h1.5l.3 1.6h.1c.3-.6.8-1 1.4-1.3s1.3-.5 2.1-.5c1.8 0 3 .7 3.6 2h.1c.4-.6.9-1.1 1.5-1.5.7-.4 1.4-.5 2.3-.5 1.3 0 2.3.3 3 1s1 1.8 1 3.3v7.7h-1.7zM1327.5 303.3c-1.7 0-3.1-.5-4.1-1.6s-1.5-2.5-1.5-4.4.5-3.4 1.4-4.5 2.2-1.7 3.8-1.7c1.5 0 2.6.5 3.5 1.5s1.3 2.3 1.3 3.8v1.1h-8.1c0 1.4.4 2.4 1 3.1.7.7 1.6 1.1 2.8 1.1 1.3 0 2.5-.3 3.8-.8v1.6c-.6.3-1.2.5-1.8.6-.7.2-1.4.2-2.1.2zm-.5-10.7c-.9 0-1.7.3-2.3.9-.6.6-.9 1.5-1 2.6h6.2c0-1.1-.3-2-.8-2.6-.5-.6-1.2-.9-2.1-.9z" class="st0"/></g><g><path d="M1236.6 88.1V72.4h2.6v15.7h-2.6zM1253.5 88.1h-2.5v-7.3c0-.9-.2-1.6-.5-2s-.9-.7-1.6-.7c-1 0-1.7.3-2.1 1-.5.6-.7 1.7-.7 3.2v5.9h-2.5v-12h2l.4 1.6h.1c.3-.6.8-1 1.4-1.3s1.3-.5 2.1-.5c1.8 0 3 .6 3.6 1.9h.2c.4-.6.8-1 1.5-1.4.6-.3 1.4-.5 2.2-.5 1.4 0 2.5.4 3.1 1.1s1 1.8 1 3.3v7.7h-2.5v-7.3c0-.9-.2-1.6-.5-2s-.9-.7-1.6-.7c-1 0-1.7.3-2.2.9s-.7 1.6-.7 2.8v6.3h-.2zM1271 88.3c-1.5 0-2.7-.5-3.5-1.6h-.2c.1 1 .2 1.6.2 1.8v4.9h-2.5V76.2h2c.1.2.2.8.4 1.6h.1c.8-1.2 2-1.8 3.5-1.8s2.6.5 3.5 1.6c.8 1.1 1.2 2.6 1.2 4.5s-.4 3.5-1.3 4.5c-.8 1.2-2 1.7-3.4 1.7zm-.7-10.2c-1 0-1.7.3-2.2.9s-.7 1.5-.7 2.8v.4c0 1.4.2 2.5.7 3.1s1.2 1 2.2 1c.9 0 1.5-.4 2-1.1s.7-1.7.7-3.1c0-1.3-.2-2.3-.7-3-.4-.7-1-1-2-1zM1285.1 76c.5 0 .9 0 1.3.1l-.2 2.4c-.4-.1-.7-.1-1.1-.1-1 0-1.8.3-2.5 1-.6.7-.9 1.5-.9 2.6v6.2h-2.5v-12h2l.3 2.1h.1c.4-.7.9-1.3 1.5-1.7.6-.4 1.3-.6 2-.6zM1299.5 82.1c0 1.9-.5 3.5-1.5 4.5-1 1.1-2.4 1.6-4.2 1.6-1.1 0-2.1-.3-2.9-.8-.9-.5-1.5-1.2-2-2.2-.5-.9-.7-2-.7-3.3 0-1.9.5-3.4 1.5-4.5s2.4-1.6 4.2-1.6c1.7 0 3.1.6 4.1 1.7s1.5 2.8 1.5 4.6zm-8.6 0c0 2.7 1 4.1 3 4.1s3-1.4 3-4.1-1-4.1-3-4.1c-1.1 0-1.8.4-2.3 1.1-.5.7-.7 1.7-.7 3zM1305.6 88.1l-4.5-11.9h2.7l2.4 6.9c.4 1.2.7 2.1.8 2.8h.1c.1-.5.3-1.5.8-2.8l2.4-6.9h2.7l-4.5 11.9h-2.9zM1320.3 88.3c-1.8 0-3.3-.5-4.3-1.6s-1.6-2.6-1.6-4.5.5-3.5 1.5-4.6 2.3-1.7 4-1.7c1.6 0 2.8.5 3.7 1.4.9 1 1.4 2.3 1.4 3.9v1.4h-7.9c0 1.2.3 2 .9 2.7.6.6 1.4.9 2.5.9.7 0 1.4-.1 2-.2s1.3-.4 1.9-.7v2.1c-.6.3-1.2.5-1.9.6-.7.3-1.4.3-2.2.3zm-.5-10.4c-.8 0-1.4.3-1.9.8s-.8 1.2-.9 2.2h5.4c0-1-.2-1.7-.7-2.2-.4-.5-1.1-.8-1.9-.8zM1336.2 84.7c0 1.2-.4 2.1-1.3 2.7-.8.6-2.1.9-3.6.9-1.6 0-2.9-.2-3.8-.7v-2.2c1.4.6 2.7 1 3.9 1 1.6 0 2.3-.5 2.3-1.4 0-.3-.1-.6-.3-.8-.2-.2-.5-.4-.8-.6-.4-.2-.9-.5-1.6-.7-1.4-.5-2.3-1.1-2.8-1.6s-.7-1.2-.7-2.1c0-1 .4-1.8 1.2-2.4.8-.6 1.9-.8 3.3-.8s2.7.3 4 .8l-.8 1.9c-1.3-.5-2.4-.8-3.2-.8-1.3 0-2 .4-2 1.1 0 .4.2.7.5.9s1.1.6 2.3 1.1c1 .4 1.7.7 2.1 1s.8.7 1 1.1c.2.6.3 1 .3 1.6zM1243.3 103.4c-1.5 0-2.6.5-3.5 1.6-.8 1-1.3 2.5-1.3 4.3 0 1.9.4 3.4 1.2 4.4.8 1 2 1.5 3.5 1.5a13.32 13.32 0 003.8-.7v2.2c-1.2.5-2.6.7-4.2.7-2.3 0-4.1-.7-5.3-2.1-1.2-1.4-1.8-3.4-1.8-6 0-1.6.3-3.1.9-4.3.6-1.2 1.5-2.2 2.6-2.8 1.1-.7 2.5-1 4-1 1.6 0 3.1.3 4.4 1l-.9 2.1c-.5-.3-1.1-.5-1.7-.7-.5-.1-1.1-.2-1.7-.2zM1259.1 117.1l-.4-1.6h-.1c-.4.6-.9 1-1.5 1.3s-1.4.5-2.2.5c-1.4 0-2.5-.4-3.2-1.1s-1.1-1.8-1.1-3.3v-7.8h2.5v7.3c0 .9.2 1.6.6 2 .4.5 1 .7 1.8.7 1.1 0 1.8-.3 2.3-1 .5-.6.7-1.7.7-3.2V105h2.5v11.9h-1.9v.2zM1273.1 113.7c0 1.2-.4 2.1-1.3 2.7-.8.6-2.1.9-3.6.9-1.6 0-2.9-.2-3.8-.7v-2.2c1.4.6 2.7 1 3.9 1 1.6 0 2.3-.5 2.3-1.4 0-.3-.1-.6-.3-.8-.2-.2-.5-.4-.8-.6-.4-.2-.9-.5-1.6-.7-1.4-.5-2.3-1.1-2.8-1.6s-.7-1.2-.7-2.1c0-1 .4-1.8 1.2-2.4.8-.6 1.9-.8 3.3-.8s2.7.3 4 .8l-.8 1.9c-1.3-.5-2.4-.8-3.2-.8-1.3 0-2 .4-2 1.1 0 .4.2.7.5.9s1.1.6 2.3 1.1c1 .4 1.7.7 2.1 1s.8.7 1 1.1c.2.6.3 1 .3 1.6zM1280.7 115.3c.6 0 1.2-.1 1.8-.3v1.9c-.3.1-.6.2-1.1.3-.4.1-.9.1-1.4.1-2.4 0-3.6-1.3-3.6-3.8v-6.4h-1.6V106l1.7-.9.9-2.5h1.6v2.6h3.4v1.9h-3.4v6.4c0 .6.2 1.1.5 1.3s.7.5 1.2.5zM1295.9 111.1c0 1.9-.5 3.5-1.5 4.5-1 1.1-2.4 1.6-4.2 1.6-1.1 0-2.1-.3-2.9-.8-.9-.5-1.5-1.2-2-2.2-.5-.9-.7-2-.7-3.3 0-1.9.5-3.4 1.5-4.5s2.4-1.6 4.2-1.6c1.7 0 3.1.6 4.1 1.7s1.5 2.8 1.5 4.6zm-8.7 0c0 2.7 1 4.1 3 4.1s3-1.4 3-4.1-1-4.1-3-4.1c-1.1 0-1.8.4-2.3 1.1-.4.7-.7 1.7-.7 3zM1309.2 117.1h-2.5v-7.3c0-.9-.2-1.6-.5-2s-.9-.7-1.6-.7c-1 0-1.7.3-2.1 1-.5.6-.7 1.7-.7 3.2v5.9h-2.5v-11.9h2l.4 1.6h.1c.3-.6.8-1 1.4-1.3s1.3-.5 2.1-.5c1.8 0 3 .6 3.6 1.9h.2c.4-.6.8-1 1.5-1.4.6-.3 1.4-.5 2.2-.5 1.4 0 2.5.4 3.1 1.1s1 1.8 1 3.3v7.7h-2.5v-7.3c0-.9-.2-1.6-.5-2s-.9-.7-1.6-.7c-1 0-1.7.3-2.2.9s-.7 1.6-.7 2.8v6.2h-.2zM1325.9 117.3c-1.8 0-3.3-.5-4.3-1.6s-1.6-2.6-1.6-4.5.5-3.5 1.5-4.6 2.3-1.7 4-1.7c1.6 0 2.8.5 3.7 1.4.9 1 1.4 2.3 1.4 3.9v1.4h-7.9c0 1.2.3 2 .9 2.7.6.6 1.4.9 2.5.9.7 0 1.4-.1 2-.2s1.3-.4 1.9-.7v2.1c-.6.3-1.2.5-1.9.6-.7.3-1.4.3-2.2.3zm-.5-10.4c-.8 0-1.4.3-1.9.8s-.8 1.2-.9 2.2h5.4c0-1-.2-1.7-.7-2.2-.5-.5-1.1-.8-1.9-.8zM1339.8 105c.5 0 .9 0 1.3.1l-.2 2.4c-.4-.1-.7-.1-1.1-.1-1 0-1.8.3-2.5 1-.6.7-.9 1.5-.9 2.6v6.2h-2.5v-11.9h2l.3 2.1h.1c.4-.7.9-1.3 1.5-1.7.6-.5 1.3-.7 2-.7zM1236.6 146.1v-15.7h2.6v13.5h6.6v2.2h-9.2zM1248.5 131.1c0-.5.1-.8.4-1 .2-.2.6-.4 1.1-.4.4 0 .8.1 1 .4.2.2.4.6.4 1s-.1.8-.4 1-.6.4-1 .4c-.5 0-.8-.1-1.1-.4s-.4-.6-.4-1zm2.7 15h-2.5v-11.9h2.5v11.9zM1261.2 136.1h-2.9v10h-2.5v-10h-2v-1.2l2-.8v-.8c0-1.4.3-2.4 1-3.1s1.7-1 3-1c.9 0 1.8.1 2.6.4l-.7 1.9c-.6-.2-1.2-.3-1.8-.3-.6 0-1 .2-1.3.5s-.4.9-.4 1.6v.8h2.9v2h.1zM1268.9 146.3c-1.8 0-3.3-.5-4.3-1.6s-1.6-2.6-1.6-4.5.5-3.5 1.4-4.6c1-1.1 2.3-1.7 4-1.7 1.6 0 2.8.5 3.7 1.4.9 1 1.4 2.3 1.4 3.9v1.4h-7.9c0 1.2.3 2 .9 2.7.6.6 1.4.9 2.5.9.7 0 1.4-.1 2-.2.6-.1 1.3-.4 2-.7v2.1c-.6.3-1.2.5-1.9.6-.7.3-1.4.3-2.2.3zm-.5-10.4c-.8 0-1.4.3-1.9.8s-.8 1.2-.9 2.2h5.4c0-1-.3-1.7-.7-2.2-.5-.5-1.1-.8-1.9-.8zM1281.2 144.3c.6 0 1.2-.1 1.8-.3v1.9c-.3.1-.6.2-1.1.3-.4.1-.9.1-1.4.1-2.4 0-3.6-1.3-3.6-3.8v-6.4h-1.6V135l1.7-.9.9-2.5h1.6v2.6h3.4v1.9h-3.4v6.4c0 .6.2 1.1.5 1.3.3.3.7.5 1.2.5zM1285.7 131.1c0-.5.1-.8.4-1 .2-.2.6-.4 1.1-.4.4 0 .8.1 1 .4.2.2.4.6.4 1s-.1.8-.4 1c-.2.2-.6.4-1 .4-.5 0-.8-.1-1.1-.4-.3-.3-.4-.6-.4-1zm2.7 15h-2.5v-11.9h2.5v11.9zM1302.5 146.1h-2.5v-7.3c0-.9-.2-1.6-.5-2s-.9-.7-1.6-.7c-1 0-1.7.3-2.1 1-.5.6-.7 1.7-.7 3.2v5.9h-2.5v-11.9h2l.4 1.6h.1c.3-.6.8-1 1.4-1.3s1.3-.5 2.1-.5c1.8 0 3 .6 3.6 1.9h.2c.4-.6.8-1 1.5-1.4.6-.3 1.4-.5 2.2-.5 1.4 0 2.5.4 3.1 1.1a5 5 0 011 3.3v7.7h-2.5v-7.3c0-.9-.2-1.6-.5-2s-.9-.7-1.6-.7c-1 0-1.7.3-2.2.9s-.7 1.6-.7 2.8v6.2h-.2zM1319.1 146.3c-1.8 0-3.3-.5-4.3-1.6s-1.6-2.6-1.6-4.5.5-3.5 1.5-4.6 2.3-1.7 4-1.7c1.6 0 2.8.5 3.7 1.4.9 1 1.4 2.3 1.4 3.9v1.4h-7.9c0 1.2.3 2 .9 2.7.6.6 1.4.9 2.5.9.7 0 1.4-.1 2-.2.6-.1 1.3-.4 1.9-.7v2.1c-.6.3-1.2.5-1.9.6-.7.3-1.4.3-2.2.3zm-.5-10.4c-.8 0-1.4.3-1.9.8s-.8 1.2-.9 2.2h5.4c0-1-.3-1.7-.7-2.2-.4-.5-1.1-.8-1.9-.8zM1342.4 130.4h2.7l-5.5 15.7h-2.7l-5.5-15.7h2.6l3.3 9.8c.2.5.4 1.1.5 1.8.2.7.3 1.3.4 1.6.1-.5.2-1.2.4-1.9s.4-1.2.5-1.6l3.3-9.7zM1354.7 146.1l-.5-1.7h-.1c-.6.7-1.1 1.2-1.7 1.5s-1.3.4-2.2.4c-1.2 0-2.1-.3-2.7-.9-.7-.6-1-1.5-1-2.7s.5-2.1 1.4-2.8c.9-.6 2.3-1 4.2-1l2.1-.1v-.6c0-.8-.2-1.3-.5-1.7s-.9-.6-1.6-.6c-.6 0-1.2.1-1.8.3-.6.2-1.1.4-1.6.6l-.8-1.8a10.23 10.23 0 014.3-1.1c1.5 0 2.7.3 3.4 1 .8.7 1.2 1.7 1.2 3.1v8h-2.1v.1zm-3.7-1.7c.9 0 1.7-.3 2.2-.8.6-.5.8-1.2.8-2.2v-1l-1.5.1c-1.2 0-2.1.2-2.6.6s-.8.9-.8 1.6c0 .5.2.9.5 1.2.3.3.8.5 1.4.5zM1363 146.1h-2.5v-16.7h2.5v16.7zM1375.5 146.1l-.4-1.6h-.1c-.4.6-.8 1-1.5 1.3s-1.4.5-2.2.5c-1.4 0-2.5-.4-3.2-1.1-.7-.7-1.1-1.8-1.1-3.3v-7.8h2.5v7.3c0 .9.2 1.6.6 2 .4.5 1 .7 1.8.7 1.1 0 1.8-.3 2.3-1s.7-1.7.7-3.2V134h2.5v11.9h-1.9v.2zM1386.7 146.3c-1.8 0-3.3-.5-4.3-1.6s-1.6-2.6-1.6-4.5.5-3.5 1.5-4.6 2.3-1.7 4-1.7c1.6 0 2.8.5 3.7 1.4.9 1 1.4 2.3 1.4 3.9v1.4h-7.9c0 1.2.3 2 .9 2.7.6.6 1.4.9 2.5.9.7 0 1.4-.1 2-.2.6-.1 1.3-.4 1.9-.7v2.1c-.6.3-1.2.5-1.9.6-.7.3-1.4.3-2.2.3zm-.5-10.4c-.8 0-1.4.3-1.9.8s-.8 1.2-.9 2.2h5.4c0-1-.2-1.7-.7-2.2-.4-.5-1.1-.8-1.9-.8z" class="st0"/></g><g><path d="M14.1 21c0 1.6-.5 2.8-1.6 3.7-1.1.9-2.6 1.3-4.7 1.3H6v6.2H4.1V16.4h4.1c3.9 0 5.9 1.5 5.9 4.6zM6 24.4h1.6c1.6 0 2.8-.3 3.5-.8.7-.5 1.1-1.4 1.1-2.5 0-1-.3-1.8-1-2.3-.7-.6-1.8-.8-3.2-.8H6v6.4zM22.9 20.1c.5 0 1 0 1.4.1l-.2 1.7c-.5-.1-.9-.2-1.3-.2-1 0-1.8.4-2.4 1.2s-1 1.7-1 2.9v6.3h-1.8V20.3H19l.2 2.2h.1c.4-.8 1-1.4 1.6-1.8.6-.4 1.3-.6 2-.6zM37.1 26.2c0 1.9-.5 3.4-1.5 4.5s-2.3 1.6-4 1.6c-1.1 0-2-.2-2.8-.7s-1.4-1.2-1.9-2.1c-.4-.9-.7-2-.7-3.2 0-1.9.5-3.4 1.4-4.5 1-1.1 2.3-1.6 4-1.6 1.6 0 3 .5 3.9 1.6 1.1 1.1 1.6 2.5 1.6 4.4zm-8.9 0c0 1.5.3 2.6.9 3.4s1.5 1.2 2.7 1.2c1.2 0 2.1-.4 2.7-1.2.6-.8.9-1.9.9-3.4s-.3-2.6-.9-3.4c-.6-.8-1.5-1.2-2.7-1.2s-2 .4-2.6 1.1c-.7.8-1 2-1 3.5zM46 21.7h-3v10.4h-1.8V21.7h-2.1v-.8l2.1-.6v-.7c0-2.9 1.3-4.3 3.8-4.3.6 0 1.4.1 2.2.4l-.5 1.4c-.7-.2-1.3-.3-1.8-.3-.7 0-1.2.2-1.5.7-.3.4-.5 1.2-.5 2.2v.8h3l.1 1.2zm2-4.6c0-.4.1-.7.3-.9.2-.2.5-.3.8-.3s.5.1.7.3.3.5.3.9-.1.7-.3.9c-.2.2-.5.3-.7.3-.3 0-.6-.1-.8-.3-.2-.2-.3-.5-.3-.9zm1.9 15h-1.8V20.3h1.8v11.8zM58 30.8c.3 0 .6 0 .9-.1.3 0 .5-.1.7-.1V32a2 2 0 01-.9.2c-.4.1-.7.1-1 .1-2.3 0-3.4-1.2-3.4-3.6v-7h-1.7v-.9l1.7-.7.8-2.5h1v2.7h3.4v1.4h-3.4v6.9c0 .7.2 1.3.5 1.6.3.5.8.6 1.4.6z" class="st0"/></g><g><path d="M204.7 566.2h3.6l-7.5 21.4h-3.7l-7.5-21.4h3.6l4.5 13.3c.2.6.5 1.5.7 2.5.3 1 .4 1.7.5 2.2.1-.7.3-1.6.6-2.6s.5-1.7.6-2.2l4.6-13.2zM211.2 567.1c0-.6.2-1.1.5-1.4s.8-.5 1.4-.5c.6 0 1.1.2 1.4.5s.5.8.5 1.4c0 .6-.2 1-.5 1.4-.3.3-.8.5-1.4.5-.6 0-1.1-.2-1.4-.5-.3-.4-.5-.8-.5-1.4zm3.6 20.5h-3.4v-16.2h3.4v16.2zM231.2 583c0 1.6-.6 2.8-1.7 3.6-1.2.8-2.8 1.3-5 1.3s-3.9-.3-5.2-1v-3c1.9.9 3.7 1.3 5.3 1.3 2.1 0 3.2-.6 3.2-1.9 0-.4-.1-.8-.4-1s-.6-.6-1.2-.8-1.3-.6-2.2-1c-1.9-.7-3.1-1.4-3.8-2.2s-1-1.7-1-2.8c0-1.4.6-2.5 1.7-3.2 1.1-.8 2.6-1.2 4.6-1.2 1.9 0 3.7.4 5.4 1.2l-1.1 2.6c-1.7-.7-3.2-1.1-4.4-1.1-1.8 0-2.7.5-2.7 1.6 0 .5.2.9.7 1.3s1.5.8 3.1 1.5c1.3.5 2.3 1 2.9 1.4s1.1.9 1.3 1.5c.4.4.5 1.1.5 1.9zM235.4 567.1c0-.6.2-1.1.5-1.4s.8-.5 1.4-.5c.6 0 1.1.2 1.4.5s.5.8.5 1.4c0 .6-.2 1-.5 1.4-.3.3-.8.5-1.4.5-.6 0-1.1-.2-1.4-.5-.4-.4-.5-.8-.5-1.4zm3.6 20.5h-3.4v-16.2h3.4v16.2zM250.6 585.1c.8 0 1.7-.1 2.5-.4v2.6c-.4.2-.9.3-1.5.4-.6.1-1.2.2-1.9.2-3.3 0-4.9-1.7-4.9-5.2V574h-2.2v-1.5l2.4-1.3 1.2-3.4h2.1v3.6h4.6v2.6h-4.6v8.7c0 .8.2 1.4.6 1.8.4.4 1 .6 1.7.6zM271.3 579.5c0 2.6-.7 4.7-2 6.2s-3.2 2.2-5.7 2.2c-1.5 0-2.9-.3-4-1s-2.1-1.7-2.7-2.9-.9-2.8-.9-4.5c0-2.6.7-4.7 2-6.2s3.2-2.2 5.7-2.2c2.3 0 4.2.8 5.6 2.3 1.3 1.5 2 3.5 2 6.1zm-11.8 0c0 3.7 1.4 5.6 4.1 5.6s4.1-1.9 4.1-5.6c0-3.7-1.4-5.6-4.1-5.6-1.4 0-2.5.5-3.1 1.4s-1 2.4-1 4.2zM284.1 571.1c.7 0 1.3 0 1.7.1l-.3 3.2c-.5-.1-1-.2-1.5-.2-1.4 0-2.5.4-3.3 1.3s-1.3 2.1-1.3 3.5v8.5H276v-16.2h2.7l.5 2.9h.2c.5-1 1.2-1.7 2.1-2.3s1.6-.8 2.6-.8zM298.1 587.6v-21.4h3.5v18.4h9.1v3h-12.6zM314.4 567.1c0-.6.2-1.1.5-1.4s.8-.5 1.4-.5 1.1.2 1.4.5.5.8.5 1.4c0 .6-.2 1-.5 1.4-.3.3-.8.5-1.4.5s-1.1-.2-1.4-.5c-.3-.4-.5-.8-.5-1.4zm3.7 20.5h-3.4v-16.2h3.4v16.2zM331.7 574h-4v13.6h-3.5V574h-2.7v-1.6l2.7-1.1v-1.1c0-1.9.4-3.3 1.3-4.3.9-.9 2.3-1.4 4.1-1.4 1.2 0 2.4.2 3.6.6l-.9 2.6c-.8-.3-1.7-.4-2.4-.4-.8 0-1.4.2-1.7.7-.4.5-.5 1.2-.5 2.2v1.1h4v2.7zM342.2 587.9c-2.5 0-4.5-.7-5.9-2.2s-2.1-3.5-2.1-6.1.7-4.7 2-6.2 3.1-2.3 5.4-2.3c2.1 0 3.8.6 5.1 1.9s1.9 3.1 1.9 5.4v1.9h-10.8c0 1.6.5 2.8 1.3 3.6s1.9 1.3 3.4 1.3c1 0 1.8-.1 2.7-.3.8-.2 1.7-.5 2.7-.9v2.8c-.8.4-1.7.7-2.5.8s-2.1.3-3.2.3zm-.7-14.2c-1.1 0-2 .3-2.6 1s-1.1 1.7-1.2 3h7.4c0-1.3-.3-2.4-1-3-.6-.7-1.5-1-2.6-1zM359.5 587.9c-2.5 0-4.3-.7-5.6-2.1-1.3-1.4-1.9-3.5-1.9-6.2s.7-4.8 2-6.3 3.3-2.2 5.8-2.2c1.7 0 3.2.3 4.6 1l-1 2.8c-1.5-.6-2.7-.8-3.6-.8-2.8 0-4.2 1.9-4.2 5.6 0 1.8.3 3.2 1 4.1.7.9 1.7 1.4 3.1 1.4 1.5 0 3-.4 4.4-1.1v3c-.6.4-1.3.6-2 .8s-1.6 0-2.6 0zM366 571.4h3.8l3.3 9.2c.5 1.3.8 2.5 1 3.7h.1c.1-.5.2-1.2.5-2 .2-.8 1.5-4.4 3.7-10.9h3.7l-6.9 18.4c-1.3 3.4-3.4 5.1-6.3 5.1-.8 0-1.5-.1-2.2-.2V592c.5.1 1.1.2 1.8.2 1.7 0 2.8-1 3.5-2.9l.6-1.5-6.6-16.4zM391.6 587.9c-2.5 0-4.3-.7-5.6-2.1-1.3-1.4-1.9-3.5-1.9-6.2s.7-4.8 2-6.3 3.3-2.2 5.8-2.2c1.7 0 3.2.3 4.6 1l-1 2.8c-1.5-.6-2.7-.8-3.6-.8-2.8 0-4.2 1.9-4.2 5.6 0 1.8.3 3.2 1 4.1.7.9 1.7 1.4 3.1 1.4 1.5 0 3-.4 4.4-1.1v3c-.6.4-1.3.6-2 .8s-1.6 0-2.6 0zM404 587.6h-3.4v-22.8h3.4v22.8zM416.6 587.9c-2.5 0-4.5-.7-5.9-2.2s-2.1-3.5-2.1-6.1.7-4.7 2-6.2 3.1-2.3 5.4-2.3c2.1 0 3.8.6 5.1 1.9s1.9 3.1 1.9 5.4v1.9h-10.8c0 1.6.5 2.8 1.3 3.6s1.9 1.3 3.4 1.3c1 0 1.8-.1 2.7-.3.8-.2 1.7-.5 2.7-.9v2.8c-.8.4-1.7.7-2.5.8s-2.1.3-3.2.3zm-.6-14.2c-1.1 0-2 .3-2.6 1s-1.1 1.7-1.2 3h7.4c0-1.3-.3-2.4-1-3-.7-.7-1.5-1-2.6-1z" class="st41"/></g><g><path d="M742.5 568.9c-2 0-3.6.7-4.7 2.1s-1.7 3.4-1.7 5.9c0 2.6.6 4.6 1.7 6 1.1 1.3 2.7 2 4.8 2 .9 0 1.8-.1 2.6-.3s1.7-.4 2.7-.7v3c-1.7.6-3.6 1-5.7 1-3.1 0-5.5-.9-7.2-2.8-1.7-1.9-2.5-4.6-2.5-8.2 0-2.2.4-4.2 1.2-5.8.8-1.7 2-2.9 3.5-3.8s3.4-1.3 5.4-1.3c2.2 0 4.2.5 6.1 1.4l-1.3 2.9c-.7-.3-1.5-.6-2.3-.9-.9-.4-1.7-.5-2.6-.5zM764 587.6l-.5-2.1h-.2c-.5.8-1.2 1.3-2 1.8s-1.9.6-3 .6c-2 0-3.4-.5-4.4-1.5s-1.5-2.5-1.5-4.4v-10.6h3.5v10c0 1.2.3 2.2.8 2.8s1.3.9 2.4.9c1.4 0 2.5-.4 3.2-1.3.7-.9 1-2.3 1-4.3v-8.1h3.5v16.2H764zM783.2 583c0 1.6-.6 2.8-1.7 3.6-1.2.8-2.8 1.3-5 1.3s-3.9-.3-5.2-1v-3c1.9.9 3.7 1.3 5.3 1.3 2.1 0 3.2-.6 3.2-1.9 0-.4-.1-.8-.4-1s-.6-.6-1.2-.8-1.3-.6-2.2-1c-1.9-.7-3.1-1.4-3.8-2.2-.7-.7-1-1.7-1-2.8 0-1.4.6-2.5 1.7-3.2 1.1-.8 2.6-1.2 4.6-1.2 1.9 0 3.7.4 5.4 1.2l-1.1 2.6c-1.7-.7-3.2-1.1-4.4-1.1-1.8 0-2.7.5-2.7 1.6 0 .5.2.9.7 1.3.5.4 1.5.8 3.1 1.5 1.3.5 2.3 1 2.9 1.4s1.1.9 1.3 1.5c.3.4.5 1.1.5 1.9zM793.5 585.1c.8 0 1.7-.1 2.5-.4v2.6c-.4.2-.9.3-1.5.4-.6.1-1.2.2-1.9.2-3.3 0-4.9-1.7-4.9-5.2V574h-2.2v-1.5l2.4-1.3 1.2-3.4h2.1v3.6h4.6v2.6h-4.6v8.7c0 .8.2 1.4.6 1.8.5.4 1 .6 1.7.6zM814.2 579.5c0 2.6-.7 4.7-2 6.2s-3.2 2.2-5.7 2.2c-1.5 0-2.9-.3-4-1s-2.1-1.7-2.7-2.9-.9-2.8-.9-4.5c0-2.6.7-4.7 2-6.2s3.2-2.2 5.7-2.2c2.3 0 4.2.8 5.6 2.3 1.3 1.5 2 3.5 2 6.1zm-11.8 0c0 3.7 1.4 5.6 4.1 5.6 2.7 0 4.1-1.9 4.1-5.6 0-3.7-1.4-5.6-4.1-5.6-1.4 0-2.5.5-3.1 1.4s-1 2.4-1 4.2zM832.4 587.6H829v-10c0-1.2-.2-2.2-.7-2.8s-1.2-.9-2.2-.9c-1.3 0-2.3.4-2.9 1.3-.6.9-.9 2.3-.9 4.3v8.1h-3.4v-16.2h2.7l.5 2.1h.2c.4-.8 1.1-1.4 2-1.8.9-.4 1.8-.6 2.8-.6 2.5 0 4.1.8 5 2.5h.2c.5-.8 1.2-1.4 2-1.9s1.9-.7 3-.7c1.9 0 3.3.5 4.2 1.5s1.3 2.5 1.3 4.5v10.6h-3.4v-10c0-1.2-.2-2.2-.7-2.8s-1.2-.9-2.2-.9c-1.3 0-2.3.4-2.9 1.3-.6.8-.9 2.1-.9 3.8v8.6h-.3zM855.1 587.9c-2.5 0-4.5-.7-5.9-2.2s-2.1-3.5-2.1-6.1.7-4.7 2-6.2 3.1-2.3 5.4-2.3c2.1 0 3.8.6 5.1 1.9s1.9 3.1 1.9 5.4v1.9h-10.8c0 1.6.5 2.8 1.3 3.6s1.9 1.3 3.4 1.3c1 0 1.8-.1 2.7-.3.8-.2 1.7-.5 2.7-.9v2.8c-.8.4-1.7.7-2.5.8s-2.1.3-3.2.3zm-.6-14.2c-1.1 0-2 .3-2.6 1s-1.1 1.7-1.2 3h7.4c0-1.3-.3-2.4-1-3-.6-.7-1.5-1-2.6-1zM874.2 571.1c.7 0 1.3 0 1.7.1l-.3 3.2c-.5-.1-1-.2-1.5-.2-1.4 0-2.5.4-3.3 1.3-.9.9-1.3 2.1-1.3 3.5v8.5H866v-16.2h2.7l.5 2.9h.2c.5-1 1.2-1.7 2.1-2.3.7-.5 1.7-.8 2.7-.8zM888.2 587.6v-21.4h3.5v18.4h9.1v3h-12.6zM904.5 567.1c0-.6.2-1.1.5-1.4.3-.3.8-.5 1.4-.5.6 0 1.1.2 1.4.5.3.3.5.8.5 1.4 0 .6-.2 1-.5 1.4-.3.3-.8.5-1.4.5-.6 0-1.1-.2-1.4-.5-.3-.4-.5-.8-.5-1.4zm3.7 20.5h-3.4v-16.2h3.4v16.2zM921.8 574h-4v13.6h-3.5V574h-2.7v-1.6l2.7-1.1v-1.1c0-1.9.4-3.3 1.3-4.3.9-.9 2.3-1.4 4.1-1.4 1.2 0 2.4.2 3.6.6l-.9 2.6c-.8-.3-1.7-.4-2.4-.4-.8 0-1.4.2-1.7.7-.4.5-.5 1.2-.5 2.2v1.1h4v2.7zM932.3 587.9c-2.5 0-4.5-.7-5.9-2.2s-2.1-3.5-2.1-6.1.7-4.7 2-6.2 3.1-2.3 5.4-2.3c2.1 0 3.8.6 5.1 1.9s1.9 3.1 1.9 5.4v1.9h-10.8c0 1.6.5 2.8 1.3 3.6s1.9 1.3 3.4 1.3c1 0 1.8-.1 2.7-.3.8-.2 1.7-.5 2.7-.9v2.8c-.8.4-1.7.7-2.5.8s-2.1.3-3.2.3zm-.7-14.2c-1.1 0-2 .3-2.6 1-.7.7-1.1 1.7-1.2 3h7.4c0-1.3-.3-2.4-1-3-.6-.7-1.5-1-2.6-1zM949.6 587.9c-2.5 0-4.3-.7-5.6-2.1-1.3-1.4-1.9-3.5-1.9-6.2s.7-4.8 2-6.3 3.3-2.2 5.8-2.2c1.7 0 3.2.3 4.6 1l-1 2.8c-1.5-.6-2.7-.8-3.6-.8-2.8 0-4.2 1.9-4.2 5.6 0 1.8.3 3.2 1 4.1.7.9 1.7 1.4 3.1 1.4 1.5 0 3-.4 4.4-1.1v3c-.6.4-1.3.6-2 .8-.7-.1-1.6 0-2.6 0zM956.1 571.4h3.8l3.3 9.2c.5 1.3.8 2.5 1 3.7h.1c.1-.5.2-1.2.5-2 .2-.8 1.5-4.4 3.7-10.9h3.7l-6.9 18.4c-1.3 3.4-3.4 5.1-6.3 5.1-.8 0-1.5-.1-2.2-.2V592c.5.1 1.1.2 1.8.2 1.7 0 2.8-1 3.5-2.9l.6-1.5-6.6-16.4zM981.7 587.9c-2.5 0-4.3-.7-5.6-2.1-1.3-1.4-1.9-3.5-1.9-6.2s.7-4.8 2-6.3 3.3-2.2 5.8-2.2c1.7 0 3.2.3 4.6 1l-1 2.8c-1.5-.6-2.7-.8-3.6-.8-2.8 0-4.2 1.9-4.2 5.6 0 1.8.3 3.2 1 4.1.7.9 1.7 1.4 3.1 1.4 1.5 0 3-.4 4.4-1.1v3c-.6.4-1.3.6-2 .8-.7-.1-1.6 0-2.6 0zM994.1 587.6h-3.4v-22.8h3.4v22.8zM1006.7 587.9c-2.5 0-4.5-.7-5.9-2.2s-2.1-3.5-2.1-6.1.7-4.7 2-6.2 3.1-2.3 5.4-2.3c2.1 0 3.8.6 5.1 1.9s1.9 3.1 1.9 5.4v1.9h-10.8c0 1.6.5 2.8 1.3 3.6s1.9 1.3 3.4 1.3c1 0 1.8-.1 2.7-.3.8-.2 1.7-.5 2.7-.9v2.8c-.8.4-1.7.7-2.5.8s-2.1.3-3.2.3zm-.6-14.2c-1.1 0-2 .3-2.6 1-.7.7-1.1 1.7-1.2 3h7.4c0-1.3-.3-2.4-1-3-.7-.7-1.5-1-2.6-1z" class="st41"/></g><g><path d="M30 51.4h3v562.5h-3z" class="st43" transform="translate(-.591 .057)"/></g><path d="M1361.5 307.1l17 10.3-17 10.3 3.6-10.3zM20.7 56.9l10.3-17 10.3 17L31 53.3z" class="st43"/><g><path d="M203.9 444.1c-51.7 0-109-1.3-172.5-3.8l.1-2c153.6 6.1 271.2 4.8 359.6-3.9a504.9 504.9 0 00277.7-117.9c72.5-70.4 109-105.7 165.4-122.2 52.5-15.3 99.6-7.9 138.7 1.5 32.4 7.7 65.2 18.7 97.4 32.5 38.3 16.5 105.6 45.8 125.7 57.1a977.8 977.8 0 0151.1 31l-1.1 1.7a972.12 972.12 0 00-50.9-31c-20-11.3-87.2-40.6-125.5-57a598.08 598.08 0 00-97.1-32.4c-38.8-9.3-85.6-16.7-137.6-1.5-55.9 16.3-92.2 51.6-164.6 121.8a509.02 509.02 0 01-130.4 80.5 505.92 505.92 0 01-148.4 37.9c-52.1 5.2-114.1 7.7-187.6 7.7z" class="st0"/></g><path fill="#163f6f" d="M669.5 317.4s100-105 160-122c48.2-13.6 92.4-9.4 138.1 1.5 33.3 8 61.9 15.5 97.2 32.5 41 19.6 105.9 45.9 125.6 57.1 21.3 12.1 38.7 23 51 31H669.5v-.1z" opacity=".6"/><g><path d="M227.4 379.8v-2c2.3 0 4.6 0 7 0v2c-2.3 0-4.7 0-7 0zm-7 0c-2.4 0-4.7 0-7 0v-2c2.3 0 4.6 0 7 0v2zm21 0v-2c2.3 0 4.7 0 7-.1v2c-2.3 0-4.7.1-7 .1zm-35-.1c-2.4 0-4.7 0-7-.1v-2c2.3 0 4.6 0 7 .1v2zm49-.1v-2c2.3 0 4.7-.1 7-.1v2c-2.3.1-4.7.1-7 .1zm-63 0c-2.4 0-4.7-.1-7-.1v-2c2.3 0 4.6.1 7 .1v2zm77-.2v-2c2.3 0 4.7-.1 7-.1v2c-2.3 0-4.7.1-7 .1zm-91-.1c-2.4 0-4.7-.1-7-.2v-2c2.3.1 4.6.1 7 .2v2zm105-.2v-2c2.3-.1 4.7-.1 7-.2l.1 2c-2.4.1-4.7.2-7.1.2zm-119-.1c-2.4-.1-4.7-.1-7-.2l.1-2c2.3.1 4.6.1 7 .2l-.1 2zm133-.3l-.1-2c2.3-.1 4.7-.1 7-.2l.1 2c-2.3.1-4.6.2-7 .2zm-147-.1c-2.4-.1-4.7-.1-7-.2l.1-2c2.3.1 4.6.2 7 .2l-.1 2zm161-.3l-.1-2c2.3-.1 4.7-.2 7-.3l.1 2c-2.3.1-4.6.2-7 .3zm-175-.1c-2.4-.1-4.7-.2-7-.3l.1-2c2.3.1 4.6.2 7 .3l-.1 2zm189-.5l-.1-2c2.3-.1 4.7-.2 7-.3l.1 2c-2.3.1-4.7.2-7 .3zm-203-.1c-2.4-.1-4.7-.2-7-.3l.1-2c2.3.1 4.6.2 7 .3l-.1 2zm217-.6l-.1-2c2.3-.1 4.6-.2 7-.4l.1 2c-2.3.2-4.7.3-7 .4zm-231 0c-2.4-.1-4.7-.2-7-.3l.1-2c2.3.1 4.6.2 7 .3l-.1 2zm-14-.7c-2.4-.1-4.7-.2-7-.4l.1-2c2.3.1 4.6.2 7 .4l-.1 2zm259 0l-.1-2c2.3-.1 4.6-.3 7-.4l.1 2c-2.3.1-4.7.3-7 .4zm-273-.7l-7-.4.1-2 7 .4-.1 2zm287-.2l-.1-2c2.3-.1 4.6-.3 7-.5l.1 2c-2.4.2-4.7.4-7 .5zm-301-.6l-7-.4.1-2 7 .4-.1 2zm315-.3l-.1-2c2.3-.2 4.6-.3 7-.5l.1 2c-2.4.2-4.7.4-7 .5zm-329-.4c-2.5-.1-4.8-.2-7-.3l.1-2c2.2.1 4.5.2 7 .3l-.1 2zm-13.9-.6c-2.6-.1-4.7-.1-6.5-.1h-.4v-2h.4c1.8 0 4 0 6.6.1l-.1 2zm356.8 0l-.2-2c2.3-.2 4.6-.4 7-.5l.2 2c-2.3.1-4.6.3-7 .5zm14-1.1l-.2-2c2.3-.2 4.6-.4 7-.6l.2 2c-2.4.2-4.7.4-7 .6zm14-1.2l-.2-2c2.3-.2 4.6-.4 7-.6l.2 2c-2.4.1-4.7.4-7 .6zm13.9-1.3l-.2-2c2.3-.2 4.6-.5 7-.7l.2 2c-2.4.2-4.7.4-7 .7zm13.9-1.4l-.2-2c2.3-.2 4.6-.5 7-.7l.2 2c-2.3.2-4.6.4-7 .7zm14-1.5l-.2-2c2.3-.3 4.6-.5 7-.8l.2 2c-2.4.2-4.7.5-7 .8zm13.9-1.6l-.2-2c2.3-.3 4.6-.6 6.9-.8l.2 2c-2.3.2-4.6.5-6.9.8zm13.9-1.7l-.2-2c2.3-.3 4.6-.6 6.9-.9l.3 2c-2.4.3-4.7.6-7 .9zm13.9-1.8l-.3-2c2.3-.3 4.6-.6 6.9-.9l.3 2c-2.3.2-4.6.6-6.9.9zm13.9-1.9l-.3-2c2.3-.3 4.6-.7 6.9-1l.3 2c-2.3.3-4.6.6-6.9 1zm13.8-2l-.3-2c2.3-.3 4.6-.7 6.9-1l.3 2c-2.3.3-4.6.6-6.9 1zm13.9-2.1l-.3-2c2.3-.4 4.6-.7 6.9-1.1l.3 2c-2.3.3-4.6.7-6.9 1.1zm13.8-2.2l-.3-2c2.3-.4 4.6-.8 6.9-1.1l.3 2c-2.3.3-4.6.7-6.9 1.1zm13.8-2.4l-.3-2c1.9-.3 3.8-.7 5.7-1l1.2-.2.3 2-1.2.2c-1.9.4-3.8.7-5.7 1zm13.8-2.4l-.4-2c2.5-.5 4.7-.9 6.8-1.4l.4 2c-2.1.5-4.3.9-6.8 1.4zm13.7-2.9l-.5-2c2.3-.6 4.5-1.1 6.7-1.7l.5 1.9c-2.1.6-4.4 1.2-6.7 1.8zm13.6-3.8l-.6-1.9c2.2-.7 4.4-1.4 6.6-2.2l.7 1.9c-2.3.8-4.5 1.5-6.7 2.2zm13.2-4.6l-.7-1.9c2.1-.8 4.3-1.7 6.4-2.6l.8 1.8c-2.1.9-4.3 1.8-6.5 2.7zm13-5.6l-.8-1.8c.5-.2 1-.5 1.6-.7 1.6-.7 3.1-1.5 4.7-2.4l1 1.8c-1.6.9-3.2 1.7-4.8 2.4-.7.3-1.2.5-1.7.7zm12.4-6.7l-1.1-1.7c1.9-1.3 3.8-2.6 5.6-4l1.2 1.6c-1.8 1.4-3.8 2.8-5.7 4.1zm11.1-8.8l-1.4-1.5c1.7-1.6 3.3-3.2 4.9-4.9l1.5 1.3c-1.6 1.8-3.3 3.5-5 5.1zm9.5-10.5l-1.6-1.2c1.4-1.8 2.7-3.7 4-5.7l1.7 1.1c-1.3 2-2.7 4-4.1 5.8zm7.6-11.9l-1.8-.9c1-1.9 2.1-4 3.2-6.2l1.8.9c-1.1 2.2-2.2 4.3-3.2 6.2zm6.4-12.5l-1.8-.9c1-2 2-4.1 3.1-6.3l1.8.9c-1 2.2-2.1 4.3-3.1 6.3zm6.2-12.6l-1.8-.9c1-2 2-4.1 3-6.3l1.8.8c-1.1 2.3-2.1 4.4-3 6.4zm5.9-12.7l-1.8-.8c.9-2.1 1.9-4.2 2.9-6.4l1.8.8c-1 2.2-2 4.4-2.9 6.4zm5.7-12.8l-1.8-.8c.9-2.1 1.8-4.2 2.8-6.4l1.8.8c-1 2.2-1.9 4.3-2.8 6.4zm5.5-12.8l-1.8-.8c.9-2.1 1.8-4.3 2.7-6.4l1.8.8c-.9 2.1-1.8 4.3-2.7 6.4zm5.4-13l-1.9-.8c.9-2.1 1.7-4.3 2.6-6.5l1.9.7c-.8 2.3-1.7 4.5-2.6 6.6zm5.2-13l-1.9-.7c.8-2.1 1.7-4.3 2.6-6.5l1.9.7c-.9 2.2-1.7 4.4-2.6 6.5zm5.1-13l-1.9-.7c.8-2.1 1.7-4.3 2.5-6.5l1.9.7c-.8 2.1-1.7 4.3-2.5 6.5zm5-13.1l-1.9-.7c.8-2.2 1.6-4.3 2.4-6.6l1.9.7c-.8 2.2-1.6 4.4-2.4 6.6zm4.8-13.2l-1.9-.7c.8-2.2 1.6-4.4 2.4-6.6l1.9.7c-.9 2.2-1.6 4.4-2.4 6.6zm4.7-13.2l-1.9-.7c.8-2.2 1.5-4.4 2.3-6.6l1.9.7c-.8 2.2-1.6 4.4-2.3 6.6zm4.5-13.2l-1.9-.6 2.2-6.6 1.9.6-2.2 6.6zm4.5-13.3l-1.9-.6 1.6-4.7c.2-.7.5-1.3.7-2l1.9.7c-.2.6-.5 1.3-.7 2l-1.6 4.6zm4.8-13.1l-1.8-.8c.9-2.2 1.9-4.3 2.9-6.4l1.8.9c-1 2.1-2 4.2-2.9 6.3zm6.1-12.5l-1.7-1c1.1-2 2.4-4.1 3.6-6.1l1.7 1.1c-1.3 2-2.5 4-3.6 6zm7.4-11.7l-1.6-1.2c1.4-1.9 2.8-3.8 4.3-5.6l1.6 1.3c-1.5 1.8-2.9 3.7-4.3 5.5zm8.7-10.8l-1.5-1.3c1.6-1.7 3.2-3.5 4.9-5.1l1.4 1.4c-1.6 1.6-3.2 3.3-4.8 5zm9.9-9.8l-1.3-1.5c1.8-1.6 3.6-3.1 5.4-4.5l1.2 1.6c-1.8 1.4-3.6 2.9-5.3 4.4zm10.9-8.6l-1.2-1.6c1.9-1.3 3.9-2.7 5.9-3.9l1.1 1.7c-2 1.2-4 2.5-5.8 3.8zm11.7-7.3l-1-1.8c2-1.1 4.2-2.2 6.3-3.2l.9 1.8c-2.1 1-4.1 2.1-6.2 3.2zm12.6-6l-.8-1.9c2.2-.9 4.4-1.7 6.6-2.5l.7 1.9c-2.2.8-4.4 1.6-6.5 2.5zm13.1-4.5l-.6-1.9c2.2-.7 4.5-1.3 6.7-1.9l.5 1.9c-2.2.6-4.4 1.2-6.6 1.9zm13.5-3.7l-.5-1.9c2.2-.6 4.5-1.1 6.8-1.6l.4 2c-2.3.4-4.5.9-6.7 1.5zm13.6-3.1l-.4-2c2.3-.5 4.5-.9 6.9-1.4l.4 2c-2.4.5-4.7.9-6.9 1.4zm13.7-2.6l-.3-2c2.3-.4 4.6-.8 6.9-1.1l.3 2c-2.4.3-4.7.7-6.9 1.1zm13.8-2.2l-.3-2c2.3-.3 4.6-.6 6.9-1l.3 2c-2.4.4-4.7.7-6.9 1zm13.8-1.8l-.2-2c2.3-.3 4.6-.5 7-.8l.2 2c-2.4.3-4.7.5-7 .8zm13.9-1.5l-.2-2c2.3-.2 4.6-.4 7-.7l.2 2c-2.4.2-4.7.5-7 .7zm13.9-1.3l-.2-2c2.3-.2 4.6-.4 7-.5l.1 2c-2.2.2-4.6.3-6.9.5zm14-1l-.1-2c2.3-.2 4.6-.3 7-.4l.1 2c-2.4.1-4.7.2-7 .4zm13.9-.8l-.1-2c2.3-.1 4.6-.2 7-.4l.1 2c-2.3.1-4.7.2-7 .4zm14-.7l-.1-2c2.3-.1 4.6-.2 7-.3l.1 2c-2.3.1-4.7.2-7 .3zm184.4-.3l-2.5-.1v-2l2.5.1v2zm-9.5-.2l-7-.1v-2l7 .1v2zm-160.9 0l-.1-2c2.3-.1 4.6-.1 7-.2l.1 2c-2.4 0-4.7.1-7 .2zm146.9-.3l-7-.1v-2l7 .1v2zm-132.9-.1l-.1-2c2.3-.1 4.6-.1 7-.2v2c-2.3 0-4.6.1-6.9.2zm118.9-.2c-2.3 0-4.7-.1-7-.1v-2c2.3 0 4.7.1 7 .1v2zm-104.9-.1v-2c2.3 0 4.6-.1 7-.1v2c-2.4 0-4.7 0-7 .1zm90.9-.1c-2.3 0-4.7-.1-7-.1v-2c2.3 0 4.7.1 7 .1v2zm-14-.1c-2.3 0-4.7 0-7-.1v-2c2.3 0 4.6 0 7 .1v2zm-62.9 0v-2c2.3 0 4.6 0 7-.1v2c-2.4 0-4.7 0-7 .1zm48.9-.1c-2.3 0-4.7 0-7 0v-2c2.3 0 4.6 0 7 0v2zm-35-.1v-2c2.3 0 4.6 0 7 0v2c-2.3 0-4.6 0-7 0zm21 0c-1.8 0-3.6 0-5.4 0h-1.6v-2h1.6c1.8 0 3.6 0 5.4 0v2z" class="st45"/></g><path d="M1235.6 289.9l-174.1-85.5-16 31 165 81h36" class="st0"/><g><path d="M1081.9 238.8l5.3-10.9 1.8.9-5.3 10.9-1.8-.9zM1093.9 244.7l-1.8-.9 2.5-5.1c.3-.6.4-1.2.3-1.6s-.4-.8-1-1.1c-.7-.4-1.4-.4-1.9-.1-.6.3-1.1.9-1.6 1.9l-2 4.1-1.8-.9 4-8.2 1.4.7-.3 1.2h.1c.4-.3.9-.4 1.5-.4s1.1.2 1.7.4c2 1 2.5 2.5 1.5 4.5l-2.6 5.5zM1099.4 247.6c-1-.5-1.6-1.3-1.9-2.3s0-2.2.7-3.6 1.5-2.3 2.4-2.7c1-.5 1.9-.4 3 .1s1.7 1.3 1.9 2.4h.1c.2-.6.4-1.1.6-1.5l1.5-3 1.8.9-5.7 11.6-1.4-.7.2-1.2h-.1c-1 .5-2 .5-3.1 0zm1.1-1.2c.7.4 1.3.4 1.9.2.5-.2 1-.8 1.5-1.7l.1-.2c.5-1 .7-1.9.6-2.5s-.5-1.1-1.3-1.4c-.6-.3-1.2-.3-1.8.1-.6.3-1.1 1-1.5 1.9s-.6 1.7-.5 2.3.4 1 1 1.3zM1112.3 253.7l.3-1.2h-.1c-.4.3-.9.4-1.5.4s-1.1-.1-1.7-.4c-1-.5-1.6-1.1-1.9-1.8-.2-.7-.1-1.6.4-2.6l2.6-5.4 1.8.9-2.5 5.1c-.3.6-.4 1.2-.3 1.6.1.4.4.8 1 1.1.7.4 1.4.4 1.9.1.6-.3 1.1-.9 1.6-2l2-4.1 1.8.9-4 8.2-1.4-.8zM1123.2 256.1c-.4.8-1 1.3-1.8 1.4s-1.7-.1-2.8-.6c-1.1-.5-1.9-1.1-2.4-1.8l.7-1.5c.7.9 1.5 1.6 2.4 2 1.1.5 1.8.5 2.1-.2.1-.2.1-.4.1-.6-.1-.2-.2-.4-.4-.7-.2-.3-.5-.6-.9-1.1-.8-.8-1.2-1.5-1.4-2-.2-.5-.1-1.1.2-1.7.3-.7.9-1.1 1.7-1.2.8-.1 1.6.1 2.6.6s1.8 1.1 2.5 1.9l-1.2 1c-.7-.8-1.4-1.4-2-1.7-.9-.5-1.5-.4-1.8.1-.1.3-.1.5 0 .8.2.3.6.8 1.2 1.5.6.6.9 1.1 1.1 1.5s.3.7.3 1.1c.1.5 0 .8-.2 1.2zM1127.9 259.8c.4.2.9.4 1.4.4l-.6 1.3c-.2 0-.5-.1-.9-.2-.3-.1-.7-.2-1-.4-1.7-.8-2.1-2.1-1.2-3.8l2.2-4.4-1.1-.6.4-.8h1.5l1.5-1.5 1.1.5-.9 1.8 2.3 1.2-.7 1.3-2.3-1.2-2.2 4.4c-.2.4-.3.8-.1 1.1 0 .5.3.7.6.9zM1138.8 256.3c.4.2.6.3.8.5l-1 1.5c-.2-.2-.5-.3-.7-.5-.7-.3-1.4-.4-2-.1-.7.2-1.2.7-1.5 1.5l-2.1 4.3-1.8-.9 4-8.2 1.4.7-.5 1.6h.1c.5-.4 1.1-.6 1.6-.6.7-.1 1.2 0 1.7.2zM1139.2 266.9l-1.8-.9 4-8.2 1.8.9-4 8.2zm3.2-11.3c.2-.3.4-.5.6-.6.3-.1.5 0 .9.1.3.2.5.4.6.6.1.3.1.5-.1.8-.1.3-.3.5-.6.6-.3.1-.5.1-.8-.1s-.5-.4-.6-.6c-.2-.3-.1-.5 0-.8zM1154.2 270.6c-.5 1-1.2 1.6-2.2 1.8-1 .2-2.1 0-3.3-.6-1.2-.6-2.1-1.3-2.7-2.1l.8-1.7c.4.5.8.9 1.3 1.3s1 .7 1.5 1c.7.3 1.3.5 1.8.4s.8-.4 1-.8.2-.8 0-1.3c-.2-.4-.6-1.1-1.4-1.9-.8-.9-1.3-1.7-1.4-2.4-.2-.7-.1-1.4.3-2.2.4-.9 1.1-1.5 2-1.7s1.9 0 3 .5c1 .5 2 1.2 2.8 2.2l-1.3 1.2c-.8-.9-1.5-1.5-2.3-1.9-.6-.3-1.1-.4-1.5-.3s-.7.4-.9.8c-.1.3-.2.6-.2.8s.1.5.3.9c.2.3.6.8 1.1 1.4.6.7 1.1 1.3 1.3 1.8.2.5.3.9.3 1.4 0 .4-.1.9-.3 1.4zM1158.6 274.9c.4.2.9.4 1.4.4l-.6 1.3c-.2 0-.5-.1-.9-.2-.3-.1-.7-.2-1-.4-1.7-.8-2.1-2.1-1.2-3.8l2.2-4.4-1.1-.6.4-.8h1.5l1.5-1.5 1.1.5-.9 1.8 2.3 1.2-.7 1.3-2.3-1.2-2.2 4.4c-.2.4-.3.8-.1 1.1.1.5.3.7.6.9zM1166.4 280.2l.2-1.3h-.1c-.6.3-1.2.5-1.7.4-.5 0-1.1-.2-1.7-.5-.8-.4-1.3-.9-1.6-1.6-.2-.7-.2-1.4.2-2.2.4-.8 1-1.3 1.9-1.5.8-.1 1.9.1 3.2.7l1.4.7.2-.4c.3-.5.3-1 .2-1.4-.1-.4-.4-.7-1-1-.4-.2-.9-.3-1.3-.4s-.9-.1-1.3-.1v-1.5c.6 0 1.1 0 1.7.2.6.1 1.1.3 1.6.6 1 .5 1.7 1.1 2 1.8.3.7.2 1.6-.3 2.5l-2.7 5.6-.9-.6zm-2-2.4c.6.3 1.2.4 1.8.2.6-.2 1-.6 1.3-1.2l.4-.7-1.1-.5c-.8-.4-1.5-.5-2-.5-.5.1-.9.3-1.1.9a1.25 1.25 0 00.7 1.8zM1177.7 285.8l-1.8-.9 2.5-5.1c.3-.6.4-1.2.3-1.6s-.4-.8-1-1.1c-.7-.4-1.4-.4-1.9-.1-.6.3-1.1.9-1.6 1.9l-2 4.1-1.8-.9 4-8.2 1.4.7-.3 1.2h.1c.4-.3.9-.4 1.5-.4s1.1.2 1.7.4c2 1 2.5 2.5 1.5 4.5l-2.6 5.5zM1183.1 288.6c-1-.5-1.6-1.3-1.9-2.3-.2-1 0-2.2.7-3.6s1.5-2.3 2.4-2.7c1-.5 1.9-.4 3 .1s1.7 1.3 1.9 2.4h.1c.2-.6.4-1.1.6-1.5l1.5-3 1.8.9-5.7 11.6-1.4-.7.2-1.2h-.1c-1 .5-2 .6-3.1 0zm1.2-1.2c.7.4 1.3.4 1.9.2.5-.2 1-.8 1.5-1.7l.1-.2c.5-1 .7-1.9.6-2.5s-.5-1.1-1.3-1.4c-.6-.3-1.2-.3-1.8.1-.6.3-1.1 1-1.5 1.9s-.6 1.7-.5 2.3.3 1 1 1.3zM1195.4 294.5l.2-1.3h-.1c-.6.3-1.2.5-1.7.4-.5 0-1.1-.2-1.7-.5-.8-.4-1.3-.9-1.6-1.6-.2-.7-.2-1.4.2-2.2.4-.8 1-1.3 1.9-1.5.8-.1 1.9.1 3.2.7l1.4.7.2-.4c.3-.5.3-1 .2-1.4-.1-.4-.4-.7-1-1-.4-.2-.9-.3-1.3-.4s-.9-.1-1.3-.1v-1.5c.6 0 1.1 0 1.7.2s1.1.3 1.6.6c1 .5 1.7 1.1 2 1.8.3.7.2 1.6-.3 2.5l-2.7 5.6-.9-.6zm-2-2.5c.6.3 1.2.4 1.8.2.6-.2 1-.6 1.3-1.2l.4-.7-1.1-.5c-.8-.4-1.5-.5-2-.5-.5.1-.9.3-1.1.9-.2.4-.2.7-.1 1 0 .3.3.6.8.8zM1207.7 290.1c.4.2.6.3.8.5l-1 1.5c-.2-.2-.5-.3-.7-.5-.7-.3-1.4-.4-2-.2-.7.2-1.2.7-1.5 1.5l-2.1 4.3-1.8-.9 4-8.2 1.4.7-.5 1.6h.1c.5-.4 1.1-.6 1.6-.6.6-.1 1.2 0 1.7.3zM1209 301.3c-1-.5-1.6-1.3-1.9-2.3-.2-1 0-2.2.7-3.6s1.5-2.3 2.4-2.7c1-.5 1.9-.4 3 .1s1.7 1.3 1.9 2.4h.1c.2-.6.4-1.1.6-1.5l1.5-3 1.8.9-5.7 11.6-1.4-.7.2-1.2h-.1c-1 .5-2 .5-3.1 0zm1.1-1.2c.7.4 1.3.4 1.9.2.5-.2 1-.8 1.5-1.7l.1-.2c.5-1 .7-1.9.6-2.5s-.5-1.1-1.3-1.4c-.6-.3-1.2-.3-1.8.1-.6.3-1.1 1-1.5 1.9s-.6 1.7-.5 2.3c0 .5.4 1 1 1.3z" class="st41"/></g><g><path d="M31.5 315.9h1334v3H31.5z" class="st43"/></g><g><path d="M1246.2 30.4c-1.9 0-3.3.7-4.3 2.1-1 1.4-1.5 3.3-1.5 5.8 0 5.2 1.9 7.8 5.8 7.8 1.6 0 3.6-.4 5.9-1.2V49c-1.9.8-4 1.2-6.4 1.2-3.4 0-6-1-7.7-3.1-1.8-2-2.7-5-2.7-8.8 0-2.4.4-4.5 1.3-6.3s2.1-3.2 3.8-4.2c1.6-1 3.6-1.5 5.8-1.5 2.3 0 4.5.5 6.8 1.6l-1.6 4c-.9-.4-1.7-.8-2.6-1.1-.8-.2-1.7-.4-2.6-.4zM1257.1 49.9V26.6h4.9v19.1h9.4v4.1h-14.3v.1zM1288.8 49.9h-13.4V26.6h13.4v4h-8.4v5.1h7.9v4h-7.9v6h8.4v4.2zM1298.6 40.9v8.9h-4.9V26.6h6.8c3.2 0 5.5.6 7 1.7s2.3 2.9 2.3 5.2c0 1.4-.4 2.6-1.1 3.6-.8 1.1-1.8 1.9-3.2 2.5 3.5 5.2 5.8 8.6 6.8 10.1h-5.5l-5.5-8.9h-2.7v.1zm0-4h1.6c1.6 0 2.7-.3 3.4-.8.7-.5 1.1-1.3 1.1-2.4 0-1.1-.4-1.9-1.1-2.3-.8-.5-1.9-.7-3.5-.7h-1.5v6.2zM1333.8 49.9h-5.6l-6.1-9.8-2.1 1.5v8.3h-4.9V26.6h4.9v10.6l1.9-2.7 6.3-7.9h5.5l-8.1 10.3 8.2 13zM1335.6 49c0-.7.3-1.1.9-1.1s.9.4.9 1.1c0 .7-.3 1.1-.9 1.1s-.9-.4-.9-1.1zM1341.1 34.3c0-.7.2-1.1.7-1.1.2 0 .4.1.5.3s.2.5.2.8-.1.6-.2.8-.3.3-.5.3c-.5 0-.7-.4-.7-1.1zm1.3 15.6h-1.1V37.7h1.1v12.2zM1356.5 43.8c0 2-.5 3.5-1.4 4.6-1 1.1-2.3 1.7-4 1.7-1.1 0-2-.3-2.8-.8s-1.4-1.3-1.9-2.2c-.4-1-.6-2.1-.6-3.3 0-2 .5-3.5 1.4-4.6 1-1.1 2.3-1.7 4-1.7s3 .6 3.9 1.7c.9 1.1 1.4 2.6 1.4 4.6zm-9.6 0c0 1.7.4 3 1.1 3.9s1.8 1.4 3.1 1.4 2.4-.5 3.1-1.4 1.1-2.2 1.1-3.9-.4-3-1.1-3.9-1.8-1.4-3.1-1.4-2.4.5-3.1 1.4-1.1 2.2-1.1 3.9z" class="st46"/><path d="M1182.2 62.2c-.4.5-1.2.5-1.6 0l-7.4-7.1c-.5-.4-.5-1.2 0-1.7 0 0 27.5-29.4 31.8-32.7 4.2-3.3 23.4-16 23.4-16 .5-.4.7-.2.3.3 0 0-12 18.4-15.1 23-3.1 4.6-31.4 34.2-31.4 34.2" class="st45"/><path fill="#25b7cf" d="M1211.4 38.6c-1.4 5.5-6 23.3-6 23.3-.2.6-.8 1.1-1.5 1l-4.3-.5c-.6-.1-1.2-.7-1.2-1.3 0 0-1.1-19.5.2-26.6 1.3-7.1 29.1-31 30.8-30.1 1.7.8-16.6 28.7-18 34.2"/><path d="M1195.5 22.8c-5.5 1.4-23.2 6.2-23.2 6.2-.6.2-1.1.8-1 1.5l.5 4.3c.1.6.7 1.2 1.3 1.2 0 0 19.6.9 26.6-.5 7.1-1.4 30.8-29.3 29.9-31-.9-1.7-28.6 16.9-34.1 18.3" class="st4"/><path d="M1198.7 34.5c1.3-7.1 29.3-31.1 30.9-30.1.7.5-6.4 9.9-14.2 18.1-3 3.1-6.1 6.3-8.8 8.5-2.9 2.4-5.3 3.9-6.5 4.3-.2.1-1.5.4-1.6.3-.2-.1.1-.7.2-1.1" class="st0"/></g><path fill="#fdc800" d="M31.5 438.4c63.5 2.5 120.5 3.3 172.1 3.3 73.4 0 135.5-2.5 187.4-7.6 51.1-5 101-17.7 148.4-37.9 40.8-17.3 79.1-39.9 114.1-67.2 6-3.7 11.5-8.2 16.4-13.3l-.5-.5-.9-1c-5.3 4.5-10.7 8.9-16.2 13.2-2.8 1.7-5.7 3.3-8.7 4.7-25.1 11.7-43.2 15.5-62.6 18.9-228.8 39.9-427.6 29.2-512.5 24.6-17.3-.9-29.8-1.6-37.3-1.6l.3 61.4v3z" opacity=".6"/></svg>