<?xml version="1.0" encoding="UTF-8"?> <svg xmlns="http://www.w3.org/2000/svg" width="6" height="11" viewBox="0 0 6 11"><g fill="none" fill-rule="evenodd"><g fill="#000"><path d="M108.784 609.857c.356-.013.712-.004 1.069-.004H110v-1.773c-.19-.018-.39-.044-.588-.053-.365-.016-.73-.033-1.097-.025-.558.011-1.086.141-1.547.457-.53.365-.82.876-.93 1.48-.046.25-.058.508-.065.76-.01.399-.001.796 0 1.194v.15H104v1.98h1.762V619h2.153v-4.969h1.756l.27-1.99h-.395c-.5.003-1.645 0-1.645 0s.004-.98.017-1.407c.017-.583.378-.761.866-.777" transform="translate(-104 -608)"></path></g></g></svg> 