<?xml version="1.0" encoding="UTF-8"?> <svg xmlns="http://www.w3.org/2000/svg" width="7" height="13" viewBox="0 0 7 13"><path fill="#FFF" fill-rule="evenodd" d="M5.458 2.14c.406-.015.811-.004 1.219-.004h.167V.092C6.627.072 6.4.04 6.174.03 5.757.013 5.34-.007 4.923.002c-.637.013-1.24.163-1.766.527-.603.42-.934 1.01-1.06 1.706-.053.286-.066.584-.074.876-.012.459-.002.916-.001 1.375v.172H0V6.94h2.01v5.735h2.456V6.95h2.003l.308-2.293h-.45c-.57.002-1.877 0-1.877 0s.005-1.13.019-1.622c.02-.672.432-.877.989-.896"></path></svg> 