<?xml version="1.0" encoding="UTF-8"?> <svg xmlns="http://www.w3.org/2000/svg" xmlns:xlink="http://www.w3.org/1999/xlink" width="13" height="13" viewBox="0 0 13 13"><defs><path id="pncj6a3oja" d="M0 0.004L12.455 0.004 12.455 12.457 0 12.457z"></path></defs><g fill="none" fill-rule="evenodd"><g><g><g transform="translate(-1205 -3303) translate(1205 3303)"><mask id="l60fvc9k7b" fill="#fff"><use xlink:href="#pncj6a3oja"></use></mask><path fill="#FFF" d="M6.227.004C4.537.004 4.324.01 3.66.04c-.663.03-1.116.136-1.512.29-.41.159-.757.372-1.103.718s-.559.694-.718 1.103c-.154.396-.26.849-.29 1.512C.007 4.328 0 4.54 0 6.23 0 7.923.007 8.135.037 8.8c.03.663.136 1.116.29 1.512.16.41.372.756.718 1.103.346.346.694.559 1.103.718.396.154.85.26 1.512.29.664.03.876.037 2.567.037 1.692 0 1.904-.007 2.568-.038.663-.03 1.116-.135 1.512-.289.41-.16.757-.372 1.103-.718.346-.347.559-.694.718-1.103.154-.396.26-.85.29-1.512.03-.664.037-.876.037-2.568 0-1.69-.007-1.903-.038-2.567-.03-.663-.135-1.116-.289-1.512-.16-.41-.372-.757-.718-1.103S10.716.49 10.307.331C9.91.177 9.457.07 8.795.04 8.131.011 7.92.004 6.227.004zm0 1.122c1.663 0 1.86.006 2.517.036.607.028.937.13 1.156.215.29.113.498.248.716.466.218.217.353.425.466.716.085.22.187.549.215 1.156.03.657.036.854.036 2.516 0 1.663-.006 1.86-.036 2.517-.028.607-.13.937-.215 1.156-.113.29-.248.498-.466.716-.218.218-.425.353-.716.466-.22.085-.549.187-1.156.215-.657.03-.854.036-2.517.036-1.662 0-1.86-.007-2.516-.036-.607-.028-.937-.13-1.156-.215-.291-.113-.498-.248-.716-.466-.218-.218-.353-.425-.466-.716-.085-.22-.187-.549-.215-1.156-.03-.657-.036-.854-.036-2.517 0-1.662.006-1.86.036-2.516.028-.607.13-.937.215-1.156.113-.291.248-.499.466-.716.218-.218.425-.353.716-.466.22-.086.549-.187 1.156-.215.657-.03.854-.036 2.516-.036z" mask="url(#l60fvc9k7b)"></path></g><path fill="#FFF" d="M6.227 8.307c-1.146 0-2.075-.93-2.075-2.076s.929-2.075 2.075-2.075c1.147 0 2.076.929 2.076 2.075 0 1.147-.93 2.076-2.076 2.076zm0-5.273c-1.766 0-3.197 1.431-3.197 3.197 0 1.767 1.431 3.198 3.197 3.198 1.767 0 3.198-1.431 3.198-3.198 0-1.766-1.431-3.197-3.198-3.197zM10.299 2.907c0 .413-.335.747-.747.747-.413 0-.748-.334-.748-.747s.335-.747.748-.747c.412 0 .747.334.747.747" transform="translate(-1205 -3303) translate(1205 3303)"></path></g></g></g></svg> 