<?xml version="1.0" encoding="UTF-8"?> <svg xmlns="http://www.w3.org/2000/svg" xmlns:xlink="http://www.w3.org/1999/xlink" width="13" height="13" viewBox="0 0 13 13"><defs><path id="fm5fxjlq3a" d="M0 0.004L12.092 0.004 12.092 12.095 0 12.095z"></path></defs><g fill="none" fill-rule="evenodd"><g><g><g transform="translate(-171 -608) translate(171 608)"><mask id="rzhz22om2b" fill="#fff"><use xlink:href="#fm5fxjlq3a"></use></mask><path fill="#0A0B09" d="M6.046.004C4.404.004 4.198.01 3.553.04 2.91.07 2.47.172 2.086.321c-.398.155-.735.361-1.071.698-.336.336-.543.673-.698 1.07-.149.385-.251.825-.28 1.468C.006 4.202 0 4.407 0 6.05c0 1.642.007 1.848.036 2.493.03.643.132 1.083.281 1.467.155.398.362.735.698 1.071.336.336.673.543 1.07.698.385.149.825.251 1.468.28.645.03.851.037 2.493.037s1.848-.007 2.493-.036c.643-.03 1.083-.132 1.468-.281.397-.155.734-.362 1.07-.698.337-.336.543-.673.698-1.07.15-.385.251-.825.28-1.468.03-.645.037-.851.037-2.493s-.007-1.848-.036-2.493c-.03-.643-.132-1.083-.281-1.468-.155-.397-.361-.734-.698-1.07-.336-.337-.673-.543-1.07-.698-.385-.15-.825-.251-1.468-.28-.645-.03-.85-.037-2.493-.037zm0 1.09c1.614 0 1.806.005 2.443.034.59.027.91.126 1.123.209.282.11.484.24.695.452.212.211.343.413.452.695.083.213.182.533.209 1.123.029.637.035.829.035 2.443s-.006 1.806-.035 2.443c-.027.59-.126.91-.209 1.123-.11.282-.24.483-.452.695-.211.211-.413.343-.695.452-.213.083-.533.181-1.123.208-.637.03-.828.036-2.443.036-1.614 0-1.806-.007-2.443-.036-.59-.027-.91-.125-1.123-.208-.282-.11-.483-.24-.695-.452-.211-.212-.343-.413-.452-.695-.083-.213-.181-.533-.208-1.123-.03-.637-.036-.829-.036-2.443s.007-1.806.036-2.443c.027-.59.125-.91.208-1.123.11-.282.24-.484.452-.695.212-.212.413-.343.695-.452.213-.083.533-.182 1.123-.209.637-.029.829-.035 2.443-.035z" mask="url(#rzhz22om2b)"></path></g><path fill="#0A0B09" d="M6.046 8.065c-1.113 0-2.015-.902-2.015-2.015s.902-2.015 2.015-2.015 2.015.902 2.015 2.015-.902 2.015-2.015 2.015zm0-5.12c-1.715 0-3.105 1.39-3.105 3.105s1.39 3.105 3.105 3.105 3.105-1.39 3.105-3.105-1.39-3.105-3.105-3.105zM9.999 2.822c0 .401-.325.726-.725.726-.401 0-.726-.325-.726-.726 0-.4.325-.725.726-.725.4 0 .725.325.725.725" transform="translate(-171 -608) translate(171 608)"></path></g></g></g></svg> 