<?xml version="1.0" encoding="UTF-8"?> <svg xmlns="http://www.w3.org/2000/svg" width="12" height="13" viewBox="0 0 12 13"><g fill="#FFF"><path d="M12 7.103v4.178H9.428V7.383c0-.98-.372-1.648-1.303-1.648-.71 0-1.134.45-1.32.886-.067.156-.085.373-.085.59v4.07H4.147s.035-6.603 0-7.287H6.72v1.033l-.017.024h.017v-.024c.342-.496.952-1.204 2.318-1.204 1.693 0 2.962 1.042 2.962 3.28zM1.456 0C.576 0 0 .624 0 1.444 0 2.247.559 2.89 1.422 2.89h.017c.897 0 1.455-.643 1.455-1.446C2.877.624 2.336 0 1.456 0zM.153 11.281L2.725 11.281 2.725 3.994.153 3.994z" transform="translate(0 .935)"></path></g></svg> 