<?xml version="1.0" encoding="UTF-8"?> <svg xmlns="http://www.w3.org/2000/svg" width="10" height="9" viewBox="0 0 10 9"><g fill="none" fill-rule="evenodd"><g fill="#000" fill-rule="nonzero"><path d="M219 614.518V618h-2.143v-3.249c0-.816-.31-1.373-1.086-1.373-.592 0-.945.375-1.1.738-.056.13-.071.31-.071.493V618h-2.144s.029-5.503 0-6.073h2.144v.861l-.014.02h.014v-.02c.285-.413.793-1.003 1.932-1.003 1.41 0 2.468.868 2.468 2.733zM210.213 609c-.733 0-1.213.453-1.213 1.049 0 .583.466 1.05 1.185 1.05h.014c.748 0 1.213-.467 1.213-1.05-.014-.596-.465-1.049-1.199-1.049zm-1.086 9h2.144v-6.073h-2.144V618z" transform="translate(-209 -609)"></path></g></g></svg> 