<?xml version="1.0" encoding="UTF-8"?> <svg xmlns="http://www.w3.org/2000/svg" xmlns:xlink="http://www.w3.org/1999/xlink" width="14" height="12" viewBox="0 0 14 12"><defs><path id="p7w0vb20la" d="M1166.403 3316c5.283 0 8.172-4.617 8.172-8.621 0-.131 0-.262-.008-.392.562-.429 1.047-.96 1.433-1.568-.524.245-1.08.406-1.65.477.6-.379 1.049-.975 1.263-1.676-.564.353-1.18.601-1.824.735-.89-.999-2.305-1.243-3.45-.596-1.147.647-1.739 2.024-1.445 3.36-2.31-.123-4.461-1.273-5.92-3.166-.762 1.384-.373 3.155.89 4.045-.457-.015-.905-.145-1.304-.38v.039c0 1.442.964 2.684 2.304 2.97-.422.122-.866.14-1.297.052.377 1.234 1.455 2.08 2.684 2.104-1.017.843-2.274 1.301-3.567 1.3-.229 0-.457-.015-.684-.044 1.314.89 2.842 1.36 4.403 1.359"></path></defs><g fill="none" fill-rule="evenodd"><g transform="translate(-1162 -3304)"><use fill="#FFF" fill-rule="nonzero" xlink:href="#p7w0vb20la"></use></g></g></svg> 