<?xml version="1.0" encoding="UTF-8"?> <svg xmlns="http://www.w3.org/2000/svg" xmlns:xlink="http://www.w3.org/1999/xlink" width="12" height="10" viewBox="0 0 12 10"><defs><path id="a86q5qyaia" d="M138.774 619c4.528 0 7.005-3.848 7.005-7.184 0-.11 0-.218-.007-.327.482-.357.897-.8 1.228-1.307-.45.205-.926.339-1.414.398.514-.316.899-.812 1.082-1.397-.483.294-1.012.501-1.563.613-.763-.832-1.976-1.036-2.958-.497-.982.54-1.49 1.687-1.238 2.8-1.98-.102-3.824-1.06-5.074-2.638-.653 1.153-.32 2.63.762 3.37-.391-.012-.775-.12-1.117-.316v.032c0 1.202.826 2.237 1.975 2.475-.362.102-.743.117-1.111.044.322 1.028 1.246 1.733 2.3 1.753-.872.703-1.95 1.084-3.058 1.083-.196 0-.392-.012-.586-.036 1.126.74 2.436 1.134 3.774 1.132"></path></defs><g fill="none" fill-rule="evenodd"><g transform="translate(-135 -609)"><use fill="#000" fill-rule="nonzero" xlink:href="#a86q5qyaia"></use></g></g></svg> 