<?xml version="1.0" encoding="UTF-8"?>
<svg width="210px" height="41px" viewBox="0 0 210 41" version="1.1" xmlns="http://www.w3.org/2000/svg" xmlns:xlink="http://www.w3.org/1999/xlink">
    <!-- Generator: Sketch 58 (84663) - https://sketch.com -->
    <title>Xperience-Logo</title>
    <desc>Created with Sketch.</desc>
    <g id="Homepage" stroke="none" stroke-width="1" fill="none" fill-rule="evenodd">
        <g transform="translate(-255.000000, -25.000000)" id="Group-12">
            <g>
                <g id="Xperience-Logo" transform="translate(255.000000, 25.000000)">
                    <g id="Group">
                        <path d="M20.0956938,22.6073286 L32.6556114,35.1672462 L27.63147,40.1913876 L20.0956938,32.6556114 L12.5599176,40.1913876 L7.53577619,35.1672462 L20.0956938,22.6073286 Z M22.6073286,20.0956938 L35.1672462,32.6556114 L40.1913876,27.63147 L32.6556114,20.0956938 L40.1913876,12.5599176 L35.1672462,7.53577619 L22.6073286,20.0956938 Z M20.0956938,7.53577619 L12.5599176,0 L7.53577619,5.0232696 L20.0956938,17.5831872 L32.6556114,5.0232696 L27.63147,0 L20.0956938,7.53577619 Z M7.53577619,20.0956938 L0,27.63147 L5.02414139,32.6556114 L17.584059,20.0956938 L5.02414139,7.53577619 L0,12.5599176 L7.53577619,20.0956938 Z" id="Fill-3" fill="#EA5B1B"></path>
                        <path d="M137.323668,10.3879164 C137.323668,12.2407777 135.82571,13.74234 133.977296,13.74234 C132.130629,13.74234 130.632671,12.2407777 130.632671,10.3879164 C130.632671,8.53505513 132.130629,7.03349282 133.977296,7.03349282 C135.82571,7.03349282 137.323668,8.53505513 137.323668,10.3879164 L137.323668,10.3879164 Z M91.6298168,24.0815689 C91.6298168,23.5533063 91.5651442,23.0303001 91.4401686,22.5239389 C91.316941,22.0315947 91.1255449,21.5961942 90.8712241,21.2291262 C90.6230209,20.8734469 90.29354,20.5825958 89.8932687,20.3653336 C89.4938713,20.1498235 88.9904734,20.0394403 88.3944362,20.0394403 C87.8656936,20.0394403 87.393758,20.1393108 86.9926128,20.3346716 C86.5879717,20.5317845 86.2462554,20.7972299 85.9735815,21.1239993 C85.6982857,21.456025 85.4859147,21.837986 85.3425861,22.2593696 C85.1975096,22.6833814 85.1232235,23.1249143 85.1232235,23.5725796 L85.1232235,27.9379734 C85.7419835,28.3015372 86.6465267,28.4863853 87.8150042,28.4863853 C89.0097004,28.4863853 89.9203613,28.100044 90.601172,27.3072121 C91.2837307,26.5099999 91.6298168,25.4254409 91.6298168,24.0815689 L91.6298168,24.0815689 Z M95.5259072,17.7327813 C96.1743817,18.5720442 96.6681661,19.547096 96.9915294,20.631655 C97.3131447,21.7109577 97.4765743,22.8349393 97.4765743,23.9729378 C97.4765743,25.5831312 97.1977827,27.0084765 96.6498131,28.206923 C96.1018434,29.4044934 95.3817047,30.4049509 94.5077499,31.1802616 C93.635543,31.9555724 92.6366127,32.5381505 91.5389255,32.9131031 C90.4491039,33.2863035 89.3540386,33.4737798 88.2860658,33.4737798 C87.4400776,33.4737798 86.7295524,33.3975628 86.1745911,33.2451288 C85.8022864,33.1443822 85.4500826,33.0410074 85.1232235,32.9385087 L85.1232235,40.1913876 L79.3131721,40.1913876 L79.3131721,15.269308 L84.8986171,15.269308 L84.938819,15.5373815 C84.9877605,15.8606467 85.0253406,16.1795316 85.0506852,16.4852756 L85.0664164,16.6841406 C85.5628227,16.2075654 86.1501204,15.8203481 86.8213176,15.5303731 C87.7258608,15.1405276 88.6828413,14.9416625 89.6625446,14.9416625 C90.9385186,14.9416625 92.0842733,15.1983473 93.0665985,15.7029564 C94.0445539,16.2066894 94.8713151,16.889138 95.5259072,17.7327813 L95.5259072,17.7327813 Z M110.69951,21.9860397 C110.67067,21.7635211 110.612115,21.5366223 110.523845,21.3079713 C110.3945,20.9724414 110.196112,20.6579368 109.933926,20.3732181 C109.673487,20.0911277 109.341384,19.851964 108.944609,19.6644877 C108.554825,19.4796396 108.075898,19.3859015 107.521811,19.3859015 C106.965101,19.3859015 106.472191,19.4805157 106.056188,19.6671159 C105.63669,19.8563443 105.28536,20.0946319 105.01356,20.3784745 C104.740012,20.6631931 104.530263,20.9794498 104.389557,21.3167319 C104.294296,21.5418786 104.232245,21.7661493 104.200782,21.9860397 L110.69951,21.9860397 Z M114.048505,17.5435529 C114.785249,18.431875 115.347202,19.5076735 115.72038,20.7402862 C116.089189,21.9615101 116.277089,23.3185229 116.277089,24.771026 L116.277089,25.9580838 L104.204278,25.9580838 C104.301287,26.6571775 104.656987,27.2686656 105.283612,27.8197056 C106.005499,28.4548472 107.026278,28.7763603 108.318857,28.7763603 C109.617554,28.7763603 110.681157,28.5853798 111.480826,28.207799 C112.301469,27.8197056 112.904498,27.4832996 113.274181,27.2047134 L113.543359,27.0032202 L116.0385,30.8596246 L115.765826,31.0304558 C115.581421,31.1460954 115.294764,31.3440844 114.91372,31.6174143 C114.509953,31.9091413 113.984706,32.194736 113.351089,32.4680659 C112.726211,32.7387677 111.971988,32.9831877 111.109395,33.1925654 C110.242432,33.4045712 109.241754,33.5105742 108.137949,33.5105742 C106.657469,33.5105742 105.302839,33.2775429 104.111639,32.8184889 C102.917817,32.3568067 101.888298,31.7041439 101.051923,30.8780218 C100.213801,30.0510237 99.5679481,29.0418056 99.1309707,27.8775254 C98.6974891,26.7228818 98.4763786,25.4333254 98.4763786,24.0447745 C98.4763786,22.8279308 98.6843798,21.6373689 99.0933906,20.5055028 C99.5041494,19.3701325 100.104556,18.3635426 100.878006,17.514643 C101.650582,16.6639913 102.611933,15.971906 103.732343,15.4611646 C104.855374,14.9477949 106.143584,14.6876059 107.558517,14.6876059 C108.973449,14.6876059 110.237188,14.9416625 111.313026,15.4436434 C112.388865,15.9465003 113.309139,16.6526026 114.048505,17.5435529 L114.048505,17.5435529 Z M130.995362,32.9297482 L136.841245,32.9297482 L136.841245,15.2684319 L130.995362,15.2684319 L130.995362,32.9297482 Z M150.322872,21.9860397 C150.294031,21.7635211 150.234602,21.5366223 150.147207,21.3079713 C150.017862,20.9724414 149.8186,20.6579368 149.557287,20.3732181 C149.296849,20.0902516 148.962998,19.851964 148.567971,19.6644877 C148.177313,19.4796396 147.69926,19.3859015 147.144298,19.3859015 C146.587589,19.3859015 146.094679,19.4805157 145.678676,19.6671159 C145.260052,19.8563443 144.909596,20.0946319 144.636922,20.3784745 C144.3625,20.6631931 144.153625,20.9794498 144.012044,21.3167319 C143.917657,21.5418786 143.854733,21.7661493 143.82327,21.9860397 L150.322872,21.9860397 Z M153.671867,17.5435529 C154.40861,18.431875 154.970563,19.5076735 155.342868,20.7402862 C155.712551,21.9615101 155.899577,23.3185229 155.899577,24.771026 L155.899577,25.9580838 L143.826766,25.9580838 C143.923775,26.6571775 144.279475,27.2686656 144.906974,27.8197056 C145.628861,28.4548472 146.64964,28.7763603 147.941345,28.7763603 C149.240042,28.7763603 150.304519,28.5853798 151.103313,28.207799 C151.925705,27.8197056 152.52786,27.4815475 152.896669,27.2055894 L153.165847,27.0032202 L155.660988,30.8596246 L155.389188,31.0304558 C155.203035,31.1469715 154.916378,31.3440844 154.537082,31.6174143 C154.132441,31.9091413 153.607194,32.194736 152.973577,32.4680659 C152.350447,32.7387677 151.596224,32.9831877 150.732757,33.1925654 C149.865794,33.4045712 148.865989,33.5105742 147.760436,33.5105742 C146.279957,33.5105742 144.926201,33.2775429 143.735001,32.8184889 C142.540305,32.3568067 141.510786,31.7041439 140.675285,30.8780218 C139.837162,30.0510237 139.190436,29.0418056 138.754332,27.8775254 C138.319977,26.7228818 138.09974,25.4333254 138.09974,24.0447745 C138.09974,22.8270548 138.306868,21.6373689 138.715878,20.5055028 C139.126637,19.3701325 139.727044,18.3635426 140.500494,17.514643 C141.274818,16.6639913 142.23442,15.971906 143.35483,15.4611646 C144.478736,14.9477949 145.766072,14.6876059 147.181004,14.6876059 C148.595937,14.6876059 149.86055,14.9416625 150.935514,15.4436434 C152.012226,15.9465003 152.932501,16.6526026 153.671867,17.5435529 L153.671867,17.5435529 Z M168.044927,14.8698258 C167.015408,14.8698258 166.01473,15.086212 165.070859,15.5146041 C164.374317,15.8317368 163.770414,16.2285908 163.268764,16.7007857 L163.156024,15.269308 L157.551352,15.269308 L157.551352,32.9306242 L163.360529,32.9306242 L163.360529,23.4639485 C163.360529,22.9917536 163.429572,22.5423361 163.563287,22.127085 C163.69438,21.7223465 163.892768,21.3605348 164.154954,21.0547908 C164.414519,20.7516749 164.744874,20.5037507 165.136405,20.3180265 C165.527063,20.1340545 165.993755,20.0394403 166.523372,20.0394403 C167.278469,20.0394403 167.844791,20.2768518 168.257298,20.7630637 C168.676796,21.2597882 168.889167,21.9483693 168.889167,22.8104097 L168.889167,32.9306242 L174.735051,32.9306242 L174.735051,22.0841581 C174.735051,19.7336963 174.12503,17.9246378 172.923342,16.7060421 C171.720781,15.4865702 170.07862,14.8698258 168.044927,14.8698258 L168.044927,14.8698258 Z M188.991875,26.740403 C188.653655,27.1258682 188.192206,27.4885559 187.62064,27.8205817 C187.069175,28.1412187 186.367389,28.3041653 185.533636,28.3041653 C184.960322,28.3041653 184.44294,28.1823934 183.997223,27.9423537 C183.540145,27.6970576 183.145992,27.3746685 182.823502,26.984823 C182.500139,26.5941014 182.251062,26.1403037 182.082389,25.6339425 C181.912841,25.1232011 181.827194,24.6010709 181.827194,24.0815689 C181.827194,23.5130077 181.912841,22.9663479 182.082389,22.4564825 C182.250188,21.9527495 182.498391,21.5059603 182.82088,21.1275035 C183.142496,20.7490467 183.535775,20.4389224 183.99198,20.2050151 C184.440319,19.9754881 184.959448,19.8580964 185.533636,19.8580964 C186.38749,19.8580964 187.075292,20.0131586 187.579564,20.3197786 C188.105685,20.6412917 188.556646,21.01274 188.920211,21.4227348 L189.150935,21.6829239 L192.735023,17.8011137 L192.540131,17.5864797 C191.740463,16.7104223 190.742406,16.0016919 189.573929,15.4778096 C188.40283,14.9539273 187.00625,14.688482 185.424392,14.688482 C184.060148,14.688482 182.781552,14.9346541 181.626184,15.4208659 C180.469942,15.9070777 179.460524,16.583394 178.625897,17.4322936 C177.791271,18.2811932 177.128813,19.286031 176.658625,20.4196492 C176.184942,21.5541434 175.944604,22.7858801 175.944604,24.0815689 C175.944604,25.4482184 176.178824,26.7228818 176.638524,27.8670127 C177.09735,29.0137718 177.748447,30.0194856 178.570838,30.8569965 C179.395852,31.6953834 180.4009,32.3550545 181.55889,32.8176128 C182.715132,33.2775429 184.015577,33.5105742 185.424392,33.5105742 C187.034216,33.5105742 188.451771,33.2188471 189.636854,32.6441535 C190.814071,32.0729641 191.779791,31.3764985 192.504299,30.574906 L192.693947,30.3646522 L189.226095,26.4740815 L188.991875,26.740403 Z M204.423295,21.9860397 C204.394454,21.7635211 204.335899,21.5366223 204.24763,21.3079713 C204.118284,20.9724414 203.919897,20.6579368 203.65771,20.3732181 C203.397272,20.0902516 203.064295,19.851964 202.668393,19.6644877 C202.27861,19.4796396 201.799682,19.3859015 201.245595,19.3859015 C200.688886,19.3859015 200.195975,19.4805157 199.780847,19.6671159 C199.360475,19.8554682 199.010019,20.0946319 198.737345,20.3784745 C198.464671,20.6631931 198.254048,20.9794498 198.112467,21.3167319 C198.018954,21.5418786 197.955155,21.7661493 197.923693,21.9860397 L204.423295,21.9860397 Z M210,25.9580838 L197.927189,25.9580838 C198.025072,26.6571775 198.379897,27.2686656 199.008271,27.8197056 C199.729283,28.4548472 200.750063,28.7763603 202.041768,28.7763603 C203.340465,28.7763603 204.404942,28.5853798 205.203736,28.207799 C206.026128,27.8188296 206.629156,27.4815475 206.997091,27.2055894 L207.266269,27.0032202 L209.76141,30.8596246 L209.490484,31.0295798 C209.305206,31.1460954 209.017675,31.3440844 208.637504,31.6174143 C208.233737,31.9091413 207.707617,32.194736 207.074873,32.4680659 C206.45087,32.7387677 205.695773,32.9831877 204.833179,33.1925654 C203.966216,33.4045712 202.966412,33.5105742 201.860859,33.5105742 C200.38038,33.5105742 199.026624,33.2775429 197.836297,32.8184889 C196.640727,32.3568067 195.611209,31.7041439 194.775708,30.8780218 C193.937585,30.0510237 193.290859,29.0418056 192.854755,27.8775254 C192.4204,26.7228818 192.201037,25.4333254 192.201037,24.0447745 C192.201037,22.8279308 192.408164,21.6373689 192.816301,20.5055028 C193.227934,19.3701325 193.827467,18.3635426 194.600917,17.514643 C195.375241,16.6639913 196.334843,15.971906 197.456127,15.4611646 C198.580033,14.9477949 199.866494,14.6876059 201.281427,14.6876059 C202.697234,14.6876059 203.960972,14.9416625 205.036811,15.4436434 C206.112649,15.9465003 207.032924,16.6526026 207.772289,17.5435529 C208.509033,18.431875 209.070986,19.5076735 209.443291,20.7402862 C209.812974,21.9615101 210,23.3185229 210,24.771026 L210,25.9580838 Z M129.356697,15.2719362 C129.248326,15.2482826 129.139956,15.2211248 129.030712,15.2053558 C128.691617,15.1545445 128.279984,15.1291388 127.808049,15.1291388 C126.541688,15.1291388 125.487699,15.4164856 124.674921,15.9850469 C124.1488,16.353867 123.692596,16.7384562 123.313299,17.1353102 L123.170845,15.2684319 L117.567921,15.2684319 L117.567921,32.9297482 L123.413804,32.9297482 L123.413804,24.3776763 C123.413804,23.1179058 123.766008,22.1367216 124.459054,21.4630335 C125.16521,20.7779566 126.071501,20.4450548 127.228617,20.4450548 C127.915545,20.4450548 128.516826,20.5247761 129.016728,20.6842185 L129.356697,20.7919735 L129.356697,15.2719362 Z M77.8720207,32.9306242 L69.2023893,19.744209 L76.8888216,8.05322358 L69.6096522,8.05322358 L65.5632416,14.2084025 L61.515957,8.05322358 L54.2367876,8.05322358 L61.9232199,19.744209 L53.2535885,32.9306242 L60.5327579,32.9306242 L65.5632416,25.2800154 L70.5928513,32.9306242 L77.8720207,32.9306242 Z" id="Fill-4" fill="#FFFFFF"></path>
                    </g>
                </g>
            </g>
        </g>
    </g>
</svg>