<svg xmlns="http://www.w3.org/2000/svg" viewBox="0 0 903.82 216.65"><defs><style>.cls-1{fill:#425a5f;}.cls-2{fill:#425a5f;}</style></defs><title>Interact Logo</title><g id="Layer_2" data-name="Layer 2"><g id="Layer_1-2" data-name="Layer 1"><path class="cls-1" d="M318.07,81.19c11.59-11.73,24.68-15.87,39.81-14.41,14.24,1.38,24.84,11.26,25.19,25.63.59,23.8.23,47.62.37,71.43,0,2.77-1.18,3.34-3.6,3.29-5.83-.11-11.67-.25-17.48,0-3.66.19-4.39-1.24-4.36-4.59.15-16.65.07-33.3.07-50,0-1.17,0-2.33,0-3.5-.12-11.08-3.53-16.83-11.22-18.91-9.65-2.61-23.82,2.39-28.12,9.85-.91,1.58-.64,3.23-.64,4.86,0,19.15-.11,38.3.06,57.45,0,3.67-.86,5-4.7,4.8-5.81-.32-11.65-.2-17.48,0-2.82.08-3.72-.86-3.72-3.7q.13-45.46,0-90.91c0-2.8.8-3.8,3.66-3.71,6,.18,12,.23,18,0,3.26-.13,4.56.84,4.22,4.17C317.88,75.29,318.07,77.63,318.07,81.19Z"/><path class="cls-1" d="M793.57,66.5c14.56,0,26.54,3.84,36.25,13.73,2.66,2.72,2.8,4.62-.29,7.18-4,3.29-7.5,7.08-11.21,10.67-1.13,1.09-1.82,1.88-3.56.25-9.7-9.12-20.56-11.22-30.85-6.3-9.66,4.62-15.45,15.43-14.54,27.92.75,10.35,4.57,19.16,14.51,23.93,8.91,4.27,17.73,3.87,26-1.74,2.3-1.55,4.44-5.11,6.42-4.95,3.32.28,5.3,4.14,7.92,6.41,1.51,1.31,2.9,2.74,4.35,4.12,4.68,4.47,4.83,4.63-.08,9.18-14.63,13.55-32,15.56-50.3,10.38s-29.74-17.94-33.86-36.47c-5.71-25.68,5.07-49.18,26.51-59.37A51.73,51.73,0,0,1,793.57,66.5Z"/><path class="cls-1" d="M855.27,120.54c0-8.33-.11-16.65.06-25,.06-3-.81-4.41-3.91-4a6.58,6.58,0,0,1-1,0c-11.21-.1-11.21-.1-11.21-11.57,0-11.11,0-11.33,11-11.06,4.29.1,5.35-1.26,5.12-5.32-.35-6,0-12-.13-18-.06-2.63.45-3.94,3.51-3.84,6.32.21,12.66.21,19,0,3.09-.11,3.54,1.26,3.48,3.87-.14,6.49.07,13-.1,19.48-.07,2.75.67,3.9,3.61,3.74,4.15-.22,8.33.07,12.48-.1,2.68-.11,4,.55,3.84,3.56-.21,5.15-.17,10.33,0,15.48.09,2.83-1,3.87-3.78,3.77-4.16-.15-8.33,0-12.49-.07-2.36-.06-3.67.4-3.65,3.23.12,14-.11,28,.17,42,.17,8.26,6.08,11.9,14.29,8.64,3.39-1.35,3.83-.11,4.46,2.42a93,93,0,0,0,3.22,11.51c1.5,3.81-.1,5.46-3.27,6.84-10.25,4.44-20.68,5.07-31,.85-9.92-4-13.21-12.63-13.59-22.52-.31-8-.06-16-.06-24Z"/><path class="cls-1" d="M410,121.15c0-8.32-.13-16.65.06-25,.08-3.34-.75-4.64-4.39-4.65-11.73,0-11.73-.18-11.73-12.05,0-10.56,0-10.8,10.68-10.47,4.47.14,5.77-1.14,5.47-5.54-.4-5.8.09-11.65-.17-17.47-.15-3.38,1.09-4.25,4.27-4.14,6,.22,12,.17,18,0,2.64-.07,3.46.9,3.41,3.46-.13,6.49.12,13-.11,19.47-.12,3.36,1.06,4.34,4.29,4.14,4.15-.26,8.32,0,12.48-.1,2.41-.08,3.18.83,3.13,3.18q-.18,8.24,0,16.48c.06,2.45-1,3.2-3.25,3.14-4-.11-8,.14-12-.08-3.3-.19-4.74.65-4.68,4.35.21,12.65,0,25.3.12,38,.14,11.16,4.92,14.55,15.59,11.14,2-.65,2.59-.22,3.06,1.61q1.81,7,3.87,13.92c.69,2.33-.2,3.68-2.12,4.94-9.39,6.12-28.14,5.66-37.1-1.09-5.87-4.42-8.44-10.67-8.66-17.77-.26-8.48-.06-17-.06-25.47Z"/><path class="cls-1" d="M602.07,81.49c7-6.88,13.73-11.82,22.22-13.88,1-.24,1.94-.45,2.91-.69,4.5-1.13,6.31.32,5.92,5.21a155.15,155.15,0,0,0-.06,16c.06,2.6-.65,3.4-3.44,3.13-8.83-.86-16.72,1.89-23.86,7a8.43,8.43,0,0,0-3.77,7.58c.16,18.48-.12,37,.2,55.45.09,5-1.47,6.26-6.16,5.9a153.69,153.69,0,0,0-16-.05c-2.65.07-3.86-.52-3.85-3.55q.15-45.71,0-91.43c0-2.73,1-3.38,3.51-3.32,6,.13,12,.25,18,0,3.57-.17,4.78,1,4.4,4.5C601.87,75.6,602.07,77.94,602.07,81.49Z"/><path class="cls-2" d="M245.57,118c0-15,.08-30-.06-44.94,0-3.25.9-4.35,4.23-4.21,6,.26,12,.15,18,0,2.35,0,3.62.34,3.62,3.2q-.13,45.94,0,91.87c0,2.84-1.28,3.25-3.64,3.22-6-.1-12-.23-18,0-3.41.15-4.23-1.12-4.2-4.29C245.64,147.91,245.57,132.93,245.57,118Z"/><path class="cls-1" d="M273.55,42.76c0,8.76-6.33,15.29-14.92,15.38A15.11,15.11,0,0,1,243.17,42.7a15,15,0,0,1,15.28-15A14.64,14.64,0,0,1,273.55,42.76Z"/><path class="cls-1" d="M203,94.49c-10.35-73-86.55-115-153.56-84.37C32.32,18,17.1,28.87,7.91,46.11c-10,18.81-11.36,37.93.85,56.32,15.18,22.85,38.55,34.37,63.51,44.83v-6.14c0-17,.14-34-.1-51-.06-4.23.78-5.77,5.4-5.65,13.32.34,26.65.32,40,0,4.47-.1,5.54,1.22,5.52,5.58-.17,40.14-.11,80.29-.08,120.44,0,2-.44,4,.6,6.13,1.57-.45,3.16-.84,4.73-1.35C179,198.84,210.58,147.74,203,94.49ZM97.63,74.55c-15.53,0-28.44-13.12-28.4-28.86S82.21,16.91,97.76,17C113,17.09,125.95,30.18,126,45.58,126.07,61.24,113,74.56,97.63,74.55Z"/><path class="cls-1" d="M728,100c-.21-11-4.63-20.43-14.23-26.65-7.94-5.14-16.9-6.66-26.21-6.88-15-.35-28.6,3.49-40.77,12.38-2.68,2-3.81,3.67-1.52,6.83a59.9,59.9,0,0,1,5.4,9.55c1.43,3,2.46,3.94,5.57,1.31,8.42-7.12,18.41-9.73,29.35-8.67s16.8,7.38,16.87,18.3c0,3,0,6,0,10.22-11.49-9.89-24-12.66-37.56-10.47-12.2,2-21.66,8.19-25.26,20.54-3.69,12.67-1.73,24.5,8.31,34,12.88,12.17,36.29,12.32,50.7.53,1-.86,1.7-2.53,3.82-2.2a17.41,17.41,0,0,1,0,3c-.82,4.62,1.34,5.67,5.57,5.4,5.48-.35,11-.21,16.49,0,2.76.09,3.77-.71,3.75-3.63C728.16,142.36,728.45,121.2,728,100Zm-33.38,49.53c-7.14,2.94-14.48,3.66-21.8.67C667.3,148,664,143.92,664,137.66s3-10.63,9-13c7.18-2.9,14.35-2.17,21.35.59s8.14,4.79,8.14,13.14C704.13,144.32,699.92,147.41,694.67,149.58Z"/><path class="cls-1" d="M493.73,126.07c10.66.24,21.32.08,32,.08H549.2c12.85,0,12.85,0,12-13.09-2.09-31.93-29.39-52.43-60.31-45.28C474.06,74,457.66,101,463.59,129.4c3.88,18.62,14.52,31.76,32.87,37.39,19.93,6.12,38.8,3.14,56-9,1.82-1.28,1.72-2.48.56-4.13-2.69-3.81-5.39-7.62-7.83-11.58-1.43-2.33-2.59-2.33-4.64-.74-5.1,4-11.12,6-17.37,7.17-14.83,2.86-29.18-5-32.9-17.81C489.34,127.45,489.72,126,493.73,126.07Zm-4.24-20.5a23.41,23.41,0,0,1,22-18.56c11.79-.57,20.87,5.43,24.21,16,1.62,5.13,1.18,5.77-4.1,5.79-6.33,0-12.65,0-19,0-6.82,0-13.65-.07-20.47,0C489.58,108.88,489,108,489.49,105.57Z"/></g></g></svg>