<?xml version="1.0" encoding="UTF-8"?> <svg xmlns="http://www.w3.org/2000/svg" xmlns:xlink="http://www.w3.org/1999/xlink" height="77" viewBox="0 0 110 77" width="110"><mask id="a" fill="#fff"><path d="m.15462225.01547144h32.10216405v38.51882646h-32.10216405z" fill="#fff" fill-rule="evenodd"></path></mask><mask id="b" fill="#fff"><path d="m.00453024.0267523h21.51362186v31.1506809h-21.51362186z" fill="#fff" fill-rule="evenodd"></path></mask><g fill="none" fill-rule="evenodd"><path d="m16.1775574 30.9714405c-2.3936 0-3.9890239-1.7748189-4.6837843-4.6144916-.4270307-1.9315911-.4756751-3.9733718-.4756751-5.9530422 0-3.6461706.2096164-8.4252918 1.5956096-10.78192646 1.0064928-1.66238437 2.5543863-2.30668459 3.7803358-2.30668459 2.5543864 0 3.8869079 2.08742795 4.414198 4.39504795.534531 2.3094908.642774 6.3307548.642774 7.9933262 0 5.2586048-.7985474 11.2677707-5.273458 11.2677707m.3518362-30.95596906c-5.8978512 0-10.09055019 2.47355909-12.74835223 6.34254076-2.46693789 3.58013162-3.62641912 8.3474668-3.62641912 13.4550989 0 4.9495502 1.13553038 9.0308665 3.11973789 12.1012078 2.77198634 4.2878516 7.19918086 6.619979 12.53557956 6.619979 12.1885706 0 16.4469952-10.622348 16.4469952-19.7929627 0-7.569218-3.0393447-18.56123421-15.4395741-18.72343174-.0984027-.00243202-.1938348-.00243202-.2879672-.00243202" fill="#fefefe" mask="url(#a)" transform="translate(76.494198 37.389056)"></path><path d="m41.7657578 68.2304205c-2.3943426 0-3.9925515-1.7750059-4.6835986-4.6146787-.4264737-1.9315911-.4758608-3.9662628-.4758608-5.9524809 0-3.6489768.2086881-8.4219244 1.5928246-10.7819265 1.0128055-1.6653776 2.556243-2.3064975 3.7803358-2.3064975 2.556243 0 3.8856082 2.0907954 4.4162403 4.3972929.5345311 2.3064975.6409174 6.3296323.6409174 7.9916425 0 5.261411-.7950198 11.2666482-5.2708587 11.2666482m12.9399591-24.475551c-2.3171058-3.6594532-6.1590826-6.3973549-12.301084-6.4781731-5.1043167-.0705288-8.9462935 1.6934395-11.6492123 4.6042023l-.4118061 3.9262279h-2.2573215c-.8351236 1.6999872-1.4372369 3.5844344-1.8241639 5.5897347 3.6707932 2.1216634 6.0008956 5.7919671 6.0008956 10.3918666 0 2.9764275-1.0183754 5.9837231-2.7610321 8.3010712 2.7888819 3.7036038 6.9539168 5.7008597 11.8922485 5.7008597 6.1102526 0 10.2234867-2.6655022 12.8137065-6.4766765-1.9910772-3.0778243-3.1238225-7.1542767-3.1238225-12.1094393 0-5.110064 1.1624518-9.8732835 3.6215918-13.4496735" fill="#ffdc00"></path><path d="m66.7344109 75.9273387c-5.3313856 0-9.7604368-2.3295082-12.5264819-6.6147407 2.5733242-3.79864 3.6342171-8.7375267 3.6342171-13.3131059 0-3.8218377-.769955-8.5128447-3.1364478-12.246007 2.6656-3.8682334 6.853286-6.3449728 12.7528082-6.3449728.0945037 0 .1929065 0 .2881529.002432 6.199929.0791345 10.0576874 2.8666122 12.3668095 6.5782604-2.3557242 3.5498248-3.4654471 8.2195048-3.4654471 13.2115219 0 4.8999743 1.1126936 8.9468681 3.0599536 12.004488-2.5792655 3.9425037-6.7392873 6.7221241-12.9735645 6.7221241m.5850321-31.2188151c-1.2248355 0-2.7649311.6441131-3.7782935 2.3064975-1.3869215 2.3588797-1.5956096 7.1301435-1.5956096 10.7817394 0 1.9852828.0545857 4.021451.4788314 5.9532292.6916041 2.8450981 2.2890703 4.612995 4.6863836 4.612995 4.470269 0 5.2708588-6.0050501 5.2708588-11.2664611 0-1.6623844-.1091714-5.6836484-.6407318-7.9901459-.5308177-2.3081812-1.8650102-4.3978541-4.4214389-4.3978541" fill="#0075be"></path><path d="m79.7079754 69.206917c-1.94726-3.0594906-3.0599536-7.1061974-3.0599536-12.004675 0-4.9935138 1.1097229-9.6616972 3.4654471-13.2156377 2.3137639 3.7185701 3.0727645 8.3628073 3.0727645 12.1453585 0 4.4818526-1.0172614 9.3083048-3.478258 13.0749542" fill="#0075be"></path><path d="m54.7056797 43.7533916c-2.4600682 3.57639-3.6195495 8.3427898-3.6195495 13.4528539 0 4.9523564 1.1325598 9.0308666 3.1197379 12.1062589 2.5781516-3.7986399 3.6373734-8.7375266 3.6373734-13.3157249 0-3.8165996-.7740396-8.5102257-3.1375618-12.2433879" fill="#6aa326"></path><path d="m26.2620549 51.3982456c-2.2304-1.2872908-4.953185-1.9970687-7.9472273-1.9970687-1.9712109 0-4.3672246.3758418-5.9632055 1.0205162-.3726307.1592042-.7461897.3724743-1.1182635.5892989l.5330458-5.2039777h16.3224136c.7162976-1.4590294 1.6030362-2.7809299 2.6656-3.9286599l.3895263-3.7415808h-27.1504273l-2.02338294 19.954786 9.10225254 1.1254675c.6394321-.9660761 1.4918225-2.3590667 4.4734253-2.3590667 3.7784792 0 5.5887181 2.414068 5.5887181 5.7386496 0 2.8972931-1.5434376 5.7382755-5.4277461 5.7382755-2.1841693 0-3.9403795-1.0165875-4.5796259-3.1103762-.2673584-.8585057-.2673584-1.7693936-.2673584-2.6829005l-10.85976247 1.1277124c.5876314 2.7859811 1.11826348 5.3635562 3.46043413 7.8320641 4.15148123 4.2382757 10.22292974 4.2382757 12.19154134 4.2382757 3.0870607 0 8.7866211-.2692067 12.7769447-4.3974799.3841419-.3874407.7408054-.8063107 1.0731467-1.2513717-2.3800464-3.1599521-3.7595413-7.559677-3.7595413-13.019766 0-1.9557243.1713693-3.8616855.5194922-5.6727978" fill="#dc2515"></path><path d="m30.3460653 45.8070704.4084641-3.9260407c-1.0627495 1.1436142-1.9493024 2.4670113-2.6657856 3.9260407z" fill="#ef7d26"></path><path d="m26.2620549 51.3982456c-.3481229 1.8111123-.5194922 3.7170735-.5194922 5.6727978 0 5.460089 1.3794949 9.8598139 3.7595413 13.019766 1.745256-2.316974 2.7610321-5.3242696 2.7610321-8.30051 0-4.6042024-2.3317734-8.2741319-6.0010812-10.3920538" fill="#ef7d26"></path><g fill="#fefefe"><path d="m.00453024 31.1774332v-6.7874147h4.03469761v-17.05880242h-4.03469761v-7.30450119h21.51362186v7.30450119h-4.0343263v17.05319002h4.0343263v6.7930271z" mask="url(#b)" transform="translate(9.654608 .160327)"></path><path d="m50.5914059 31.33776v-6.790408h3.1197379v-7.1088165c0-2.1420551-1.5152164-3.1019576-3.4654471-3.1019576-2.4739932 0-4.3367755 1.8350583-4.3367755 4.3237708v5.8870033h3.210157v6.790408h-16.8320655v-6.790408h3.039159v-10.2433259h-3.039159v-6.79807819h13.273043v4.68876199c.2176-.1756672.4352-.4370166.6071263-.6568345 2.4292478-2.79795413 5.2060614-3.80107196 8.8486334-3.80107196 5.1154567 0 9.2814198 2.09734314 9.2814198 7.82401966v8.9839098h2.7313256v6.7930271z"></path><path d="m93.7924511 17.5591266-9.0820151 1.0061111c-.1123276-2.5397851-.6288491-5.2253047-3.7029133-5.2253047-3.9036177 0-4.2056955 3.2776248-4.2056955 6.4256039v.0026191.0630456c0 3.1462953.3020778 6.4239201 4.2056955 6.4239201 2.0506758 0 3.8579441-1.1821524 3.8579441-3.6860183l.2970648.002432 8.7481884.0056124-.0737092.7862932c-1.4942362 7.4102008-8.1301079 8.5699038-12.9160082 8.5699038-7.5012587 0-14.8771932-3.7140802-14.8771932-12.1492871v.0239461c0-8.4346457 7.3759345-12.14928715 14.8771932-12.14928715 0 0 11.7645106-.76889486 12.8714485 9.90040995"></path><path d="m100.827615 27.5911654c0 2.1323269-1.7148068 3.860189-3.8312082 3.860189-2.1151017 0-3.8299085-1.7278621-3.8299085-3.860189 0-2.1313915 1.7148068-3.8624339 3.8299085-3.8624339 2.1164014 0 3.8312082 1.7310424 3.8312082 3.8624339"></path></g></g></svg> 