<?xml version="1.0" encoding="UTF-8"?> <svg xmlns="http://www.w3.org/2000/svg" xmlns:xlink="http://www.w3.org/1999/xlink" height="92" viewBox="0 0 142 92" width="142"><mask id="a" fill="#fff"><path d="m0 .3238712h48.1744159v48.7967129h-48.1744159z" fill="#fff" fill-rule="evenodd"></path></mask><mask id="b" fill="#fff"><path d="m.43857344.11823172h96.80476156v67.24079268h-96.80476156z" fill="#fff" fill-rule="evenodd"></path></mask><g fill="#fefefe" fill-rule="evenodd" transform="translate(0 .256574)"><path d="m29.3776735 41.0053761c-1.7151795.9533892-4.0634651 2.259118-5.8334725 2.259118-1.4244886-.0010363-2.2241471-.8404334-2.514838-2.6435826-.5172435-3.1907452-.9693143-6.3472927-1.3448331-9.3815577-.1800008-1.4508097-.3175876-2.7751918-.4210363-4.0498318-.0848279-1.044583-.159311-2.0943475-.233794-3.1430757-.3082772-4.3565744-.6279337-8.8613387-1.7296624-13.1847518-.4137948-1.62490693-.9858661-2.77104664-1.9769047-3.95449288-.0693107-.08393971-.1137936-.14715356-.1406903-.19378673.042414-.00621776.1013798-.01036293.1810353-.01036293.59483 0 1.5579375.24352878 2.075181.37410166.1386213.03419766.2462079.06217756.3103461.07564937 2.1889746.46218653 3.9858786.89950204 5.6576097 1.37826926 2.8324255.80934459 5.6793338 1.99589975 8.1258957 3.04566415 4.0107063 1.7192096 9.5576258 4.6343009 11.420737 10.0769101 1.5755238 4.6032121-.5131056 9.3359608-6.2079568 14.0666369-2.472424 2.0539321-4.5558809 3.7306536-6.981753 5.0705801zm15.9879973-5.448827c3.876223-6.7928985 3.7313948-14.9236509-.3786223-21.2170564-3.9962234-6.11930825-11.4755648-8.4924185-18.0755921-10.58572971l-.9465557-.30156118c-3.710705-1.18448253-7.6707214-2.38450946-11.7000485-2.89022029-2.8789774-.36270244-5.87692088-.3108878-8.92141626.15440761-.3268979.04870576-.66827863.07772195-1.0303491.10881073-1.13897023.09637522-2.43001007.20622225-3.37035879 1.0632363-.71793401.65597326-1.05724577 1.54614868-.90827963 2.38243687.1034487.58239649.43758802 1.08707103.96310744 1.45806381 1.02310769.722296 2.38449264.80623571 3.31966893.80623571.56793339 0 1.1265564-.03523395 1.66655863-.06839532.35689803-.02176215.70034773-.042488 1.01896974-.05181463.04448295-.0010363.13241435-.00518147.25655279-.01036293.52551942-.02279844 1.62207569-.0704679 2.71966645-.0704679 1.6665586 0 2.2541473.11191961 2.4548378.17824234-.042414.39275492-.1003453.76063883-.1562076 1.1181598-.0848279.53679961-.1717248 1.09225249-.2037939 1.72439103-.0558623 1.16375666.0734485 2.29538826.2224147 3.45085466.0651727.5015656.1365523 1.0052039.2079319 1.5098784.1375868.9741151.2793115 1.9803553.3765533 2.9586156.4168982 4.1876588 1.0427629 8.3846441 1.6489723 12.4438026.2513804 1.681903.5027607 3.3658786.7406927 5.056072.1448282 1.0331838.3817258 2.0580772.6103474 3.0477367.318622 1.3782693.6465544 2.8031717.722072 4.2332556.0589657 1.1741197.0455174 2.3886547-.4551743 3.3192455-.0817245.1533713-.3765533.4228074-.6382786.6611547-.5710368.5222916-1.1120735 1.0145306-1.070694 1.5430398.0124138.1575165.0837934.3813558.3496566.5575255.1448282.0943026.3041392.1316092.4324156.1616617.0527588.0103629.1055176.0217621.155173.0404154 1.4244887.5191826 3.0465644.782401 4.8217441.782401 5.7010582 0 11.5562548-2.6891796 13.8093676-3.8456822 4.0644996-2.0860572 8.591415-4.8716119 11.3586678-9.7183528z" mask="url(#a)" transform="translate(0 .712451)"></path><path d="m62.1276713 9.30435385c.3424152 1.55651165-2.5582865 3.65707685-3.9072576 2.86845815.004138.0010363 3.2710481-5.77318654 3.9072576-2.86845815m33.5328976-1.59381814c-6.7189933-1.6580683-5.4755399 6.51620839-7.262099 10.60645559-.3031047.8818851-.6703476 1.7409717-1.1431082 2.5679333-1.3924196 2.0528958-4.4120873 2.7347764-6.4603716 1.3388901-.8203483-.577215-1.282764-1.349253-1.5558685-2.2321744-.2741391-.8829214-.3589671-1.8756898-.4210363-2.8798574-.2368975-.9824054-.1634489-2.2580817-.1158625-3.108878-.7293134-2.1720695-1.9313873-3.5213226-4.1007067-2.7907362-1.5320753.51711-1.3903506 3.6042259-1.7100071 4.826015-.5110366 1.9606658-1.6738 3.8726258-3.3796691 5.00633-2.2758715 1.5109147-6.2027844.3709927-8.2996896-.9730789-1.2610397-.8083083-3.2048409-2.6943609-3.3279448-4.2964694.796555.0373065 1.8196627-.1886053 2.5365622-.5564892 1.0437974-.5492351 2.3141475-1.2269705 3.1634614-2.0518595 2.3524235-2.2995335 2.034836-5.55971026.760348-8.29034148-3.999327-5.13172137-6.5265788 1.97621015-9.6424538 4.35761073-1.7689729 1.18240995-3.7458776-1.48915258-3.2503583-2.74099415.520347-1.67775785 1.8889733-3.30473736 1.558972-5.03016468-.2141388-1.51816878-1.7317313-1.50884214-2.8748395-1.13577678-2.1072501.68602576-3.3620829 4.27056215-4.4213977 6.02293307-1.5362132 2.53062674-3.073461 5.06954379-4.3582939 7.73799749-.1520696.3108878-1.958284 3.1793459-2.0586292 3.0042125-.6806925-1.1886277-1.8041454-2.1088556-2.599666-3.2280517-.8337965-1.1741197-1.550696-2.432179-2.4931137-3.5275403-1.5506961-1.8041856-2.7889771-4.35450189-4.6593297-5.8260375-1.1431082-.89950205-3.5989804-1.71091922-4.6862263-.2694361-1.1565565 1.53164059-1.2848329 2.44875961-1.0262112 4.36693737.1437937 1.0912162.9062107 1.64356023 1.3562125 2.60420353.6868994 1.4673904 2.0338016 2.5606792 2.6431144 4.1171908.4510364 1.1409583.486209 2.3036786.3827603 3.508887-.1127591 1.3088377-.3113806 2.8922929-1.1937981 3.9316945-3.1169095 3.671585-5.0907108-4.2519089-4.9717447-6.3866718.038276-.7098605.5855196-1.9078149-.0196553-2.4798484-1.318971-1.2425149-2.2944923.8580503-2.7341493 1.6787941-.4468984.8373245-1.1006942 1.572056-1.6924208 2.3088601-.233794.2880894-.4955193.5575255-.7634514.8186712-.2700011.2611458-.5472437.5140012-.8120723.7782558-1.7120761 1.6404514-3.5244974 2.3389126-5.8417484 1.6694676-1.55276505-.4487148-2.64207991-1.7430443-2.32138893-3.4581087.5431057-2.9213091 4.50415663-5.4882061 7.17830563-6.0353686.9858661-.2020771 2.2841474-.0891212 3.0444954-.8704859.5875886-.6041586.3713808-1.35857967-.1531041-1.95444796-1.1793152-1.3451079-3.0269091-.82074381-4.4813979-.30052488-1.8062144.65079181-3.63725646 1.10157912-5.33588419 2.03113364-1.06759063.5844691-2.72897683 1.6435602-3.49966968 2.5896954-1.47517853 1.8072945-2.59242454 3.3845319-3.40242789 5.6053072-.66103723 1.8114396-1.35310906 4.4146068 0 6.0902921.91241757 1.3751603 2.76621836 1.9275043 2.76621836 1.9275043 5.80243784 1.3388902 10.5517679.2269481 14.0286788-4.2332556.2751736.0155444.6682787-.0787582.8989693.0746131 1.478282.9668611 1.8186282 2.0249159 2.7444941 3.4301288 1.5227649 2.311969 5.1579524 3.7949038 7.1607194 1.2134987 1.4203507-1.8280203 1.4844889-4.6830066 2.0420774-6.8592212.1779318.0103629.3103461-.0134719.3300014.0238347.8100033 1.6052173 2.8013909 7.3659684 5.1258833 6.8913463 5.6700235-1.1616841 7.1410641-8.4634023 9.7324541-12.7028757.4913813-.8062357 1.0655217-3.4498183 2.4062169-3.1824548.8317276.1668431 1.6055239 2.3472029 2.0038014 2.9897044.2637942.4290251.5068986.8704858.7313823 1.3202369.2224147.449751.4282777.9098649.6175888 1.3772329.7913826 1.9679198 1.4896613 3.9835091 2.6948387 5.7493518 1.879663 2.7513571 4.9024342 4.3462115 8.1683098 4.7773093 2.8727705.3782468 6.6062342-.4145171 8.7765881-2.5005742.4210362-.3875735.8513828-.7678929 1.3510401-1.0756718 1.0417284-.6466467 2.2944922-2.1254363 3.3031171-1.2269706.9858661.8787762 1.3882816 2.2912431 2.3358717 3.2207977 1.1906946 1.1689381 2.7434597 2.00419 4.598295 2.1078193.5751748.0331614 1.4824199-.2000045 2.111388-.3367951.6289682-.1336818 1.157591-.0145081 1.3375918.9824054.1065521.509856.1644834 1.0259298.1810352 1.5326769-.6444854 4.9607331-.9320728 10.0613657-2.6131143 15.015881-.1800007.5150375-.3744843 1.0259297-.5762093 1.529568-1.4244886 3.5213225-3.4241521 6.7431565-6.144853 9.3390696-.316553.3067427-.639313.6083039-.9672454.9077924-.3300014.2984523-.6610372.5896506-.99828.8767036-.4644847.3896461-.9331073.7637478-1.4100058 1.1191961-2.599666 2.2114486-7.7658943 3.2000719-8.309 5.3006371-.6631062 4.2270379 6.6217516 3.3617335 9.5762466.5419811.5813817-.3554484 1.1544875-.7233323 1.7038002-1.0953614.5472436-.3689202 1.0675906-.7450944 1.552765-1.1109057.4831055-.3668476.9289694-.722296 1.3282814-1.0497645 4.471053-3.0570634 6.8576146-7.6126061 9.1986588-12.2976853.3868982-.8756673.7334513-1.7627338 1.0427629-2.659127.6206923-1.7990041 1.0934529-3.6498228 1.444144-5.5514199.1448281-.6000135.2865529-1.1907003.4282776-1.7782783.8337966-3.533758 1.5289719-7.0043022 1.8206972-10.476919.116897-1.0238572.2720701-2.0269885.4551743-3.0207932.7282789-3.9638195 1.8786285-7.7203804 2.718632-11.7722848.0424139-.3533758.078621-.7026065.1075866-1.0570186.0982763-1.0580548.159311-2.1202548.2193113-3.18349109.0475864-.84976-.3051737-2.15030731-1.5786273-2.2228478" mask="url(#b)" transform="translate(43.448456 22.474598)"></path><path d="m28.9730856 66.0256266 1.1865567-2.8995469 1.1865566 2.8995469zm.3072427-5.2633305-3.8255331 9.0043471h2.0006979l.8172448-2.0031538h3.7738087l.8172448 2.0031538h2.0534568l-3.8265676-9.0043471z"></path><path d="m49.6209298 66.8818116-2.0006979-6.0788929h-1.6831105l-2.0027669 6.0788929-1.8475938-6.0560944h-2.1051812l3.0465644 9.0084923h1.7110415l2.0120774-5.8540174 2.0172497 5.8540174h1.7079381l3.0465644-9.0084923h-2.0513879z"></path><path d="m61.3447715 66.0256266 1.1865567-2.8995469 1.1855221 2.8995469zm.3072427-5.2633305-3.8265676 9.0043471h2.0017324l.8172448-2.0031538h3.7738087l.8151758 2.0031538h2.0534568l-3.8255331-9.0043471z"></path><path d="m79.6482612 63.9035064c0 .7564937-.5482782 1.2653134-1.5062132 1.2653134h-1.990353v-2.566897h1.952077c.9558661 0 1.5444892.4321341 1.5444892 1.2787852zm1.9893186-.1015566v-.0227985c0-.8445785-.2689667-1.5482213-.7655204-2.0456417-.5875887-.5865417-1.4679372-.9077924-2.6027695-.9077924h-4.0800169v8.9411332h1.962422v-2.8612041h1.5196614.0248277l1.9117321 2.8612041h2.2965612l-2.1806987-3.1928177c1.1348323-.4217711 1.9138011-1.3274909 1.9138011-2.7720829z"></path><path d="m95.1059804 65.3222948c0 1.5834552-1.0851769 2.6715625-2.6927698 2.6715625h-1.514489v-5.3918308h1.514489c1.6075929 0 2.6927698 1.1109057 2.6927698 2.6953972zm-2.6927698-4.496474h-3.4779454v8.9411333h3.4779454c2.8075979 0 4.7451921-1.9534117 4.7451921-4.4695304v-.0269436c0-2.5161186-1.9375942-4.4446593-4.7451921-4.4446593z"></path><path d="m110.756632 67.1236823v-.024871c0-1.5575479-1.020005-2.2104123-2.832426-2.6819255-1.54242-.3958638-1.92518-.5875779-1.92518-1.1751559v-.0259073c0-.4331703.396208-.7782558 1.14828-.7782558.751038 0 1.527938.3295411 2.31932.8808488l1.021039-1.4839711c-.906211-.7264412-2.015181-1.1347405-3.314497-1.1347405-1.8238 0-3.125185 1.0715266-3.125185 2.6933247v.0259073c0 1.7782782 1.160694 2.2736261 2.958633 2.7337401 1.490696.3844646 1.798973.6414651 1.798973 1.1357768v.0290162c0 .5212552-.48414.8404333-1.288971.8404333-1.01897 0-1.863111-.4196985-2.664839-1.0849984l-1.160694 1.3917411c1.071729.959607 2.434148 1.4300839 3.789326 1.4300839 1.923111 0 3.276221-.994841 3.276221-2.7710467"></path></g></svg> 