<svg id="Layer_1" data-name="Layer 1" xmlns="http://www.w3.org/2000/svg" viewBox="0 0 724.91 198.72"><defs><style>.cls-1{isolation:isolate;}.cls-2{fill:#333;}.cls-3{fill:#00bfd0;}.cls-4{fill:#ff5c28;}.cls-5{fill:#004576;}.cls-6{fill:#f3a326;}</style></defs><g class="cls-1"><path class="cls-2" d="M238.75,82.42A39.82,39.82,0,0,1,256,86.06a34.93,34.93,0,0,1,12.93,10.4l-14.6,12.05q-7.07-7.44-16.08-7.45a17.87,17.87,0,0,0-13.43,5.68q-5.45,5.69-5.44,14.81t5.4,14.81a17.7,17.7,0,0,0,13.4,5.68q9.31,0,16.38-7.52L269,146.72q-11.1,14-30.21,14-17.87,0-29-11.05t-11.1-28.09q0-17,11.1-28.08T238.75,82.42Z"/><path class="cls-2" d="M303.84,158.77H283.56V48.27h20.28Z"/><path class="cls-2" d="M358.52,82.42q16.23,0,26.4,10.86t10.18,28.2a51.42,51.42,0,0,1-.39,6.75H341.35q1.47,7.76,6.64,11.59a20.68,20.68,0,0,0,12.7,3.83,29,29,0,0,0,19-7.13l11.88,12.89Q379,160.69,359.53,160.69q-17.32,0-28.2-10.74t-10.87-28.17q0-17.49,10.56-28.43T358.52,82.42Zm-.16,17.26q-7.07,0-11.3,3.88t-5.63,11h33.32q-1.39-7.21-5.59-11A15.38,15.38,0,0,0,358.36,99.68Z"/><path class="cls-2" d="M452.5,82.42A31.43,31.43,0,0,1,463.06,84l-3,19.87a30.38,30.38,0,0,0-12.27-2.37q-7.23,0-11.53,4.33t-4.31,12.39v40.52H411.64V84.41h19.65v8.14Q438.13,82.41,452.5,82.42Z"/><path class="cls-2" d="M497.16,110.89h7.15l21.2-26.48h24.86l-29.67,35,29.9,39.37H525.67L504,128.69h-6.84v30.08H476.89V48.27h20.27Z"/><path class="cls-2" d="M563.84,135.33a14.74,14.74,0,0,1,10.6-4.41A14.5,14.5,0,0,1,585,135.33a14.17,14.17,0,0,1,4.46,10.4,15.22,15.22,0,0,1-15,15,14.7,14.7,0,0,1-10.6-4.45,14.23,14.23,0,0,1-4.54-10.51A14,14,0,0,1,563.84,135.33Z"/><path class="cls-2" d="M607.37,50.92a13,13,0,0,1,22.14,9.17,12.16,12.16,0,0,1-3.77,9,13.28,13.28,0,0,1-18.37,0,12.23,12.23,0,0,1-3.72-9A12.47,12.47,0,0,1,607.37,50.92Zm19.42,107.85H606.52V84.41h20.27Z"/><path class="cls-2" d="M684,82.42q17.55,0,29.16,11.16t11.61,28q0,16.81-11.61,28T684,160.69q-17.49,0-29-11.17t-11.58-28q0-16.8,11.58-28T684,82.42Zm0,18.64a19.23,19.23,0,0,0-14.3,5.76q-5.67,5.76-5.67,14.73t5.67,14.74a20.74,20.74,0,0,0,28.67,0q5.65-5.76,5.67-14.74a20.16,20.16,0,0,0-5.67-14.73A19.33,19.33,0,0,0,684,101.06Z"/></g><path class="cls-3" d="M138.16,116.37c-4.54,18.76-19.85,78.9-19.85,78.9a4.73,4.73,0,0,1-4.92,3.42L99,197.19a4.85,4.85,0,0,1-4.17-4.36s-4.06-66.06.18-90.05S192.62-2.73,198.36.15s-55.66,97.46-60.2,116.22"/><path class="cls-4" d="M82.37,60.58C63.61,65.12,3.47,80.43,3.47,80.43A4.74,4.74,0,0,0,0,85.34L1.55,99.75a4.84,4.84,0,0,0,4.36,4.18S72,108,96,103.75,201.47,6.11,198.59.38,101.13,56,82.37,60.58"/><path class="cls-5" d="M198.59.38a.42.42,0,0,0-.09-.14.42.42,0,0,0-.14-.09C192.62-2.73,99.23,78.81,95,102.78c-.07.38-.13.77-.19,1.16l1.16-.19C119.93,99.51,201.47,6.11,198.59.38Z"/><path class="cls-6" d="M94.8,103.94c-7.66,1.21-19,1.67-31.08,1.73L6.43,163a4.74,4.74,0,0,0,0,6.69l22.66,22.66a4.74,4.74,0,0,0,6.69,0L93.07,135C93.13,123,93.59,111.6,94.8,103.94Z"/></svg>