<svg xmlns="http://www.w3.org/2000/svg" id="layer" x="0" y="0" version="1.1" viewBox="0 0 652 652" xml:space="preserve"><style>.st2{fill:#fff}</style><path fill="#003963" d="M335.5 350.1c0-2.6-2-4.6-4.5-4.8h-13.4c-1.5 0-2.6-1.2-2.6-2.6V323c0-1.5 1.2-2.7 2.6-2.7h13.3a4.9 4.9 0 004.6-4.8v-81.2c0-4.4-3.6-7.9-7.9-7.9H29.1c-4.4 0-7.9 3.5-7.9 7.9v173.6c0 4.4 3.5 7.9 7.9 7.9h298.5c4.4 0 7.9-3.5 7.9-7.9v-57.8"/><path fill="#9bcced" d="M613.3 226.3H350.1c-4.4 0-7.9 3.5-7.9 7.9v81.3c.1 2.6 2.1 4.6 4.6 4.8h14c1.5 0 2.6 1.2 2.6 2.6v19.7c0 1.5-1.2 2.6-2.6 2.6h-14c-2.5.2-4.4 2.2-4.5 4.7v57.9c0 4.4 3.5 7.9 7.9 7.9h263.2c4.4 0 7.9-3.6 7.9-7.9V234.2c-.1-4.4-3.7-7.9-8-7.9"/><path d="M89.2 328.8c0 11.2 7.4 19.8 20.2 19.8 12.8 0 20.2-8.6 20.2-19.8 0-10.9-7.4-20-20.2-20-12.8 0-20.2 9.1-20.2 20m70.7 44.1h-31.4v-9.8h-.3c-5.5 8.8-16.4 12.8-26.7 12.8-26.2 0-44.7-21.9-44.7-47.3 0-25.3 18.1-47.1 44.3-47.1 10.2 0 20.9 3.8 27.4 11.5v-8.6h31.4v88.5M240.3 313.3c-4.7-3.4-10.2-6.2-16.2-6.2-12.1 0-21.6 9.3-21.6 21.6 0 12.7 9.2 21.7 22.1 21.7 5.5 0 11.6-2.2 15.7-6V371c-6.9 3.4-14.5 5-22.1 5-26.2 0-48.1-19.5-48.1-46.2 0-28.5 21.7-48.1 49.5-48.1 7.2 0 14.5 1.7 20.7 5.2v26.4M289.7 372.9h-31.3v-62.6h-10.2v-25.8h10.2v-26.6h31.3v26.6h17.8v25.8h-17.8zM444.4 283.6v30.6c4 3.7 6.3 9 6.3 14.8 0 11.1-7.4 19.7-20 19.7-12.7 0-20-8.6-20-19.7 0-5.4 1.8-10.3 5.2-13.9v-31.3c-21.5 4.9-38.1 20.7-38.1 45.3 0 30 24.8 46.8 52.9 46.8 28.3 0 52.9-16.9 52.9-46.8 0-25-17.1-40.8-39.2-45.5m108.6-1.4c-12.2 0-20.9 3.6-28.1 14.2h-.3v-11.3h-31.2V373h31.2v-45.6c0-11 3.6-20.4 16.3-20.4 15.4 0 14.1 14.7 14.1 23.1v42.8h31v-54.3c0-21.5-9.4-36.4-33-36.4" class="st2"/><path d="M440.1 325.4c0 1.2-.9 2.2-2 2.2h-15.8c-1.1 0-2-1-2-2.2v-62.6c0-1.2.9-2.2 2-2.2H438c1.1 0 2 1 2 2.2v62.6" class="st2"/></svg>