<svg xmlns="http://www.w3.org/2000/svg" width="137.287mm" height="14.838mm" viewBox="0 0 137.28685 14.83779"><g id="layer1"><g id="g133" fill="#356ae6"><path id="path12" d="M102.74.63h-.93v.93c0 .24.12.53.6.53h.92v-.94c0-.2-.08-.53-.58-.53z" class="st0"/><path id="path14" d="M102.66 3.62h-.74v7.65c0 .32.2.53.5.55v.03h.84V4.18c-.02-.35-.2-.56-.6-.56z" class="st0"/><path id="path16" d="M57.84 9.6c-.32-.32-.72-.24-.96-.02-.98.82-1.88 1.13-3.04 1.13-2.33 0-4.18-1.95-4.18-4.46 0-2.5 1.8-4.44 4.18-4.44 1.14 0 2.1.34 3 1.1.2.2.57.27.84-.02.23-.24.47-.5.47-.5l.06-.05-.05-.06C57.2 1.35 56 .5 53.85.5c-3.16 0-5.6 2.54-5.6 5.77 0 3.25 2.4 5.7 5.56 5.7 1.8 0 3.08-.57 4.4-1.95l.03-.05-.02-.05c0 .05-.07-.05-.36-.32z" class="st0"/><path id="path18" d="M77.94 3.44c-1.16 0-2.1.5-2.8 1.5-.32-.63-1.06-1.56-2.6-1.56-1.32 0-2.03.7-2.56 1.38v-.58c0-.4-.24-.64-.6-.64h-.75v8.23h.74c.37 0 .58-.1.58-.55v-4.1c0-1.43.93-2.5 2.17-2.5 1.27 0 2 .88 2 2.36v4.24c0 .4.23.58.6.58h.74V7.1c0-1.7 1.08-2.45 2.17-2.45 1.3 0 2.03.88 2.03 2.36v4.14c0 .34.08.66.6.66H81V6.74c0-2.03-1.15-3.3-3.06-3.3z" class="st0"/><path id="path20" d="M87.5 3.46c-1.22 0-2.23.53-3.05 1.67v-.85c0-.42-.24-.63-.66-.63h-.67v10.1c0 .4.18.6.58.6h.75V10.4c.82 1.06 1.8 1.6 3.05 1.6 1.9 0 3.9-1.52 3.9-4.3s-2-4.26-3.9-4.26zm2.54 4.26c0 1.8-1.14 3.05-2.78 3.05-1.4 0-2.86-1.17-2.86-3.07s1.45-3.07 2.86-3.07c1.37.02 2.78 1.08 2.78 3.1z" class="st0"/><path id="path22" d="M111.97 4.2v.7c-.56-.72-1.54-1.52-3.1-1.52-.98 0-1.95.37-2.67 1.04-.77.7-1.2 1.74-1.2 2.85 0 2.52 2 3.87 3.87 3.87 1.22 0 2.25-.5 3.13-1.56v.8c0 1.8-1.06 2.82-2.86 2.82-.87 0-1.72-.2-2.52-.66-.2-.13-.37-.2-.5-.2-.16 0-.32.1-.42.28-.2.34-.3.5-.3.5l-.02.05.05.03c1.1.77 2.33 1.14 3.7 1.14 2.65 0 4.2-1.46 4.2-4V3.6h-.75c-.24 0-.6.2-.6.6zm.08 3.15c0 1.7-1.48 2.7-2.9 2.7-1.57 0-2.74-1.16-2.74-2.7 0-1.56 1.18-2.67 2.74-2.67 1.4-.03 2.9.9 2.9 2.67z" class="st0"/><path id="path24" d="M119.56 3.46c-1.16 0-2.06.48-2.7 1.43v-.7c0-.4-.3-.55-.63-.55h-.74v8.23h1.34l-.03-4.7c0-1.47 1-2.47 2.4-2.47 1.37 0 2.16.88 2.16 2.4v4.22c0 .4.2.56.53.56h.78V6.74c.03-2-1.2-3.28-3.12-3.28z" class="st0"/><path id="path26" d="M96.4 3.5c-1.05 0-1.97.2-2.98.65l-.05.03.03.05s.13.37.23.64c.1.26.43.3.67.18.68-.26 1.3-.4 1.98-.4 1.5 0 2.33.77 2.33 2.15v1.98c0 1.24-1.1 2.12-2.64 2.12-.95 0-1.98-.48-1.98-1.54 0-1 .82-1.56 2.3-1.56h.66c.4 0 .58-.18.58-.55V6.8h-1.37c-2.25 0-3.52.95-3.52 2.6 0 1.23.95 2.6 3.1 2.6 1.16 0 2.14-.44 2.85-1.3v.57c0 .37.2.53.58.53h.74V6.77c-.02-2.1-1.27-3.28-3.5-3.28z" class="st0"/><path id="path28" d="M63.07 3.5c-1.27 0-2.17.3-2.96.65l-.04.05.02.06s.14.37.24.63c.1.26.43.28.66.18.7-.27 1.3-.4 2-.4 1.5 0 2.34.77 2.34 2.14v1.96c0 1.24-1.1 2.12-2.64 2.12-.96 0-1.96-.48-1.96-1.54 0-1 .82-1.56 2.27-1.56h.66c.4 0 .58-.18.58-.55V6.8H62.9c-2.26 0-3.56.95-3.56 2.6 0 1.23.96 2.6 3.07 2.6 1.18 0 2.16-.44 2.9-1.3v.57c0 .37.18.53.55.53h.74V6.77c-.03-2.1-1.28-3.28-3.53-3.28z" class="st0"/><path id="path30" d="M136.3 6.56c-.17-.16-7.7-5.43-8.06-5.64l-.1-.08v1.3c0 .42.2.56.47.77l.06.03c.37.27 5.75 4 6.46 4.5-.7.5-6.16 4.3-6.5 4.5-.43.26-.46.45-.46.82V14s8.02-5.6 8.18-5.72c.37-.27.45-.6.45-.82V7.3c0-.26-.17-.53-.5-.74z" class="st0"/><path id="path32" d="M131.6 8c.2 0 .42-.07.64-.22.26-.2.5-.35.5-.35l.08-.05-.08-.05c-.03-.03-3.55-2.46-3.92-2.7-.16-.13-.37-.16-.5-.08s-.24.2-.24.42v.82l.03.02c.04.02 2.44 1.7 2.92 2 .2.14.4.2.58.2z" class="st0"/><path id="path34" d="M19.4 9.95c-.3-.3-.67-.1-.83.02-.6.56-1.3.82-2.04.82-1.6 0-2.88-1.36-2.88-3.1 0-1.72 1.24-3.07 2.8-3.07.9 0 1.5.4 1.96.76.36.3.65.3.9.05.2-.2.44-.48.44-.48l.05-.05-.06-.05c-.93-1-1.96-1.46-3.3-1.46-2.34 0-4.22 1.9-4.22 4.3 0 2.35 1.9 4.28 4.23 4.28 1.72 0 2.7-.87 3.34-1.6h.04l-.05-.06s-.14-.1-.4-.37z" class="st0"/><path id="path36" d="M28.18.63h-.93v.93c0 .24.1.53.58.53h.93v-.83c.02-.37-.2-.64-.58-.64z" class="st0"/><path id="path38" d="M28.07 3.62h-.77v7.65c0 .32.2.53.5.55v.03h.85V4.18c.03-.35-.18-.56-.58-.56z" class="st0"/><path id="path40" d="M36.77 4.07c-.1.3-2.1 5.16-2.5 6.06-.38-.93-2.4-5.8-2.5-6.06-.13-.32-.4-.5-.74-.5h-.95l.05.08c.03.1 3.23 7.5 3.36 7.78.13.34.34.42.68.42h.16c.32 0 .53-.13.66-.42.13-.3 3.34-7.62 3.36-7.7l.06-.1h-.93c-.35 0-.6.12-.73.44z" class="st0"/><path id="path42" d="M45.06 7.25H41.9c-.34 0-.55.2-.55.55v.53h.08c1.5-.02 3.26-.02 3.97-.02.42 0 .74-.1.98-.34.2-.24.32-.6.3-1.03-.25-2.12-1.76-3.5-3.82-3.5-2.25 0-3.97 1.86-3.97 4.3C38.9 10.17 40.65 12 43 12c1.37 0 2.4-.47 3.4-1.53l.04-.05-.05-.05s-.18-.16-.4-.35c-.3-.26-.6-.15-.76 0-.58.53-1.3.8-2.17.8-1.5 0-2.62-1.1-2.8-2.7 0 0-.03-.2-.03-.42 0-.27.03-.45.03-.45.16-1.6 1.2-2.7 2.56-2.7 1.35 0 2.33.9 2.46 2.27.02.14 0 .24-.03.3-.08.1-.13.13-.2.13z" class="st0"/><path id="path44" d="M7 1.06C6.86.74 6.68.63 6.33.63H6c-.26 0-.5.16-.63.4-.1.24-4.76 10.6-4.82 10.7l-.05.12h.87c.37 0 .6-.16.8-.53.16-.32.92-2.06 1.06-2.35h3.4c.43 0 .7-.27.7-.66v-.58H3.75l2.4-5.4c.52 1.12 3.88 8.8 4.03 9.1.22.43.72.43.88.43h.8l-.06-.1c0-.1-4.63-10.35-4.8-10.7z" class="st0"/><path id="path46" d="M25.34 10.66c-.13-.08-.3-.1-.5-.05-.3.1-.5.14-.77.14-.84 0-1.3-.42-1.3-1.3V4.8h2.57v-.54c0-.43-.37-.64-.68-.64h-1.9V1.3c0-.38-.27-.64-.67-.64h-.67v8.97c0 1.5.82 2.35 2.35 2.35.6 0 1.25-.13 1.67-.34l.03-.03s.02-.25.02-.54c.03-.2-.08-.32-.16-.4z" class="st0"/></g></g><style id="style10" type="text/css">.st0{fill:#356AE6;}</style></svg>