<svg version="1.1" id="Layer_1" xmlns="http://www.w3.org/2000/svg" xmlns:xlink="http://www.w3.org/1999/xlink" x="0px" y="0px" viewBox="89.09999084472656 156.89999389648438 545.0000610351562 92.19998168945312" style="enable-background:new 0 0 723 406;" xml:space="preserve">
<path d="M257.3,249c-0.3-0.8-0.8-1.5-0.8-2.3c0-20.2-0.1-40.5,0-60.7c0-15.6,7.7-25,23.6-29.1c18.8,0,37.6,0,56.4,0
	c26.5,3.5,30.5,37,17.3,51.3c-5.6,6-12.6,9.3-20.7,9.4c-16.8,0.3-33.6,0.1-50.4,0c-0.8,0-2.3-1.5-2.3-2.3c-0.2-6.9,5.2-12.2,12-12.2
	c13.2,0,26.3,0,39.5,0c9.6,0,15.2-6.1,15.2-16.3c0-9.4-5.9-15.4-15.2-15.4c-15.3,0-30.5,0-45.8,0c-8.9,0-14.9,5.7-15,14.7
	c-0.1,15.9,0,31.7,0,47.6c0,8.8-2.7,12.5-11,15.4C259.2,249,258.2,249,257.3,249z M395.5,157c-15.3,1.9-22.8,16.3-20.9,31.6
	c1.6,13,11.1,20.2,26.9,20.2c17.5,0,35,0,52.5,0c6.9,0,11.5,5,11.4,12.4c0,7.6-4.1,12.1-11.3,12.1c-10,0-20,0-30,0
	c-7.4,0-13.3,6.1-12.8,13.5c0,0.7,1,1.8,1.6,1.8c14.7,0.1,29.5,0.8,44.2-0.2c15.6-1.1,24.1-13.2,23-30.6
	c-0.9-14.1-12-24.3-26.6-24.3c-18.3,0-36.5,0-54.8,0c-5.7,0-8.8-2.6-9.1-7.5c-0.5-8.2,2.2-13.2,8.2-13.5c8.8-0.4,17.6,0,26.3-0.4
	c2.7-0.1,5.7-1.4,8-3c3.8-2.7,5.5-9.6,3.6-12C422.4,157,409,157,395.5,157z M633.9,216.7c-4.3-16-10.2-21.6-24.7-23.2
	c-4.2-0.4-8.4-0.1-12.6-0.1c-14.3,0-28.7,0-43,0c-7.3,0-10.1-2.6-10.2-9.5c-0.1-7.4,3.7-11.7,10.4-11.7c8.4-0.1,16.8,0,25.1,0
	c6.4,0,12.6-7.5,11.5-13.8c-0.1-0.5-0.5-0.9-0.7-1.4c-13.4,0-26.9,0-40.3,0c-15.1,1.8-22.9,16-20.9,31.8c1.6,12.8,11.2,20,27,20
	c17.4,0,34.9,0,52.3,0c7.2,0,11.4,4.7,11.4,12.7c0,7.6-4,11.8-11.3,11.8c-9.7,0-19.4,0-29,0c-8,0-13.1,4.6-13.6,12.6
	c-0.1,0.9,1.6,2.7,2.4,2.7c12.4,0.2,24.9,0.1,37.3,0.1c17,0,24.9-6.2,29.1-22.6C633.9,222.9,633.9,219.8,633.9,216.7z M89.1,244.7
	c5.8,5.1,16.3,2.5,20.1-4.7c10.1-19.3,21.1-38,37.1-53.2c17.3-16.5,36.4-17.4,53.4-2.4c10.9,9.6,18.1,22,24.8,34.7
	c3.8,7.1,12,9.7,19.1,5.7c0.6-0.3,1.2-1.9,0.9-2.5c-9.2-19.5-20-37.8-37.1-51.6c-20.6-16.6-42.4-17.3-63.8-1.9
	c-13.6,9.8-24.1,22.5-32.9,36.5c-7.7,12.3-14.4,25.3-21.6,38C89.1,243.7,89.1,244.2,89.1,244.7z M495.4,245.9c0,0.8,1.7,2.4,2.5,2.3
	c7.4-0.5,13.9-7.2,14-14.7c0.1-24.7,0.1-49.5-0.1-74.2c0-0.7-1.6-2.1-2.3-2c-7.9,0.6-14.2,7.6-14.2,15.5c0,12,0,24.1,0,36.1
	C495.3,221.2,495.3,233.6,495.4,245.9z M201.5,217.6c0.8,0,2.3-1.5,2.3-2.4c0.1-6.2-5.9-11.9-12.4-11.9c-11.8,0-23.6,0-35.5,0
	c-6.2,0-12.1,5.4-12.3,11.6c0,0.9,1.6,2.7,2.6,2.7c9.1,0.2,18.3,0.1,27.5,0.1C182.9,217.7,192.2,217.8,201.5,217.6z"></path>
</svg>