<svg xmlns="http://www.w3.org/2000/svg" id="Layer_1" x="0" y="0" version="1.1" viewBox="0 0 3632 679" xml:space="preserve"><style>.st0{fill:#ea7600}.st1{fill:#999b9e}</style><path d="M236.5 44.8v166.3c-16.3-25.1-44.2-37.6-83.6-37.6-63 0-105.5 30-127.6 90-12.2 33.8-18.4 87.4-18.4 160.7 0 77.4 6.5 133.1 19.7 166.7 22.8 58.5 68.8 87.4 137.7 86.6 48.3-.9 81-14.2 98.3-40.1l13.5 34.3h83.5V9.1L236.5 44.8zm0 491c-15.7 19.9-32.3 29.7-49.6 29.7-30 0-48.2-17.3-54.4-52.1-1.5-7.1-2.4-36.3-2.4-86.6 0-51.2.4-79.8 1.2-85.6 6.2-37.1 24-55.8 53.3-55.8 21.9 0 39.3 8.3 51.8 24.8v225.6zM553.6 341.4c-55.8.9-94.6 17.7-116.6 50.7-17.2 25.5-25.8 65.8-25.8 121 0 58.7 9.4 99.7 28.3 123.6 22.2 28.1 63.3 41.7 123.4 40.8 47.8-.9 78.9-13.8 93.8-38.9l24.6 33.2h86.5V348.6c0-60-11.5-103.7-34.6-130.7-26.4-29.8-71.1-44.4-134.5-44.4-56 0-98 4.5-126 13.4V301c27.1-10.4 56-15.6 87.3-15.6 31.9 0 53.8 4.5 66.1 13.5 13.9 11.4 20.1 30.6 18.4 57.5-19-10.8-49.2-15.9-90.9-15M644.4 533c-2.5 14.2-7.6 23.2-15.4 26.9-7.8 3.7-20.2 5.6-37.3 5.6-38.3 0-57.4-19.6-57.4-58.7 0-45.1 17.9-70.4 53.7-76.3 19.7-2.4 38.3-.7 56.4 5V533zM947.1 211.1c22.9-25.1 55.1-37.6 96.7-37.6 55.4 0 94.1 14.2 116.1 43.1 18.7 24.6 28.1 63.7 28.1 117.2v338h-123.2V355.6c0-26.3-2.4-43.6-7.2-51.7-7.3-12.4-22.9-18.5-46.9-18.5-24.2 0-39.8 6.1-47 18.5-4.8 8.1-7.2 25-7.2 50.5v317.4H835.2V180.9h111.9v30.2z" class="st0"/><path d="M1472.5 44.8v166.3c-16.4-25.1-44.1-37.6-83.5-37.6-63 0-105.5 30-127.6 90-12.2 33.8-18.4 87.3-18.4 160.7 0 77.4 6.5 133.1 19.6 166.7 22.9 58.5 68.9 87.4 137.8 86.6 48.3-.9 81.1-14.2 98.2-40.1l13.5 34.3h83.7V9.1l-123.3 35.7zm0 491c-15.7 19.9-32.3 29.7-49.6 29.7-30 0-48.2-17.3-54.4-52.1-1.6-7.1-2.4-36.3-2.4-86.6 0-51.2.4-79.8 1.2-85.6 6.2-37.1 23.9-55.8 53.2-55.8 22 0 39.3 8.3 51.9 24.8v225.6zM1678 248.2c-15.7 31.3-23.5 89.8-23.5 175.3 0 85.7 7.8 144.6 23.5 176.7 25.5 52 78.1 77.5 157.9 76.6 81.4-.8 133.7-26.3 156.7-76.6 12.3-27.1 18.5-86.5 18.5-177.8 0-91.5-6.6-150.9-19.7-178.1-22.2-48.4-74.9-72.4-158-71.5-78.9.8-130.8 25.9-155.4 75.4m208.7 89.8c.8 5 1.3 34.4 1.3 88 0 51.2-.5 79.7-1.3 85.5-6.4 35.5-24.2 53.3-53.3 53.3-29 0-46.7-17.9-53.3-53.3-1.7-7.4-2.5-35.9-2.5-85.5 0-51.2.5-79.7 1.2-85.4 6.6-37.2 24.7-55.8 54.6-55.8 29.8 0 47.6 17.8 53.3 53.2M2180.6 211.1c23.1-25.1 51.3-37.6 85-37.6 52.5 0 86.8 18.6 103.3 56 22.9-37.4 54.7-56 94.8-56 54.1 0 92.2 14.7 114.3 44.4 18.9 23.9 28.4 62.4 28.4 115.9v338h-123.3V355.6c0-46.9-14.1-70.2-42-70.2-28 0-42 18.5-42 55.4v331h-123.2V355.6c0-46.9-14.3-70.2-42.9-70.2-28.6 0-42.9 23-42.9 69v317.4h-121.5V180.9h112v30.2zM2798.7 341.4c-55.7.9-94.6 17.7-116.8 50.7-17.1 25.5-25.7 65.8-25.7 121 0 58.7 9.4 99.7 28.3 123.6 22.3 28.1 63.3 41.7 123.5 40.8 47.7-.9 78.8-13.8 93.7-38.9l24.7 33.2h86.4V348.6c0-60-11.5-103.7-34.6-130.7-26.4-29.8-71.3-44.4-134.5-44.4-56 0-98 4.5-126 13.4V301c27.1-10.4 56-15.6 87.3-15.6 31.7 0 53.8 4.5 66.1 13.5 14 11.4 20.1 30.6 18.4 57.5-18.8-10.8-49.1-15.9-90.8-15m90.9 191.6c-2.5 14.2-7.6 23.2-15.4 26.9-7.7 3.7-20.1 5.6-37.4 5.6-38.3 0-57.3-19.6-57.3-58.7 0-45.1 17.8-70.4 53.7-76.3 19.7-2.4 38.4-.7 56.4 5V533zM3082.3 346.9h123.1v324.9h-123.1zM3388.3 211.1c22.8-25.1 54.9-37.6 96.6-37.6 55.4 0 94.1 14.2 116.2 43.1 18.6 24.6 27.9 63.7 27.9 117.2v338h-123.1V355.6c0-26.3-2.4-43.6-7.2-51.7-7.3-12.4-22.9-18.5-46.9-18.5-24.1 0-39.6 6.1-46.9 18.5-4.8 8.1-7.3 25-7.3 50.5v317.4h-121.3V180.9h112v30.2z" class="st1"/><path d="M3072.6 233.3c0-17.9 7-33.4 21.2-46.7 14-13.1 30.7-19.7 49.7-19.7 19.1 0 35.7 6.7 49.8 19.7 14.2 13.3 21.3 28.8 21.3 46.7 0 17.7-7.2 33.4-21.3 46.4-14 13.2-30.6 19.9-49.8 19.9-19 0-35.7-6.7-49.7-19.9-14.2-13.1-21.2-28.7-21.2-46.4" class="st0"/></svg>