<svg xmlns="http://www.w3.org/2000/svg" viewBox="53.70000076293945 49.400001525878906 481.5 96.7150650024414" enable-background="new 0 0 595.3 193.3"><path fill="#4368B0" d="M321.2 121.8c-.8 6.1-5.6 9.3-11.2 8.9-1.4-.1-2.7-.4-3.8-.9-4.5-2.7-5.9-7.2-6.3-10-.3-4.4-.6-13.5 1.4-17.8 1.8-3.3 4.8-5.1 8.9-5.2 5.8-.2 10.1 2.7 11 8.8.7 5.3.8 10.9 0 16.2m-2.8-40.2c-7.2-.8-13.5 1.5-18.8 8V49.4l-19.2 2.4v92.9h19.2v-5.5c2.6 1.9 5.1 4.2 8 5.3 11.2 4.1 25.9.8 31-14.6 3.3-9.9 3.2-19.9.7-29.9-2.7-11.1-9.8-17.2-20.9-18.4M387.1 120.8c-.1.4-.1.8-.2 1.2-1.3 5.8-5.4 9-10.9 8.7-5.9-.3-9.9-3.8-10.5-9.9-.4-4.4-.4-8.9-.1-13.3.6-7 4.8-10.8 11.2-10.7 5.2.1 9 3.2 10.3 8.3 1.2 5.3.3 14.5.2 15.7m-.8-38.1c-6.7-1.8-13.4-1.8-20 0-9.9 2.7-16.6 9.2-18.8 19.5-1.2 5.6-1.4 11.6-1.1 17.3.7 13.2 8.6 22.6 20.9 25.5.2 0 .4.1.5.1h.1c.5.1 1 .2 1.4.3.2 0 .3 0 .5 0 .6.1 1.3.2 2.1.3 2.4.3 5.5.4 8 .1.1 0 .3 0 .4 0 12.7-.7 22.3-8.9 25.2-21.5 1.5-6.9 1.5-13.9 0-20.8-2.3-10.9-8.7-17.9-19.2-20.8"></path><path fill="#4368B0" d="M98.6 82.4H84.9V73c1-8.8 15.2-7.2 15.2-7.2V50.7c-.5-.1-28.3-6.9-33.8 14.8 0 0 0 .1 0 .1-.9 2.7-.8 15.2-.8 16.7H53.7V99h12.6v45.2h18.3V99h14l1.6-16.6h-1.6zM140.8 121.7c-.6 5.8-5.1 9.2-10.5 9-5.5-.2-9.1-3.2-10.3-8.7-1.4-7.7.2-16.9.4-17.6 1.4-5.2 5.1-7.7 10.5-7.6 5.3.1 9.3 3.3 9.9 8.9.5 5.3.5 10.8 0 16m1.5-31.3c-.2-.3-.4-.5-.6-.7 0 0-.1-.1-.1-.1-.3-.3-.4-.5-.4-.5-4.3-4.5-5.9-5.6-9.3-6.7-13-3.9-25.7 3.1-29.7 16.5-2.5 8.3-2.5 16.8-1.1 25.1 3.1 18.1 16.2 24.2 30.2 21.2 4.3-.9 7.5-3.7 10.4-7.5 0 0 .3-.3.6-1v8h17.9V82.5h-17.9v7.9zM214.8 140.3c-.8-3.1-1.8-6.2-2.7-9.2l-.9-3.3s-22.4 11.1-25.9-10c-.3-3.5-.2-7 .2-10.5.9-6.5 4.7-9.9 10.8-10.5 2.1-.2 4.2-.1 6.2.3 2.8.5 5.5 1.3 8.5 2.1 1.1-3.3 2.1-6.6 3.1-9.9.2-.5.3-1 .4-1.4l.5-2c-.1-.3-.4-.5-.8-.8-.5-.4-1.4-.8-2.8-1.3-.5-.2-1.1-.4-1.6-.6-.5-.2-.8-.2-.8-.2-5.9-1.7-11.9-1.9-18.1-1.2-12.9 1.4-21.7 9.3-24.2 22.2-1.3 6.8-1.2 13.7.2 20.6 2.2 10.2 8.2 16.9 18.1 19.8 6.4 1.9 13 2 19.5 1 2.7-.4 6.7-1.9 9.5-2.9l1.1-.4-.3-1.8zM256.6 107.4h-20.7c.1-4.2.6-8.2 4.3-10.6 3.9-2.5 8.2-2.6 12.2-.4 4 2.4 4.3 6.6 4.2 11m17.2 8.5c-.1-4.3 0-8.7-.6-12.9-1.6-11.6-8.5-19-19.7-20.9-4.3-.7-8.7-.6-13.1-.2-11.8 1.2-20.8 8.7-22.6 20.1-1.1 6.9-1.3 14.2-.4 21.2 1.4 10.4 6.3 17.1 14.9 20.3 0 0 .1 0 .1 0 3.9 1.2 23 6.3 39.8-2.4l-.7-2.5c-.8-3.4-1.7-6.8-2.6-10.1l-.1-.3s-.3.1-1 .3c-.7.2-1.5.4-2.2.7-.1 0-.3.1-.4.1-2.5.7-6.2 1.6-10 2.2-3.2.3-6.5.3-9.8.1-5.4-.9-9.4-3.9-9.2-10.8h3.1c10.5 0 21 0 31.4 0 .2 0 .5 0 .8 0 0 0 2.2 0 2.3 0 0 0 0-.6 0-.7v-4.2zM535.2 83.1h-20.4l-17.6 28.4v-62L478 51.9v92.9h19.2v-28.4l17.6 28.4h20.4L516 113.9zM452.4 120.8c-.1.4-.1.8-.2 1.2-1.3 5.8-5.4 9-10.9 8.7-5.9-.3-9.9-3.8-10.5-9.9-.4-4.4-.4-8.9-.1-13.3.6-7 4.8-10.8 11.2-10.7 5.2.1 9 3.2 10.3 8.3 1.3 5.3.4 14.5.2 15.7m-.8-38.1c-6.7-1.8-13.4-1.8-20 0-9.9 2.7-16.6 9.2-18.8 19.5-1.2 5.6-1.4 11.6-1.1 17.4.7 13.2 8.6 22.6 20.9 25.5.2 0 .4.1.5.1 0 0 0 0 .1 0 .5.1 1 .2 1.4.3.2 0 .3 0 .5 0 .6.1 1.3.2 2.1.3 2.4.3 5.5.4 8 .1.1 0 .3 0 .4 0 12.7-.7 22.3-8.9 25.2-21.5 1.5-6.9 1.5-13.9 0-20.8-2.2-11-8.6-18-19.2-20.9"></path></svg>