<svg xmlns="http://www.w3.org/2000/svg" width="512" height="149" preserveAspectRatio="xMidYMid"><path fill="#45535E" d="M.06 27.68H17.9v39.66h37.66V27.68h17.88v97.36H55.56v-40.5H17.9v40.5H.07V27.68zM130 93.33c0 8.15-6.65 14.78-14.8 14.78s-14.78-6.62-14.78-14.77V51.4H83.5v41.93c0 17.48 14.22 31.7 31.7 31.7 17.5 0 31.72-14.22 31.72-31.7V51.4H130v41.93"/><path fill="#45535E" d="M194.18 51.9c-8.4 0-14.26 2.44-19.92 8V27.68h-17v59.7c0 22.35 16.17 37.66 34.32 37.66 20.18 0 37.87-15.58 37.87-36.57 0-20.72-16.3-36.57-35.27-36.57zm.42 57.42c-11.5 0-20.3-9.6-20.3-20.85 0-11.24 8.8-20.86 20.3-20.86 9.75 0 18.56 9.63 18.56 20.87s-8.8 20.85-18.56 20.85zM257.97 56.18c0-8.54 5.7-11.24 11.92-11.24 5 0 11.64 3.8 15.97 8.4l11.1-13c-5.55-7.46-16.8-12.6-26-12.6-18.42 0-31.7 10.7-31.7 28.44 0 32.9 40.5 22.48 40.5 40.9 0 5.68-5.54 10.7-11.9 10.7-10.03 0-13.28-4.88-17.9-10.02l-12.3 12.72c7.85 9.62 17.6 14.5 29.24 14.5 17.48 0 31.57-10.84 31.57-27.77 0-36.55-40.5-25.17-40.5-41.02"/><path fill="#45535E" d="M343.18 50.95c-18.15 0-34.3 15.3-34.3 37.65v59.86h16.98V116.1c5.66 5.54 11.52 7.98 19.92 7.98 18.96 0 35.27-15.84 35.27-36.57 0-20.98-17.7-36.55-37.87-36.55zm3.02 57.42c-11.5 0-20.3-9.62-20.3-20.86 0-11.23 8.8-20.85 20.3-20.85 9.75 0 18.56 9.62 18.56 20.86 0 11.25-8.8 20.87-18.56 20.87zM506.07 109.32c-10.02 0-12.86-4.33-12.86-10.97V68.97h15.58v-14.9H493.2V34.43L476 42.15V102c0 15.32 10.57 23.04 25.06 23.04 2.16 0 5.15-.14 6.77-.54l4.2-15.44c-1.9.13-4.06.26-5.96.26"/><path fill="#F8761F" d="M461.28 69.83c-3.26-5.6-7.84-10.1-13.56-13.47-4.28-2.5-8.72-4.08-13.72-4.75V33.8c5-2.12 8.1-6.82 8.1-12.3 0-7.47-6-13.53-13.46-13.53-7.47 0-13.56 6.06-13.56 13.53 0 5.48 2.92 10.18 7.92 12.3v17.8c-4 .6-8.15 1.84-11.94 3.75-7.73-5.87-33.1-25.15-47.94-36.4.35-1.28.62-2.58.62-3.96 0-8.3-6.7-15-14.98-15-8.28 0-14.98 6.7-14.98 15 0 8.26 6.7 14.97 15 14.97 2.8 0 5.42-.82 7.68-2.18l3.13 2.36 43.02 31c-2.27 2.1-4.4 4.48-6.1 7.14-3.42 5.44-5.52 11.42-5.52 17.94v1.36c0 4.58.87 8.9 2.35 12.96 1.3 3.55 3.2 6.77 5.58 9.7l-14.3 14.3c-1.25-.46-2.58-.72-3.97-.72-3.1 0-6 1.2-8.18 3.4-2.2 2.18-3.4 5.1-3.4 8.2 0 3.08 1.22 6 3.4 8.17 2.2 2.2 5.1 3.4 8.2 3.4 3.1 0 6-1.2 8.18-3.4 2.2-2.17 3.4-5.08 3.4-8.17 0-1.2-.2-2.37-.54-3.48l14.76-14.76c2.03 1.38 4.2 2.56 6.56 3.58 4.64 2 9.75 3.22 15.35 3.22h1.02c6.2 0 12.03-1.45 17.52-4.43 5.78-3.14 10.3-7.44 13.73-12.93 3.44-5.5 5.33-11.58 5.33-18.27v-.33c0-6.58-1.52-12.65-4.72-18.2zm-18.04 30.97c-4 4.46-8.6 7.2-13.82 7.2h-.86c-2.97 0-5.88-.82-8.73-2.32-3.2-1.64-5.65-4-7.65-6.96-2.06-2.92-3.18-6.1-3.18-9.5v-1c0-3.33.64-6.48 2.24-9.46 1.72-3.25 4.04-5.78 7.12-7.8 3.03-1.98 6.26-2.96 9.87-2.96h.33c3.27 0 6.36.64 9.28 2.14 2.97 1.6 5.4 3.76 7.28 6.63 1.83 2.86 2.92 5.94 3.27 9.3.05.7.07 1.42.07 2.1 0 4.57-1.74 8.8-5.23 12.63z"/></svg>