<svg xmlns="http://www.w3.org/2000/svg" viewBox="20.8167667388916 253.2749786376953 599.9832763671875 138.12498474121094" enable-background="new 0 0 652 652"><style type="text/css">.st0{fill:url(#SVGID_1_);} .st1{fill:#171A1D;}</style><linearGradient id="SVGID_1_" x1="153.749" x2="153.749" y1="-303.445" y2="-108.178" gradientUnits="userSpaceOnUse" gradientTransform="matrix(.707 0 0 -.707 14.468 176.799)"><stop offset="0" stop-color="#EFC119"></stop><stop offset=".331" stop-color="#92C84E"></stop><stop offset=".486" stop-color="#71BF5B"></stop><stop offset=".751" stop-color="#15B158"></stop><stop offset=".903" stop-color="#23AC69"></stop><stop offset="1" stop-color="#23AC69"></stop></linearGradient><path d="M25 315.8l91.8-60.8c4-2.3 8.9-2.3 12.9 0l91.8 60.8c3.6 1.8 5.2 6.1 3.4 9.8-.7 1.5-1.9 2.7-3.4 3.4l-12.3 8.1c-30.1-47.5-92.9-61.6-140.4-31.6-12.7 8.1-23.5 18.8-31.6 31.6L24.8 329c-3.6-1.9-5-6.3-3.2-9.9.8-1.4 2-2.6 3.4-3.3zm98.1-.7c-26.3.1-50.8 13.6-64.8 35.9l21.1 14c14.5-24.1 45.8-31.8 69.8-17.3 7.1 4.3 13 10.2 17.3 17.3l21.1-14c-13.8-22.4-38.2-36-64.5-35.9zm0 50.8c-9.3.1-17.8 5.1-22.4 13.2l14.2 9.3c2.3 2 5.2 3 8.2 3 3 0 6-1.1 8.2-3l14.2-9.3c-4.5-8.2-13.1-13.2-22.4-13.2z" class="st0"></path><path d="M282.5 322l23 33h-16.2l-17.4-25.6V355h-13.2v-65.4h13.2v26.1l16.5-26.1h15.2L282.5 322zm45.7-32.2H315v65.4h33.7V342h-20.8l.3-52.2zm59.5-2.4l27.5 67.7h-14.8l-2.6-7.1h-21.7l-2.6 7.1h-14.9l27.5-67.7h1.6zm5.3 48.4l-5.9-16.9-6.1 16.9h12zm40.7-9.7l-13.5-36.3h-14.8l27.5 67.7h1.3l27.5-67.7h-14.9l-13.1 36.3zm38.1 29.1H485v-65.4h-13.2v65.4zm65.4-65.4l-13.3 22.6-13.3-22.6h-15.9l22.7 35.9v29.5h13v-29.5l22.9-35.9h-16.1zm83.6 31.5c0 18.7-15.2 33.9-33.9 33.9S553 340 553 321.3s15.2-33.9 33.9-33.9c18.8.1 33.9 15.2 33.9 33.9zm-12.7 0c0-11.7-9.5-21.1-21.1-21.1-11.7 0-21.1 9.5-21.1 21.1s9.5 21.1 21.1 21.1c11.6 0 21.1-9.4 21.1-21 0 0 0 0 0-.1z" class="st1"></path></svg>