<svg xmlns="http://www.w3.org/2000/svg" xmlns:xlink="http://www.w3.org/1999/xlink" width="149" height="34" viewBox="0 0 149 34">
<g>
<path d="M49,13.4c-3.5,0-6.4,2.5-6.4,6.4s2.5,6.3,6.4,6.3c1.6,0,3.2,0.8,3.2,2.5s-1.4,2.7-3.2,2.7c-1.8,0-3.3-1.1-3.3-2.7h-3.1
                              c0,3.4,2.7,5.6,6.4,5.6c3.7,0,6.3-2.1,6.3-5.6c0-1.6-0.5-3.1-2.6-4.2c2.1-0.9,2.7-3.1,2.7-4.7C55.4,15.9,52.5,13.4,49,13.4z
                               M49,23.6c-1.8,0-3.3-1.6-3.3-3.8S47.2,16,49,16c1.8,0,3.3,1.6,3.3,3.8S50.8,23.6,49,23.6L49,23.6z"></path>
<circle cx="39.3" cy="9.7" r="1.8"></circle>
<path d="M125,21.2c0.3,1.5,1.7,2.8,3.9,2.8c1.2,0,2.7-0.6,3.4-1.3l2,2c-1.3,1.4-3.5,2-5.4,2c-3.9,0-6.8-2.6-6.8-6.6
                              c0-3.8,2.9-6.6,6.6-6.6c3.8,0,7,2.6,6.6,7.7L125,21.2z M132.3,18.8c-0.4-1.5-1.8-2.8-3.6-2.8c-1.7,0-3.2,1.1-3.7,2.8H132.3z"></path>
<path d="M110.6,21.2c0.3,1.5,1.7,2.8,3.9,2.8c1.2,0,2.7-0.6,3.4-1.3l2,2c-1.3,1.4-3.5,2-5.4,2c-3.9,0-6.8-2.6-6.8-6.6
                              c0-3.8,2.9-6.6,6.6-6.6c3.8,0,7,2.6,6.6,7.7L110.6,21.2z M117.9,18.8c-0.4-1.5-1.8-2.8-3.6-2.8c-1.7,0-3.2,1.1-3.7,2.8H117.9z"></path>
<path d="M64.4,13.4c-1.4,0-2.8,0.4-3.9,1.9V8.2h-3.1v18.2h3.1v-6.4c0-1.9,1.3-3.4,3.1-3.4c1.7,0,2.9,1,2.9,3.3v6.6h3.1v-6.8
                              C69.6,15.8,68,13.4,64.4,13.4z"></path>
<path d="M100.1,13.4c-1.4,0-3.1,0.6-4.1,2l-0.1-1.7h-3v18.2l3.1-0.3v-6.7c0.9,1.4,2.8,1.8,4.1,1.8c4,0,6.4-3,6.4-6.7
                              C106.5,16.3,104,13.4,100.1,13.4z M99.9,24c-2.1,0-3.6-1.9-3.6-3.9s1.3-4.1,3.6-4.1s3.6,2.1,3.6,4.1S102,24,99.9,24L99.9,24z"></path>
<path d="M142.8,26.7c1.4,0,3.1-0.6,4.1-2l0.1,1.7h3V8.2h-3.1v7c-0.9-1.4-2.9-1.8-4.2-1.8c-4,0-6.3,3-6.3,6.6
                              C136.4,23.8,139,26.7,142.8,26.7z M143.1,16.1c2.1,0,3.6,1.9,3.6,3.9s-1.3,4.1-3.6,4.1s-3.6-2.1-3.6-4.1S140.9,16.1,143.1,16.1
                              L143.1,16.1z"></path>
<path d="M77.1,24.2c-0.3,0-0.7-0.1-0.9-0.4c-0.2-0.2-0.3-0.6-0.3-1.2v-6.2h2.5l0.3-2.7H76v-3.5l-3.1,0.3v3.1h-2.4v2.7h2.4l0,6.3
                              c0,1.3,0.3,2.3,0.9,2.9c0.6,0.7,1.5,1,2.7,1c0.5,0,1.1-0.1,1.6-0.2c0.5-0.1,1-0.4,1.4-0.7l-1.1-2C78,24,77.6,24.2,77.1,24.2z"></path>
<path d="M89.9,19.6c-1.3-0.8-2.8-0.9-4.2-1c-0.9-0.1-2.2-0.3-2.2-1.4c0-0.8,0.8-1.2,2.3-1.2c1.2,0,2.2,0.3,3.1,1.1l1.7-2
                              c-1.5-1.3-3-1.7-4.9-1.7c-2.3,0-5.4,1-5.4,3.9c0,1.2,0.6,2.3,1.7,3c1.2,0.7,2.7,0.8,4,1c0.9,0.1,2.3,0.3,2.1,1.5
                              c-0.2,0.9-1.2,1.1-1.9,1.1c-0.8,0-1.6,0-2.4-0.2c-0.8-0.2-1.5-0.6-2.2-1.1l-1.6,2l0.2,0.2c2,1.7,4.9,2.2,7.4,1.6
                              c1.9-0.4,3.6-1.8,3.6-3.9C91.3,21.4,90.9,20.2,89.9,19.6z"></path>
<rect x="32.1" y="8.2" width="3.1" height="18.2"></rect>
<rect x="37.8" y="13.7" width="3.1" height="12.6"></rect>
<path fill="#ED5153" d="M11.5,0l1.6,2.8c0.3,0.6,0.3,1.3,0,1.8L3.7,21l4.5,7.7c1.1,1.9,3.5,2.5,5.4,1.4c0.6-0.3,1.1-0.8,1.4-1.4
                              l4.5-7.7l-1.2-2.1l-5.1,8.8c-0.5,0.9-1.6,1.2-2.5,0.7c-0.3-0.2-0.5-0.4-0.7-0.7L6.1,21l8.8-15.2l1.6,2.8c0.3,0.6,0.3,1.3,0,1.8
                              L10.3,21l1.2,2.1l6.7-11.5l4.4,7.6c0.7,1.2,0.7,2.6,0,3.8l-4.4,7.7c-0.7,1.2-2.8,3.8-6.6,3.8s-5.9-2.6-6.6-3.8l-4.4-7.7
                              c-0.7-1.2-0.7-2.6,0-3.8L11.5,0"></path>
</g>
</svg>