<svg xmlns="http://www.w3.org/2000/svg" width="512" height="126" preserveAspectRatio="xMidYMid"><path fill="#0B0B0A" d="M473.8 79.04l-.08-.15-.16-.5.08-.15c4.88-10.05 10.47-15.8 15.33-15.8h.05c5.5.03 9.3 4.97 9.24 12-.03 4.7-2.1 7.4-3.83 8.84-1.97 1.64-4.6 2.58-7.2 2.58-6.44-.05-10.85-3.75-13.43-6.84zM472.47 117c-.8 1.04-1.88 1.57-3.25 1.57-1.57-.02-2.75-.57-3.56-1.64-2.25-3-1.6-10.08 2.06-22.9.44-1.54.9-3.1 1.42-4.6l.42-1.28.38 1.3c4.28 14.82 5.13 24.08 2.53 27.54zm-157.3-68.26c.14-3.2.4-6.3.8-9.26 2.47-18.98 7.64-32.24 12.57-32.24h.03c2.35.02 3.52 1.8 3.5 5.3-.07 8.56-5.5 20.83-16.14 36.46l-.83 1.22.06-1.48zm172.6 43.3h.18c10.36 0 17.65-7.17 17.73-17.44.04-5.1-1.43-9.74-4.14-13.1-2.86-3.57-6.87-5.47-11.6-5.5h-.08c-6.37 0-12.3 4.83-18.08 14.77l-.47.8-.28-.87c-1.47-4.26-2.77-7.8-3.55-9.94-.55-1.48-.8-2.14-.84-2.36-.28-1.07-1.2-1.74-2.4-1.74-.75 0-1.54.25-2.28.72-.74.47-1.15 1.05-1.3 1.8l-.04.13c-5.8 18.1-10.58 26.9-14.63 26.9-.6 0-1.05-.2-1.4-.58-1.06-1.18-.8-3.97-.43-7.83.26-2.85.56-6.06.44-9.47-.24-6.56-3.83-10.5-9.6-10.54-7.32 0-12.07 7.8-14.26 12.44l-.65 1.4-.15-1.53c-.55-5.75-2.48-12.63-8.58-12.67-7.1 0-12.53 8.35-15.84 15.35l-.9 1.88.1-2.07c.4-9.36.72-14.88.96-16.4.24-1.54.1-2.57-.4-3.16-.46-.56-1.36-.76-2.68-.68-2.28.15-3.44 1.53-5.2 6.18-2.87 7.63-10.2 25.4-16.05 25.4-1.16-.02-2.08-.4-2.76-1.18-2.45-2.82-1.47-10.42-.1-20.94l.1-.8c.63-4.98-.46-6.05-3.17-6.54-.3-.06-.56-.1-.82-.1-2.16 0-3.17 2.1-5.2 7.84-3.58 10.23-8.2 21-13.6 21-.2 0-.4-.02-.6-.05-2.86-.5-2.8-4.73-2.7-10.1.03-2.92.08-6.22-.37-9.2-.8-5.34-3.95-8.68-8.2-8.7-8.5 0-14.25 10.88-16.92 17.37l-.6 1.47-.2-1.56c-.36-2.82-.83-7.28-1.04-12.56v-.15l.1-.13c15.9-20.03 23.05-34.5 23.15-46.88C338.44 4.8 334.8.05 328.6 0c-4.5 0-15.25 3.76-19 38.6-.68 6.47-1.06 13.1-1.1 19.7l-.02.13-.07.1c-7.28 10.55-22.83 28.68-38.04 28.68-13.76 0-24.73-11.1-24.73-30.75 0-26.32 18.63-42.48 32.65-42.48h.12c3.04.02 5.66.87 7.55 2.46 1.96 1.65 3 3.96 2.97 6.68-.03 3.64-1.2 5.5-2.35 7.32-.3.46-.6.92-.86 1.4-.27.5-.52 1.22-.16 1.83.37.63 1.3 1.03 2.46 1.04 3.34 0 8.4-4.84 8.44-12.13.06-7.6-6.36-15.46-17.8-15.46-17.34 0-40.67 19.04-40.67 49.9 0 21.8 13.68 36.9 32.22 36.9 13.15 0 26.16-9.42 37.68-25.15l.7-.95.06 1.18c.23 5.76.65 10.3.96 13.6.2 2.14.34 3.68.33 4.53-.03 1.87.28 3.16.92 3.95.64.8 1.66 1.17 3.2 1.18 2.6 0 3.1-1.76 4.13-6.1l.3-1.26c1.27-5.27 5.97-22.48 13.05-22.48 1.16 0 2.05.34 2.68 1 1.56 1.67 1.4 5.07 1.2 9-.13 2.47-.26 5 0 7.48.66 6.68 3.54 9.94 8.8 9.98 5.4 0 11.05-5.82 14.03-11.23l.57-1.02.22 1.15c.54 2.9 3 12.4 10.7 12.4 6.96 0 12.94-7.34 19.5-22.45l.86-1.98-.05 2.15c-.13 5.73-.44 12.72-.45 18.13 0 4.18.42 5.78 2.36 5.78.15 0 .3.02.45.02 1.85 0 3.1-1.1 3.74-3.3 4.92-17.2 9.2-25.2 13.4-25.2 4.15.03 4.54 7.6 4.87 20.96l.02.94c.1 4.67.26 6.74 3.16 6.76 2.2 0 2.75-1.73 3.9-6 .2-.8.45-1.7.73-2.66 3.97-13.82 7.27-19.46 11.38-19.46 3.53.03 3.72 3.66 3.8 4.85.12 2.54-.14 5.22-.4 7.8-.23 2.4-.48 4.88-.38 7.2.2 5.4 3.17 8.4 8.33 8.43 6.7 0 12.75-7.83 18.04-23.27l.37-1.08.42 1.06c.96 2.42 2.2 5.7 3.37 9.63l.04.15-.06.14c-5.12 11.38-8.73 24.06-8.8 30.84-.06 8.92 3.98 14.72 10.3 14.77h.1c3.44 0 11.45-1.38 11.6-14.15.07-5.23-1.16-12.63-3.66-22l-.3-1.07.93.62c3.2 2.1 6.8 3.24 10.4 3.28zM150.48 65.84c-2.26 9.07-6.58 20.02-14.38 20.64-.2.02-.43.03-.63.03-3.23 0-5.05-2.1-5.4-6.28-.42-5.23 1.84-11.35 5.75-15.6 2.5-2.7 5.3-4.2 7.9-4.2h.06c3.3.04 5.6 2.68 6.67 5.15l.06.13-.02.14zm71.47-50.73h.1c.74 0 1.4.38 1.93 1.1 2.55 3.46 2.6 16.08-1.8 30.44-2.52 8.2-5.9 15.96-9.78 22.42l-.62 1.03-.16-1.2c-.46-3.47-.68-7.1-.84-10.17-1.12-21.7 5.44-43.32 11.17-43.62zM162.6 90.4c7.52-.62 13.5-10.86 15.72-15.24l.57-1.13.2 1.25c1.07 6.16 4.42 16.5 14.9 16.58h.08c4.53 0 9.67-2.77 14.87-8l.38-.4.28.46c3.5 5.85 8.2 8.96 13.2 8.7 7.34-.37 11.8-5.58 12.2-9.2.1-.93-.15-1.8-.67-2.38-.67-.74-1.62-.82-2.33-.15l-.34.3c-1.7 1.65-4.9 4.72-8.37 4.9-4.27.2-7.42-2.34-9.45-7.6l-.08-.2.14-.2c11.7-15.3 19.92-38.65 19.1-54.3-.36-7.26-2.47-15.9-10.4-15.9-.18 0-.38 0-.58 0-3.03.17-5.8 1.62-8.2 4.3-7.34 8.23-11.18 28.45-9.8 51.54.3 4.8 1.13 9.28 2.5 13.32l.06.22-.15.2c-4.34 5.06-8.63 7.86-12.06 7.86-8.28 0-8-13.87-7.34-25.37.14-2.48.35-4.06-.38-4.96-.53-.63-1.4-.95-2.68-.96h-.15c-2.95 0-3.56.6-5.07 4.97-3.13 9.1-9.3 24.32-15.53 24.32-1.73-.02-3.05-.6-3.95-1.76-3-3.85-.72-13.46 1.12-21.18.32-1.38.64-2.72.9-3.95.4-1.83.3-3.16-.36-3.97-.65-.8-1.94-1.14-3.65-1-2.68.2-4.38 1.33-5.2 6.4l-.17 1.05-.62-.74c-1.15-1.72-3.42-3.77-7.63-3.77-.37 0-.75 0-1.15.04-4.5.37-9.6 3.5-13.35 8.17-4.37 5.47-6.46 12.37-5.88 19.45.02.38.07.74.13 1.1l.03.2-.14.14c-2.6 2.84-5.28 4.3-7.92 4.3-4.07-.04-6.4-3.07-6.4-8.1 0-8.5 5.74-34.1 5.74-43.38 0-9.86-4.4-15.23-12.02-15.3h-.12c-11.14 0-19.83 12.65-28.14 38.67-.76 2.37-1.6 5.13-2.3 7.5L71 71.13l.34-4.07c.77-9.06 1.3-17.88 1.57-26.2.43-12.58-1.27-20.68-5.18-24.75-2.1-2.2-4.9-3.28-8.54-3.3h-.1c-13.63 0-20.17 23-24.92 39.23-1.44 4.9-4.27 15.95-6.16 23.5l1.12-1.82c.84-9.5 3.27-33.33 3.1-46.26-.16-13.87-4.78-20.08-14.96-20.16h-.13c-5.44 0-9.2 2.7-11.42 4.97C2.17 15.9-.04 21.2.1 25.8c.07 2.8 1.8 5.3 3.08 5.3.85 0 1.32-1.14 1.52-1.82C7.83 18.88 11.9 13.8 17.15 13.8c2.17.02 3.78.66 5 1.96 4.08 4.4 3.34 16.23 2 37.73-.45 6.92-.94 14.78-1.36 23.7-.08 1.54-.17 3.02-.26 4.43-.4 6.2-.72 11.1 1.64 11.47 3.06.48 5.05-.77 6.07-3.8 1.5-4.5 4.9-16.78 11.46-39.23 6.3-21.55 11.07-29.4 17.15-29.4 7.03 0 7.56 12.08 6.27 37.56-.28 5.4-.64 11.5-.93 18.17-.05.94-.1 1.84-.13 2.72-.27 5.5-.5 9.86 1.1 11.52.48.52 1.15.78 2.03.8 3.05 0 3.96-2.7 5.48-7.12.27-.78.56-1.6.87-2.5 10.45-28.8 18.17-53.8 28.53-53.8 3.1 0 5.53 2.54 5.53 7.46 0 11.37-5.55 33.33-5.55 44.47 0 4 1.15 7.57 3.32 10.1 2.23 2.57 5.34 3.95 9 3.98h.1c3.46 0 7.07-1.7 10.73-5l.34-.32.28.38c2.4 3.24 6.3 4.98 10.5 4.66 6.44-.5 11.84-6.24 13.85-11.65l.4-1.06.4 1.05c1.48 4 4.7 8.84 11.62 8.3zM186.63 32.58c-2.88 0-5.2 2.27-5.23 5.06-.02 2.8 2.3 5.1 5.15 5.13l.04.42v-.43c2.82 0 5.15-2.27 5.17-5.05.02-2.8-2.3-5.1-5.14-5.14M367.52 32.58c-2.88 0-5.2 2.27-5.22 5.06-.02 2.8 2.28 5.1 5.14 5.13l.04.42v-.43c2.84 0 5.17-2.27 5.2-5.05 0-2.8-2.3-5.1-5.16-5.14"/><path fill="#0B0C0A" d="M508.4 92.85c-1.68 0-3.03-1.34-3.03-3.02 0-1.67 1.35-3.02 3.02-3.02s3.02 1.36 3.02 3.03c0 1.68-1.35 3.02-3.03 3.02zm0-6.55c-1.95 0-3.54 1.6-3.54 3.53 0 1.95 1.6 3.54 3.53 3.54 1.94 0 3.53-1.6 3.53-3.54s-1.6-3.53-3.54-3.53zM508.28 89.6h-.65v-1.36h.9c.44 0 .92.15.92.67 0 .7-.6.7-1.17.7zm1.68-.7c0-.72-.36-1.12-1.28-1.12h-1.57v4.07h.53v-1.78h.73l1.2 1.78h.6l-1.22-1.78c.55-.1 1.02-.4 1.02-1.16z"/></svg>