<svg xmlns="http://www.w3.org/2000/svg" viewBox="0 0 285.14 99.74"><defs><style>.cls-1{fill:#514c4a}</style></defs><g id="Livello_2" data-name="Livello 2"><g id="Livello_1-2" data-name="Livello 1"><path d="M270.26 14A13.77 13.77 0 00257 .15h-77.75l-1.56 6.51h78.88a7.29 7.29 0 017.14 7.34 7 7 0 01-.26 1.84l-11.53 49.3a.75.75 0 01-.18.34 7.3 7.3 0 01-6.74 4.61h-75.08a2.71 2.71 0 00-1.77.65L149.53 88.3l3.78-14.86a2.55 2.55 0 00.12-.67 2.59 2.59 0 00-.48-1.61 2.54 2.54 0 00-2.06-1h-137a7.3 7.3 0 01-7.28-7.3 5 5 0 01.01-.86 1.31 1.31 0 010-.28l11.5-49.2a.41.41 0 01.08-.19 7.23 7.23 0 016.65-5.56.46.46 0 01.23-.06h101.63l1.57-6.55-103.2.02a7.33 7.33 0 00-1.24.11A13.71 13.71 0 0012 10.28a6.23 6.23 0 00-.22.77L.24 60.25a7.1 7.1 0 00-.18 1.45A9.11 9.11 0 000 62.8a13.87 13.87 0 0013.84 13.85H145L140.77 94a7.61 7.61 0 00-.12 1 4.73 4.73 0 004.73 4.73 4.77 4.77 0 003.1-1.15l24.06-22 72.33.06c.23 0 .47 0 .71 0a13.94 13.94 0 0011.94-8 7 7 0 00.78-2l11.51-49.22a13.46 13.46 0 00.45-3.42zM285.14 6.25a5.86 5.86 0 01-.43 2.23 5.59 5.59 0 01-1.19 1.87 6.16 6.16 0 01-1.71 1.25 6.08 6.08 0 01-2.62.59 5.84 5.84 0 01-2.37-.48A5.9 5.9 0 01275 10.5a6.43 6.43 0 01-1.16-1.62 6.14 6.14 0 01-.59-2.64 5.8 5.8 0 01.32-2 5.9 5.9 0 01.83-1.6 6.51 6.51 0 011.23-1.23 5.61 5.61 0 011.65-.86 6.32 6.32 0 011.92-.31 5.91 5.91 0 012.58.59 5.8 5.8 0 011.71 1.22 6 6 0 011.11 1.63 5.88 5.88 0 01.55 2.53m-5.95-5a4.79 4.79 0 00-2.07.47 5 5 0 00-1.33.94 4.91 4.91 0 00-1.08 1.51 4.66 4.66 0 00-.44 2 5 5 0 00.66 2.46 4.68 4.68 0 001.81 1.83 5 5 0 002.45.66 4.83 4.83 0 002.43-.66 4.71 4.71 0 001.82-1.83 5 5 0 00.65-2.46 4.71 4.71 0 00-.2-1.41 5.39 5.39 0 00-.6-1.29 5.38 5.38 0 00-1.05-1.16 4.65 4.65 0 00-1.44-.81 4.76 4.76 0 00-1.61-.29m-.88 8.26h-1.7V2.94h2.76a3 3 0 012 .54 1.69 1.69 0 01.62 1.35 1.69 1.69 0 01-.42 1.2 1.76 1.76 0 01-1.19.49 2.06 2.06 0 01.85.32 1.43 1.43 0 01.51.63 2.54 2.54 0 01.15.9V9a1.9 1.9 0 00.11.58h-1.64a5 5 0 01-.11-1 1.88 1.88 0 00-.15-.8.85.85 0 00-.42-.37 2.8 2.8 0 00-1-.12h-.36v2.26zm0-3.52h.68a1.45 1.45 0 001-.28.87.87 0 00.3-.71.82.82 0 00-.42-.76 1.87 1.87 0 00-.89-.17h-.64V6z" class="cls-1"/><path d="M185.1 62.27l1.4-5.84h-.17c-2.15 3.65-7 7.38-11.19 7.38-7.81 0-11.19-3.57-9.65-10l9.38-39h13.5l-8.18 34c-.36 2.2-.23 4.15 2.35 4a5 5 0 004.86-4l8.18-34h13.49l-11.41 47.46zM228.51 14.76l-1.38 5.76h.16c3.77-4.75 8-6.95 12.75-7.13 8.91 0 9.42 8.83 7.63 16.3l-4 16.47c-1.94 8.06-6.11 17.31-16 17.65-2.4.08-6.38-1.36-8.39-6h-.18L215 73h-13.5L216 14.76zm5.05 17.48c.67-2.8 1.87-7.81-2-7.81-3.65 0-5.33 3.82-6.43 8.4L222.41 44c-1 4.08-1.27 8.83 2.06 8.74 4.33 0 5.4-5.17 6.13-8.23l3-12.3zM42.89 14.76l-1.32 5.51h.17a17.08 17.08 0 0111.75-6.88c4.39-.25 7.94 2.3 8.51 6.29h.17c3.48-4.25 7.53-6.29 11.35-6.29 6.36 0 11.21 3.48 9.66 9.93l-9.36 39H60.33l8.16-33.94c.36-2.21 0-4.07-2.63-3.9a4.61 4.61 0 00-4.58 3.9l-8.16 33.89h-13.5l8.16-33.94c.07-2 0-3.9-2.29-3.9-2.71 0-4.14 1.36-4.93 3.9l-8.15 33.94H18.92l11.42-47.51zM103.53 58c-4.29 3.74-7.67 5.78-13 5.78-7.64 0-11.14-5.18-9.33-12.73C83.77 40.3 90.45 36.91 96.85 35s12.33-2.55 13.55-7.64c.63-2.63-.34-4.91-3.06-4.91-4.92 0-5.74 3.39-7 7.38H86.9c2.26-11.89 11.32-16.39 22.18-16.39 13.32 0 17.18 4.08 14.67 14.52l-7 29.11a15 15 0 00-.16 5.25h-13.15l.09-4.24zm4-18.84c-3.07 1.45-5.63 2.21-7.63 3.49a9.25 9.25 0 00-4.61 6.11c-.71 3 .56 5.09 3.79 5.09 4 0 5.83-4.16 6.65-7.21l1.8-7.48zM121.94 62.27l11.42-47.51h13.5l-11.43 47.51zm12.54-52.18L136.89 0h13.49L148 10.09zM142.57 62.27L157.47 0h13.49l-14.9 62.27h-13.49zM10.21 99.66h5.56c3.84 0 5.58-2.17 6.11-4.69.48-2.13-.41-3.47-2.15-3.72A4.39 4.39 0 0023 87.7c.67-3.07-1.05-4-3.75-4h-5.57l-3.47 16zM16.45 86h1.19c1.63 0 2.27.56 1.93 2.09s-1.28 2.11-3.09 2.11h-.94l.91-4.2zm-1.39 6.44h1.42c1.44 0 2.4.54 2 2.4a2.81 2.81 0 01-3.16 2.43H14l1-4.83zm11.35-8.81l-3.48 16h9.36l.58-2.63H26.8l.94-4.31h5.49l.57-2.65h-5.49l.82-3.77H35l.57-2.64zM45.68 86h1.56c1.49 0 2.13.74 1.81 2.22a2.74 2.74 0 01-3 2.41h-1.37l1-4.63zm-6.24 13.66h3.29l1.47-6.77H46c1.33 0 1.74.76 1.51 2L46.9 98a2.71 2.71 0 000 1.68h3.57v-.13c-.55-.32-.44-1.19-.12-2.87.71-3.39.62-4.6-1.55-4.89 1.94-.38 3.11-1.81 3.59-4 .59-2.74-.76-4.12-3.46-4.12h-6.01l-3.48 16zm16.2-16l-3.48 16h9.36L62.1 97H56l1-4.29h5.49l.51-2.65h-5.46l.83-3.77h5.83l.57-2.64zm16.67 16l.57-2.66H67l3-13.35h-3.3l-3.48 16zm4.94-16l-3.48 16h9.36l.58-2.66h-6.07l.94-4.31h5.49l.57-2.65h-5.49l.85-3.75h5.84l.57-2.64zm9.94 0l.27 16h4.24l7.23-16h-3.41l-5 11.84h-.06l.25-11.84zm7.48 16h3.43l1.49-3.39h4.35v3.39h3.44l-.85-16h-4.07l-7.81 16zm9.2-13.23v7.2h-3.2l3.13-7.2zm8.13-2.78l-3.48 16h3l2.48-11.2 1.6 11.21h3.75l3.48-16h-3l-2.38 11-1.6-11zm12.27 0l-.57 2.64h3.57l-2.91 13.37h3.3l2.9-13.37h3.58l.57-2.64z" class="cls-1"/></g></g></svg>