<svg xmlns="http://www.w3.org/2000/svg" width="256" height="180" preserveAspectRatio="xMidYMid"><path fill="#00A1E0" d="M106.55 19.65a44.81 44.81 0 0132.43-13.92c16.89 0 31.61 9.41 39.46 23.39a54.52 54.52 0 0122.3-4.74c30.45 0 55.13 24.9 55.13 55.61 0 30.72-24.68 55.62-55.13 55.62-3.72 0-7.35-.37-10.86-1.08a40.3 40.3 0 01-52.81 16.59 46 46 0 01-85.48-2.08c-2.83.6-5.77.91-8.78.91-23.57 0-42.68-19.3-42.68-43.13a43.2 43.2 0 0121.34-37.36A49.64 49.64 0 0167.06.13c16.1 0 30.42 7.66 39.5 19.52"/><path fill="#FFF" d="M37.17 92.96c-.16.42.06.5.1.58.49.35.98.6 1.47.88a15.57 15.57 0 007.65 1.79c5.24 0 8.5-2.8 8.5-7.29v-.08c0-4.16-3.68-5.67-7.13-6.75l-.44-.15c-2.6-.85-4.85-1.57-4.85-3.29v-.09c0-1.46 1.31-2.54 3.35-2.54 2.25 0 4.94.75 6.66 1.7 0 0 .5.33.7-.16.1-.26.97-2.62 1.06-2.87.1-.28-.07-.48-.25-.59a14.88 14.88 0 00-7.52-2.02h-.52c-4.8 0-8.16 2.9-8.16 7.06v.09c0 4.38 3.7 5.8 7.17 6.8l.55.16c2.53.78 4.7 1.45 4.7 3.23v.08c0 1.63-1.41 2.84-3.7 2.84-.88 0-3.7-.02-6.75-1.95-.37-.21-.58-.37-.87-.54-.15-.1-.52-.26-.69.24l-1.03 2.87zM113.97 92.96c-.16.42.06.5.1.58.49.35.98.6 1.47.88a15.57 15.57 0 007.65 1.79c5.24 0 8.5-2.8 8.5-7.29v-.08c0-4.16-3.68-5.67-7.13-6.75l-.44-.15c-2.6-.85-4.85-1.57-4.85-3.29v-.09c0-1.46 1.31-2.54 3.34-2.54 2.26 0 4.94.75 6.67 1.7 0 0 .5.33.7-.16.1-.26.97-2.62 1.06-2.87.1-.28-.08-.48-.25-.59a14.88 14.88 0 00-7.52-2.02h-.52c-4.8 0-8.16 2.9-8.16 7.06v.09c0 4.38 3.7 5.8 7.17 6.8l.55.16c2.53.78 4.7 1.45 4.7 3.23v.08c0 1.63-1.41 2.84-3.7 2.84-.88 0-3.7-.02-6.75-1.95-.37-.21-.59-.36-.86-.54-.1-.06-.54-.23-.7.24l-1.03 2.87zM166.4 84.16c0 2.54-.47 4.54-1.4 5.95-.93 1.4-2.32 2.08-4.27 2.08-1.95 0-3.34-.68-4.24-2.08-.92-1.41-1.39-3.41-1.39-5.95s.47-4.53 1.39-5.93c.9-1.39 2.3-2.06 4.24-2.06 1.95 0 3.34.67 4.27 2.06.93 1.4 1.4 3.4 1.4 5.93m4.38-4.7a10.54 10.54 0 00-2-3.81 9.63 9.63 0 00-3.36-2.56 11.06 11.06 0 00-4.69-.94c-1.78 0-3.36.32-4.7.94a9.68 9.68 0 00-5.35 6.36 16.65 16.65 0 00-.65 4.7c0 1.69.22 3.27.65 4.71a10.6 10.6 0 002 3.8 9.4 9.4 0 003.35 2.54c1.34.61 2.92.92 4.7.92 1.77 0 3.35-.3 4.7-.92a9.4 9.4 0 003.35-2.53c.9-1.07 1.57-2.35 2-3.8.43-1.45.64-3.04.64-4.71 0-1.68-.21-3.26-.64-4.7M206.74 91.51c-.15-.42-.56-.26-.56-.26-.64.24-1.32.47-2.04.58-.73.11-1.53.17-2.4.17-2.12 0-3.8-.63-5-1.88-1.22-1.24-1.9-3.26-1.89-5.98.01-2.48.6-4.35 1.68-5.77 1.07-1.41 2.7-2.14 4.86-2.14 1.81 0 3.19.21 4.63.67 0 0 .35.15.51-.3.38-1.07.67-1.83 1.07-3 .12-.33-.16-.47-.27-.51a17.08 17.08 0 00-6.2-.96c-1.84 0-3.48.31-4.88.94a10.11 10.11 0 00-5.66 6.35 15.14 15.14 0 00-.72 4.72c0 3.63.98 6.57 2.92 8.72 1.94 2.15 4.85 3.25 8.64 3.25 2.25 0 4.55-.46 6.2-1.1 0 0 .32-.16.18-.53l-1.07-2.97zM214.4 81.72c.2-1.4.6-2.58 1.2-3.5a4.72 4.72 0 014.23-2.14 4.6 4.6 0 014.16 2.15c.61.91.88 2.14.98 3.5H214.4zm14.74-3.1a9.2 9.2 0 00-1.9-3.46 8.7 8.7 0 00-2.8-2.15 10.84 10.84 0 00-4.26-.86c-1.85 0-3.53.31-4.89.95a9.73 9.73 0 00-3.41 2.6 10.68 10.68 0 00-2 3.85 16.64 16.64 0 00-.66 4.74c0 1.7.22 3.3.67 4.73a9.78 9.78 0 002.15 3.77 9.74 9.74 0 003.73 2.47c1.49.57 3.3.87 5.38.87 4.28-.02 6.54-.97 7.46-1.49.17-.09.33-.25.13-.7l-.97-2.72c-.15-.4-.56-.26-.56-.26-1.06.4-2.57 1.1-6.08 1.1-2.3 0-4-.68-5.07-1.74-1.1-1.09-1.64-2.69-1.73-4.94l14.82.02s.4-.01.43-.39c.02-.16.51-3.04-.44-6.39zM95.68 81.72c.21-1.4.6-2.58 1.2-3.5a4.72 4.72 0 014.24-2.14c1.94 0 3.23.76 4.16 2.15.6.91.87 2.14.98 3.5H95.68zm14.74-3.1a9.2 9.2 0 00-1.9-3.46 8.7 8.7 0 00-2.8-2.15 10.84 10.84 0 00-4.25-.86c-1.85 0-3.53.31-4.9.95a9.73 9.73 0 00-3.4 2.6 10.68 10.68 0 00-2.02 3.85 16.77 16.77 0 00-.65 4.74c0 1.7.23 3.3.68 4.73a9.78 9.78 0 002.15 3.77 9.74 9.74 0 003.72 2.47c1.5.57 3.3.87 5.38.87 4.28-.02 6.54-.97 7.47-1.49.16-.09.32-.25.12-.7l-.96-2.72c-.15-.4-.56-.26-.56-.26-1.06.4-2.57 1.1-6.1 1.1-2.29 0-4-.68-5.06-1.74-1.1-1.09-1.63-2.69-1.73-4.94l14.83.02s.39-.01.43-.39c.01-.16.5-3.04-.45-6.39zM63.64 91.43a3 3 0 01-.85-.88c-.3-.45-.45-1.1-.45-1.92 0-1.3.43-2.24 1.33-2.87-.01 0 1.27-1.12 4.3-1.08 2.12.03 4.02.35 4.02.35v6.74s-1.88.4-4 .53c-3.02.18-4.36-.87-4.35-.87m5.9-10.41c-.6-.05-1.38-.07-2.31-.07-1.27 0-2.5.16-3.65.47-1.16.3-2.2.8-3.1 1.43a7.15 7.15 0 00-2.15 2.45c-.52.97-.79 2.12-.79 3.41 0 1.31.23 2.46.68 3.39a6.1 6.1 0 001.93 2.31 8.1 8.1 0 003.02 1.31c1.16.27 2.48.4 3.93.4 1.51 0 3.03-.12 4.5-.37 1.45-.25 3.24-.61 3.73-.72.5-.12 1.04-.27 1.04-.27.37-.09.34-.48.34-.48V80.72c0-2.97-.8-5.18-2.36-6.54-1.56-1.36-3.85-2.05-6.81-2.05-1.11 0-2.9.15-3.97.36 0 0-3.24.63-4.58 1.67 0 0-.29.19-.13.6l1.05 2.81c.13.37.49.24.49.24s.1-.04.24-.12c2.85-1.55 6.46-1.5 6.46-1.5 1.6 0 2.83.32 3.66.96.81.62 1.22 1.55 1.22 3.53v.62c-1.27-.18-2.44-.28-2.44-.28M189.1 73.38a.4.4 0 00-.22-.53c-.25-.1-1.51-.37-2.49-.43-1.86-.11-2.9.2-3.82.62a6.74 6.74 0 00-2.5 1.84v-1.8c0-.25-.18-.45-.43-.45h-3.8c-.25 0-.43.2-.43.45v22.1c0 .26.2.46.45.46h3.9c.25 0 .45-.2.45-.45V84.14c0-1.48.16-2.96.49-3.89a5.6 5.6 0 011.3-2.18c.54-.52 1.15-.9 1.83-1.1a7.15 7.15 0 011.99-.28c.77 0 1.63.2 1.63.2.28.03.44-.14.53-.4.26-.68.98-2.7 1.12-3.11"/><path fill="#FFF" d="M152.54 63.13a11.6 11.6 0 00-3.48-.5c-2.68 0-4.79.76-6.27 2.25-1.48 1.49-2.48 3.75-2.98 6.72l-.18 1h-3.37s-.4 0-.5.44l-.55 3.08c-.04.3.1.48.48.48h3.28l-3.32 18.55c-.26 1.5-.56 2.72-.9 3.65-.32.92-.63 1.61-1.03 2.11-.38.48-.73.84-1.35 1.05a5.51 5.51 0 01-2.93.12 3.51 3.51 0 01-.8-.26s-.39-.15-.54.24c-.12.31-1 2.71-1.1 3-.1.3.04.53.23.6a9 9 0 003.53.6c1.36 0 2.6-.19 3.63-.56a6.87 6.87 0 002.74-1.9 9.78 9.78 0 001.93-3.33c.51-1.35.95-3.02 1.3-4.97l3.34-18.9h4.88s.42.01.5-.43l.55-3.09c.04-.3-.08-.47-.48-.47h-4.74c.02-.11.24-1.78.78-3.35.24-.67.67-1.2 1.04-1.58.36-.36.78-.62 1.24-.77a6.22 6.22 0 013.57.08c.48.14.55 0 .64-.23l1.14-3.11c.11-.34-.17-.48-.28-.52M86.32 95.19c0 .25-.18.45-.42.45h-3.94c-.24 0-.42-.2-.42-.45V63.55c0-.24.18-.44.42-.44h3.94c.24 0 .42.2.42.44V95.2z"/></svg>