<svg xmlns="http://www.w3.org/2000/svg" viewBox="0 0 120 26"><title>shopware-no-padding</title><path d="M35.41,13.12c-1.09-.47-2-.9-2-1.61,0-.5.56-1,1.51-1a5.69,5.69,0,0,1,2.34.54.51.51,0,0,0,.71-.21l.38-.76a.64.64,0,0,0-.24-.8,6.17,6.17,0,0,0-3.19-.8c-2.65,0-3.74,1.6-3.74,3,0,1.79,1.39,2.69,3.07,3.45,1.52.69,2.34,1.16,2.34,1.89s-.52,1.07-1.44,1.07a5,5,0,0,1-2.72-.81.5.5,0,0,0-.71.14l-.49,1a.45.45,0,0,0,.18.57A6.41,6.41,0,0,0,35,19.93c2.44,0,3.9-1.49,3.9-3.19C38.93,14.7,37.42,14,35.41,13.12Z" style="fill:#189eff"/><path d="M20.9,23a19.51,19.51,0,0,0-4.48-2.14,23.69,23.69,0,0,1-6.17-3.11A7.39,7.39,0,0,1,7.3,11.63,6.91,6.91,0,0,1,10,6c2-1.58,5-2.41,8.75-2.41a22.38,22.38,0,0,1,2.92.19.19.19,0,0,0,.15-.32,12.79,12.79,0,1,0-.94,19.81.18.18,0,0,0,0-.3Z" style="fill:#189eff"/><path d="M26,11.82a.2.2,0,0,0-.06-.13c-2.67-2.21-4.83-3.12-7.46-3.12a5.14,5.14,0,0,0-3.19.84,2.37,2.37,0,0,0-1,1.93c0,2.2,2.69,3.2,5.8,4.36A34.62,34.62,0,0,1,25,17.76l.09,0h.06a.2.2,0,0,0,.11-.11A12.76,12.76,0,0,0,26.08,13C26.08,12.62,26.07,12.23,26,11.82Z" style="fill:#189eff"/><path d="M99.56,19.8a.59.59,0,0,0,.55-.58V13.67c0-2.84-.34-5-4-5a12,12,0,0,0-3.92.64.51.51,0,0,0-.38.66l.23.94a.52.52,0,0,0,.64.47,11.87,11.87,0,0,1,3.18-.54c1.44,0,1.88.81,1.83,2.62a8.65,8.65,0,0,0-2.29-.35c-2.94,0-4.57,1.58-4.57,3.68,0,2.37,1.5,3.17,3.65,3.17,1.75,0,3.56,0,4.31-.07Zm-1.89-2c-.35.57-1.58.43-2.65.41s-1.77-.44-1.77-1.45c0-1.19,1-1.88,2.34-1.88a5.42,5.42,0,0,1,2.08.39Z" style="fill:#189eff"/><path d="M118.2,8.51a1.3,1.3,0,1,0-1.3-1.3A1.3,1.3,0,0,0,118.2,8.51Zm0-2.4a1.11,1.11,0,1,1-1.09,1.1A1.1,1.1,0,0,1,118.2,6.11Z" style="fill:#189eff"/><path d="M117.76,7.87h.12a0,0,0,0,0,0,0V7.35h.28l.25.49s0,0,0,0h.14s0,0,0-.06l-.26-.47a.43.43,0,0,0,.28-.38.41.41,0,0,0-.41-.4h-.51a0,0,0,0,0,0,0V7.83S117.74,7.87,117.76,7.87Zm.16-1.13h.33a.23.23,0,1,1,0,.45h-.33Z" style="fill:#189eff"/><path d="M46.2,8.51A5.28,5.28,0,0,0,43,9.64V4.76a.56.56,0,0,0-.52-.52H41.18a.54.54,0,0,0-.52.52V19.41a.53.53,0,0,0,.52.52h1.31a.5.5,0,0,0,.54-.52V12.34a3.25,3.25,0,0,1,2.86-1.59c1.42,0,2.18,1.07,2.18,2.87v5.79a.52.52,0,0,0,.52.52h1.32a.54.54,0,0,0,.52-.52V13.66C50.43,10.68,49.3,8.51,46.2,8.51Z" style="fill:#189eff"/><path d="M73.91,13.78c-.13-3.71-1.69-5.27-5.27-5.27a15.44,15.44,0,0,0-4.08.64c-.37.16-.64.36-.64.62V23.68a.52.52,0,0,0,.52.52h1.1a.51.51,0,0,0,.56-.52V19.75a20.18,20.18,0,0,0,3.45.18c2.53-.08,4.23-1.91,4.37-5a13,13,0,0,0,0-1.4Zm-2.29,1.13c-.05,2.1-.66,3-2.43,3.13a26,26,0,0,1-3-.19c-.08,0-.14-.07-.14-.15V11a.13.13,0,0,1,.11-.13,11.93,11.93,0,0,1,2.43-.31c2.16,0,2.92.32,3,3.05C71.63,14,71.63,14.49,71.62,14.91Z" style="fill:#189eff"/><path d="M89.57,8.74h-1c-.28,0-.69,0-.83.33L86,15.37h0L83,8.77c0-.15-.21-.26-.47-.26h-.17a.5.5,0,0,0-.45.26l-3,6.57h0l-1.8-6.27a.47.47,0,0,0-.47-.33H75.24a.4.4,0,0,0-.38.62l3.2,10.29a.42.42,0,0,0,.44.28h.15a.42.42,0,0,0,.42-.26l3.36-7.43h0l3.33,7.43a.52.52,0,0,0,.48.26h.09a.51.51,0,0,0,.5-.28L90,9.36C90.17,9,90,8.74,89.57,8.74Z" style="fill:#189eff"/><path d="M107,8.64h-.46c-.56,0-1.11,0-1.62,0h0c-1,0-1.56.11-2,.16,0,0-.27,0-.58.07a.66.66,0,0,0-.45.23.36.36,0,0,0-.1.25v10a.53.53,0,0,0,.52.52h1.09c.45,0,.76-.05.76-.52V12.64h0V11.09c0-.07.1-.15.16-.18a5.07,5.07,0,0,1,2.19-.28h.3a3.25,3.25,0,0,1,.92.2.46.46,0,0,0,.66-.26l.57-.93C109.36,8.92,108.06,8.64,107,8.64Z" style="fill:#189eff"/><path d="M114.51,8.51a5.44,5.44,0,0,0-5.44,5.7,5.44,5.44,0,0,0,5.46,5.72,6.26,6.26,0,0,0,4-1.35c.33-.28.23-.49,0-.73l-.63-1c-.19-.29-.41-.22-.64-.05a4.25,4.25,0,0,1-2.67.92,3.19,3.19,0,0,1-3.27-3H119a.51.51,0,0,0,.49-.47,6.47,6.47,0,0,0,0-.76A4.86,4.86,0,0,0,114.51,8.51Zm-3,4.49a2.77,2.77,0,0,1,2.93-2.48,2.59,2.59,0,0,1,2.7,2.48Z" style="fill:#189eff"/><path d="M62,11.89a5.27,5.27,0,0,0-1-1.81,4.5,4.5,0,0,0-1.59-1.17,6.33,6.33,0,0,0-4.43,0,4.5,4.5,0,0,0-1.59,1.17,5.27,5.27,0,0,0-1,1.81,7.55,7.55,0,0,0,0,4.67,5.32,5.32,0,0,0,1,1.8A4.48,4.48,0,0,0,55,19.52a6.19,6.19,0,0,0,4.43,0A4.48,4.48,0,0,0,61,18.36a5.32,5.32,0,0,0,1-1.8,6.92,6.92,0,0,0,.37-2.34A6.9,6.9,0,0,0,62,11.89Zm-4.91,6.16c-2,0-3-1.67-3-3.74s1-3.73,3-3.73,3,1.67,3,3.73S59.09,18.05,57.11,18.05Z" style="fill:#189eff"/></svg>