<svg xmlns="http://www.w3.org/2000/svg" width="126" height="34" xmlns:xlink="http://www.w3.org/1999/xlink"><defs><rect id="a" width="34" height="34" rx="2"/><path id="b" d="M16.73.43c4.24 0 7.74 3.46 7.74 7.87v8.13H8.15c-4.24 0-7.68-3.6-7.68-8s3.44-8 7.68-8h8.58zm4.02 12.25c1.16-1.1 1.88-2.67 1.88-4.33C22.63 5 19.7 2.3 16.1 2.3H8.84c-3.6 0-6.5 2.77-6.5 6.13s2.9 6.12 6.5 6.12h7.28c1.83 0 3.47-.75 4.65-1.87zM14.3 6.84c-.15 0-.3-.03-.42-.08L11.8 8.34c0 .05.02.1.02.17 0 .04 0 .07 0 .1l2.04 1.5c.13-.05.28-.08.44-.08.65 0 1.17.54 1.17 1.2 0 .67-.52 1.2-1.17 1.2-.65 0-1.18-.53-1.18-1.2 0-.03 0-.07 0-.1l-2-1.5c-.15.06-.3.1-.47.1-.65 0-1.18-.54-1.18-1.2 0-.67.53-1.2 1.18-1.2.13 0 .26 0 .38.05l2.1-1.6c0-.04 0-.1 0-.13 0-.67.52-1.2 1.17-1.2.65 0 1.17.53 1.17 1.2 0 .66-.52 1.2-1.17 1.2z"/><path id="c" d="M3.48 9.56c.1.6.25 1.04.5 1.33.43.52 1.18.8 2.25.8.63 0 1.15-.08 1.55-.22.76-.27 1.13-.77 1.13-1.5 0-.43-.17-.76-.55-1-.37-.23-.96-.43-1.76-.6l-1.4-.3c-1.33-.32-2.26-.65-2.78-1-.87-.6-1.3-1.54-1.3-2.8 0-1.17.4-2.13 1.26-2.9C3.22.6 4.46.23 6.08.23 7.47.23 8.63.6 9.6 1.3c.97.74 1.48 1.8 1.52 3.16H8.5c-.05-.78-.4-1.33-1.02-1.66-.42-.2-.94-.32-1.57-.32-.7 0-1.25.14-1.66.42-.42.28-.63.67-.63 1.18 0 .46.22.8.63 1.03.26.17.83.34 1.7.55l2.22.54c.98.22 1.72.53 2.2.93.8.6 1.18 1.5 1.18 2.64 0 1.2-.46 2.17-1.36 2.95-.9.78-2.2 1.17-3.84 1.17-1.7 0-3-.4-3.98-1.16C1.38 11.97.9 10.9.9 9.56h2.58zm12.04 4h-2.5V.6h2.5v12.96zm4.52-7.22c-.32.36-.52.85-.6 1.47h3.9c-.05-.65-.25-1.15-.6-1.5-.37-.34-.82-.5-1.35-.5-.6 0-1.04.17-1.36.54zm3.5-2.17c.64.3 1.17.77 1.58 1.42.38.56.62 1.22.73 1.97.07.44.1 1.07.08 1.9h-6.56c.04.96.34 1.63.9 2.02.36.23.77.35 1.26.35.5 0 .93-.15 1.25-.44.18-.15.34-.37.47-.65h2.56c-.06.57-.35 1.14-.88 1.73-.82.93-1.97 1.4-3.45 1.4-1.2 0-2.3-.4-3.22-1.18-.93-.8-1.4-2.06-1.4-3.83 0-1.66.42-2.93 1.26-3.82.85-.88 1.95-1.32 3.3-1.32.78 0 1.5.14 2.14.44zm6.15 2.17c-.33.36-.53.85-.6 1.47h3.88c-.04-.65-.24-1.15-.6-1.5-.36-.34-.8-.5-1.34-.5-.58 0-1.03.17-1.35.54zm3.5-2.17c.63.3 1.16.77 1.57 1.42.38.56.62 1.22.73 1.97.07.44.1 1.07.08 1.9h-6.55c.03.96.33 1.63.9 2.02.35.23.76.35 1.25.35.5 0 .93-.15 1.26-.44.17-.15.33-.37.46-.65h2.56c-.07.57-.36 1.14-.9 1.73-.8.93-1.96 1.4-3.43 1.4-1.22 0-2.3-.4-3.23-1.18-.93-.8-1.4-2.06-1.4-3.83 0-1.66.42-2.93 1.26-3.82.84-.88 1.94-1.32 3.28-1.32.8 0 1.5.14 2.15.44zM36.87.65h2.46v6.98l3.12-3.6h3.1l-3.34 3.66 3.48 5.86h-3.03l-2.3-4.1-1.03 1.1v3h-2.46V.66zM54.3 4.53c.63.52.94 1.38.94 2.58v6.46h-2.56V7.73c0-.5-.07-.9-.2-1.16-.25-.5-.72-.74-1.4-.74-.86 0-1.44.36-1.76 1.1-.16.37-.25.85-.25 1.44v5.2h-2.5V4H49v1.4c.32-.5.62-.85.9-1.07.52-.4 1.18-.58 1.97-.58 1 0 1.8.26 2.43.78zM63.18 11c.4-.5.6-1.25.6-2.2 0-.97-.2-1.7-.6-2.23-.4-.52-.95-.78-1.7-.78-.72 0-1.28.25-1.68.77-.4.52-.6 1.26-.6 2.22 0 .95.2 1.7.6 2.2.4.53.96.8 1.7.8.73 0 1.3-.27 1.68-.8zm2 1.4c-.8 1-2.03 1.5-3.68 1.5-1.64 0-2.87-.5-3.68-1.5-.8-1-1.2-2.2-1.2-3.6s.4-2.6 1.2-3.6c.8-1.02 2.04-1.53 3.68-1.53 1.65 0 2.88.5 3.68 1.52.8 1 1.22 2.2 1.22 3.6s-.4 2.6-1.22 3.6zm1.67-6.55V4.07h1.33V1.4h2.48v2.67h1.56v1.78h-1.56v5.06c0 .4.05.65.15.75.1.1.4.14.92.14.08 0 .16 0 .25 0 .08 0 .16-.02.25-.02v1.87l-1.2.04c-1.17.03-1.98-.17-2.42-.62-.28-.3-.42-.73-.42-1.33v-5.9h-1.33zm9.04.5c-.32.35-.53.84-.6 1.46h3.9c-.05-.65-.26-1.15-.62-1.5-.36-.34-.8-.5-1.34-.5-.58 0-1.03.17-1.35.54zm3.5-2.18c.64.3 1.16.77 1.58 1.42.37.56.62 1.22.73 1.97.07.44.1 1.07.1 1.9h-6.57c.04.96.34 1.63.9 2.02.35.23.77.35 1.25.35.52 0 .94-.15 1.26-.44.18-.15.33-.37.47-.65h2.56c-.06.57-.36 1.14-.88 1.73-.82.93-1.97 1.4-3.45 1.4-1.22 0-2.3-.4-3.22-1.18-.93-.8-1.4-2.06-1.4-3.83 0-1.66.43-2.93 1.27-3.82.84-.88 1.93-1.32 3.27-1.32.8 0 1.52.14 2.16.44z"/></defs><g fill="none"><g><g><g><g><g><g transform="translate(-280 -45) translate(280 45)"><mask><use xlink:href="#a"/></mask><use fill="#5457FF" xlink:href="#a"/></g><g transform="translate(3.528 8.568)"><mask><use xlink:href="#b"/></mask><use fill="#FFF" xlink:href="#b"/></g></g><g transform="translate(43.848 10.08)"><mask><use xlink:href="#c"/></mask><use fill="#2A354D" xlink:href="#c"/></g></g></g></g></g></g></svg>