<svg xmlns="http://www.w3.org/2000/svg" width="1201.334" height="243.999" fill-rule="evenodd" clip-rule="evenodd" image-rendering="optimizeQuality" shape-rendering="geometricPrecision" text-rendering="geometricPrecision" viewBox="0 0 12514 2542"><path fill="#9b5c8f" d="M34 249C92 108 238 9 390 9c1148 0 2296 0 3445 0 100-2 199 35 273 102 84 75 132 188 130 301 0 440 1 880-1 1320-1 199-175 376-373 382-419 2-838 0-1256 1 56 139 113 277 169 416-249-137-496-280-747-414-551-5-1102 0-1653-3-198-6-372-183-373-381-2-431 0-862-1-1293-2-65 5-131 31-191z"/><path fill="#fff" d="M1718 281c64-68 184-46 231 31 25 40 28 94 7 137-88 174-125 368-159 558-40 248-74 500-61 752 4 64-28 142-97 157-65 15-125-28-166-74-188-202-294-463-370-724-77 153-155 305-230 459-53 104-108 210-192 293-35 35-95 67-141 31-69-60-86-156-115-238-111-382-173-775-238-1167-15-65 13-143 78-170 53-20 120-23 165 16 31 28 40 71 46 111 45 303 99 605 172 903 125-238 250-476 375-714 19-35 41-70 75-92 46-29 113-27 152 14 32 34 43 80 52 125 37 197 88 392 161 578 32-281 70-566 173-831 23-53 44-110 81-155zm705 151c135-17 281 28 373 131 75 85 117 195 131 306 23 191-11 389-103 558-52 96-120 189-215 245-140 85-328 75-463-15-108-74-169-200-193-326-50-284 35-602 251-800 62-53 139-89 220-99zm28 293c-65 22-106 81-141 136-87 141-113 326-42 479 18 40 48 83 95 91 50 8 96-20 132-51 80-68 120-171 139-272 22-115 11-242-57-341-27-40-80-58-126-42zm1055-292c132-16 275 24 368 123 83 89 127 208 140 328 19 184-14 375-102 538-53 99-122 194-220 252-134 81-312 73-445-6-90-54-150-147-184-244-94-297-15-647 203-872 65-64 150-108 241-120zm29 293c-71 25-113 93-150 154-80 141-99 322-27 469 19 41 54 82 103 84 53 2 99-32 136-66 80-79 117-192 130-302 13-103-4-213-64-299-27-40-81-57-127-41z"/><path d="M4951 471c115-25 236-22 351 5 0 94 0 188 0 281-94-23-199-44-290 0-109 53-169 176-170 294-6 118 33 249 137 315 96 63 218 50 323 20 0 94 0 188 0 281-139 40-291 35-426-15-163-61-292-202-342-368-38-126-42-263-12-392 49-206 223-375 429-421zm846-14c142-16 296 6 410 97 110 86 166 224 185 359 19 148 15 302-31 444-39 121-120 233-238 288-119 56-258 60-385 31-118-26-221-104-279-209-81-142-95-310-89-470 7-138 42-282 134-388 73-87 181-139 292-152zm44 269c-61 15-95 75-111 132-30 112-25 229-17 344 7 62 14 130 58 178 58 67 176 58 230-11 36-44 45-101 53-155 11-96 14-194 0-291-10-58-26-118-69-162-36-38-94-49-144-37zm5556-250c120-32 248-27 369-1 3 94 1 188 1 282-92-22-194-43-284-3-104 47-166 158-174 269-13 124 22 267 131 340 96 66 221 53 327 22-1 94 3 189-2 283-148 38-309 33-450-28-155-68-275-208-320-370-34-125-38-259-7-385 49-197 213-359 409-410zm-4818 9c134 0 268 0 402 0 48 217 95 435 135 654 38-220 90-437 142-654 137 0 275 0 412 0 53 393 106 786 159 1180-105 0-210 0-315 0-29-269-55-539-86-808-64 270-131 539-196 808-72 0-143 0-215 0-69-270-136-540-206-809-27 270-54 540-81 810-100 0-201 0-301 0 50-393 100-786 151-1179zm1442 0c134 0 268 0 402 0 48 217 94 434 135 653 39-219 90-437 142-653 137 0 274 0 411 0 53 393 106 786 159 1180-105 0-210 0-315 0-29-269-56-539-85-808-66 269-130 539-195 808-72 0-143 0-215 0-69-270-137-540-206-810-28 270-54 540-81 810-101 0-201 0-302 0 50-393 100-786 151-1180zm1338 4c215-5 431-1 646-2 0 84 0 167 0 251-109 1-217 0-326 1 0 72 0 144 0 216 94 0 188 0 282 0 0 82 0 163 0 244-94 0-188 0-282 0 0 72 0 144 0 216 109 0 218 0 327 0 0 84 0 168 0 251-215 0-431 0-646 0-1-392 2-785-2-1177zm739-4c135 1 269-1 404 1 127 4 262 36 356 126 86 80 115 209 82 320-26 90-94 163-178 203 84 177 169 354 254 531-112 0-224 0-336 0-88-181-173-363-262-543-2 181 0 362-1 542-106 0-213 0-319 0 0-393 0-786 0-1180zm317 227c0 94 0 188 0 282 58-4 120-6 169-41 56-41 50-128 15-180-44-54-121-55-184-60zm1441-227c215-1 430 0 645 0 0 84 0 168 0 252-109 0-218 0-327 0 0 72 0 144 0 216 94 0 188 0 282 0 0 82 0 163 0 245-94 0-188 0-282 0 0 72 0 144 0 216 109 0 219 0 328 0 0 84 0 167 0 251-215 0-430 0-646 0 0-393 0-786 0-1179z"/></svg>