<svg width="21" height="21" viewBox="0 0 21 21" fill="none" xmlns="http://www.w3.org/2000/svg">
<path d="M13.9375 10L20.6875 3.3125C21.0625 2.9375 21.0625 2.25 20.6875 1.875L19.125 0.3125C18.75 -0.0625 18.0625 -0.0625 17.6875 0.3125L11 7.0625L4.25 0.3125C3.875 -0.0625 3.1875 -0.0625 2.8125 0.3125L1.25 1.875C0.875 2.25 0.875 2.9375 1.25 3.3125L8 10L1.25 16.75C0.875 17.125 0.875 17.8125 1.25 18.1875L2.8125 19.75C3.1875 20.125 3.875 20.125 4.25 19.75L11 13L17.6875 19.75C18.0625 20.125 18.75 20.125 19.125 19.75L20.6875 18.1875C21.0625 17.8125 21.0625 17.125 20.6875 16.75L13.9375 10Z" fill="#E0703A"/>
</svg>
