<svg xmlns="http://www.w3.org/2000/svg" width="23" height="21" viewBox="0 0 23 21">
    <g fill="#FFF">
        <path d="M19.546 10.364l-7.5-8.015c-.53-.567-.496-1.452.077-1.977.573-.524 1.467-.49 1.997.077l8.39 8.965c.501.536.501 1.364 0 1.9l-8.39 8.966c-.53.567-1.424.6-1.997.076-.573-.525-.608-1.41-.077-1.976l7.5-8.016z"/>
        <path d="M20.074 8.966c.78 0 1.414.626 1.414 1.398 0 .773-.633 1.399-1.414 1.399H1.414C.633 11.763 0 11.137 0 10.364c0-.772.633-1.398 1.414-1.398h18.66z"/>
    </g>
</svg>
