<svg xmlns="http://www.w3.org/2000/svg" width="30" height="29" viewBox="0 0 30 29">
    <g fill="#FFF">
        <path d="M4.379 14.5L14.21 3.286c.695-.793.65-2.031-.1-2.765-.752-.734-1.924-.687-2.62.106L.493 13.171c-.657.75-.657 1.908 0 2.658L11.49 28.373c.696.793 1.868.84 2.62.106.75-.734.795-1.972.1-2.765L4.38 14.5z"/>
        <path d="M3.686 12.543c-1.023 0-1.853.876-1.853 1.957 0 1.08.83 1.957 1.853 1.957h24.46C29.17 16.457 30 15.58 30 14.5c0-1.08-.83-1.957-1.853-1.957H3.686z"/>
    </g>
</svg>
