<svg xmlns="http://www.w3.org/2000/svg" width="23" height="25" viewBox="0 0 23 25">
    <g fill="none" fill-rule="evenodd">
        <g fill="#FFF">
            <g>
                <path d="M6.672 8.777l2.143-1.98c.412-.412.576-1.402.082-1.979L5.271 1.024C4.694.364 3.87.282 3.293.776 2.304 1.684.326 3.498.161 4.901c-1.813 5.938 12.115 20.867 18.13 19.465 1.402-.083 3.297-1.897 4.286-2.887.577-.495.577-1.32-.082-1.98l-3.544-3.876c-.494-.495-1.483-.495-1.895-.082l-2.143 1.979c-3.626-1.485-7.005-5.114-8.241-8.743z" transform="translate(-693 -55) translate(693 55)"/>
            </g>
        </g>
    </g>
</svg>
