<svg xmlns="http://www.w3.org/2000/svg" width="30" height="29" viewBox="0 0 30 29">
    <g fill="#FFF">
        <path d="M25.621 14.5L15.79 3.286c-.696-.793-.65-2.031.1-2.765.752-.734 1.924-.687 2.62.106l10.997 12.544c.657.75.657 1.908 0 2.658L18.51 28.373c-.696.793-1.868.84-2.62.106-.75-.734-.796-1.972-.1-2.765L25.62 14.5z"/>
        <path d="M26.314 12.543c1.023 0 1.853.876 1.853 1.957 0 1.08-.83 1.957-1.853 1.957H1.854C.83 16.457 0 15.58 0 14.5c0-1.08.83-1.957 1.853-1.957h24.461z"/>
    </g>
</svg>
